<?xml version="1.0" encoding="utf-8"?>
<!-- Generator: Adobe Illustrator 21.1.0, SVG Export Plug-In . SVG Version: 6.00 Build 0)  -->
<svg version="1.1" xmlns="http://www.w3.org/2000/svg" xmlns:xlink="http://www.w3.org/1999/xlink" x="0px" y="0px"
	 viewBox="0 0 504 576" style="enable-background:new 0 0 504 576;" xml:space="preserve">
<style type="text/css">
	.st0{display:none;}
	.st1{display:inline;}
	.st2{fill:#3C415E;stroke:#3C415E;stroke-width:0.75;stroke-linecap:round;stroke-linejoin:round;stroke-miterlimit:10;}
	.st3{fill:#3C415E;stroke:#3C415E;stroke-width:0.5;stroke-linecap:round;stroke-linejoin:round;stroke-miterlimit:10;}
	.st4{fill:#FFFFFF;}
	.st5{fill:#1CB3C8;}
	.st6{fill:#3C415E;}
	.st7{fill:#738598;}
	.st8{fill:none;stroke:#738598;stroke-width:0.6074;stroke-linecap:round;stroke-linejoin:round;stroke-miterlimit:10;}
	.st9{fill:none;stroke:#738598;stroke-width:0.6342;stroke-linecap:round;stroke-linejoin:round;stroke-miterlimit:10;}
	.st10{fill:#3C415E;stroke:#3C415E;stroke-width:0.25;stroke-linecap:round;stroke-linejoin:round;stroke-miterlimit:10;}
	.st11{fill:#3C415E;stroke:#3C415E;stroke-linecap:round;stroke-linejoin:round;stroke-miterlimit:10;}
	.st12{fill:none;stroke:#1CB3C8;stroke-linecap:round;stroke-linejoin:round;stroke-miterlimit:10;}
	.st13{fill:#FFFFFF;stroke:#FFFFFF;stroke-width:0.5;stroke-linecap:round;stroke-linejoin:round;stroke-miterlimit:10;}
</style>
<g id="Capa_2" class="st0">
	<g class="st1">
		<g>
			<path class="st2" d="M321.8,533.1h-14.1c-0.5,0-0.7-0.2-0.7-0.7s0.2-0.7,0.7-0.7h14.1c0.5,0,0.7,0.2,0.7,0.7
				C322.6,532.6,322.1,533.1,321.8,533.1z"/>
		</g>
		<g>
			<path class="st2" d="M321.8,541.5h-14.1c-0.5,0-0.7-0.2-0.7-0.7s0.2-0.7,0.7-0.7h14.1c0.5,0,0.7,0.2,0.7,0.7
				C322.6,541.2,322.1,541.5,321.8,541.5z"/>
		</g>
		<g>
			<path class="st2" d="M321.8,545.9h-14.1c-0.5,0-0.7-0.2-0.7-0.7s0.2-0.7,0.7-0.7h14.1c0.5,0,0.7,0.2,0.7,0.7
				C322.6,545.4,322.1,545.9,321.8,545.9z"/>
		</g>
		<g>
			<path class="st2" d="M321.8,537.3h-14.1c-0.5,0-0.7-0.2-0.7-0.7s0.2-0.7,0.7-0.7h14.1c0.5,0,0.7,0.2,0.7,0.7
				C322.5,536.9,322.1,537.3,321.8,537.3z"/>
		</g>
		<g>
			<path class="st2" d="M327.5,556.9c-0.2,0-0.5-0.1-0.6-0.2c-3.3-4.6-17.3-1.5-22.3-0.1h-0.1c-1.8,0-2.9-1.4-2.9-2.9l-0.2-28.7
				c0-1.8,1.4-2.9,2.9-2.9h20.9c1.8,0,2.9,1.4,2.9,2.9l0.2,31.4c0,0.2-0.1,0.6-0.6,0.7C327.9,556.9,327.6,556.9,327.5,556.9z
				 M304.1,523.4c-0.8,0-1.5,0.7-1.5,1.5l0.2,28.7c0,0.8,0.7,1.5,1.4,1.5c1.5-0.5,16.7-4.7,22.6-0.7l-0.2-29.5l0,0
				c0-0.8-0.7-1.5-1.5-1.5H304.1L304.1,523.4z M328,524.8L328,524.8L328,524.8z"/>
		</g>
		<g>
			<path class="st2" d="M347.2,533.1h-14.1c-0.5,0-0.7-0.2-0.7-0.7s0.2-0.7,0.7-0.7h14.1c0.5,0,0.7,0.2,0.7,0.7
				C348,532.6,347.6,533.1,347.2,533.1z"/>
		</g>
		<g>
			<path class="st2" d="M341.5,545.9h-8.3c-0.5,0-0.7-0.2-0.7-0.7s0.2-0.7,0.7-0.7h8.3c0.5,0,0.7,0.2,0.7,0.7
				C342.2,545.4,341.7,545.9,341.5,545.9z"/>
		</g>
		<g>
			<path class="st2" d="M347.2,541.5h-14.1c-0.5,0-0.7-0.2-0.7-0.7s0.2-0.7,0.7-0.7h14.1c0.5,0,0.7,0.2,0.7,0.7
				C348,541.2,347.6,541.5,347.2,541.5z"/>
		</g>
		<g>
			<path class="st2" d="M347.2,537.3h-14.1c-0.5,0-0.7-0.2-0.7-0.7s0.2-0.7,0.7-0.7h14.1c0.5,0,0.7,0.2,0.7,0.7
				C348,536.9,347.6,537.3,347.2,537.3z"/>
		</g>
		<g>
			<path class="st2" d="M327.5,556.9c-0.1,0-0.2,0-0.5-0.1c-0.2-0.2-0.5-0.7-0.1-0.9c4.4-6.2,21.7-1.2,23.6-0.7
				c0.8,0,1.4-0.7,1.4-1.5l0.2-28.7c0-0.8-0.7-1.5-1.5-1.5l-21.1,0.1c-0.8,0-1.5,0.7-1.5,1.5c0,0.5-0.2,0.7-0.7,0.7
				s-0.7-0.2-0.7-0.7c0-1.8,1.4-2.9,2.9-2.9l21.1-0.1c1.8,0,2.9,1.4,2.9,2.9l-0.2,28.7c0,1.8-1.4,2.9-2.9,2.9c-0.1,0-0.1,0-0.2,0
				c-5.1-1.5-18.8-4.6-22,0.1C328.1,556.8,327.9,556.9,327.5,556.9z"/>
		</g>
	</g>
	<g class="st1">
		<g>
			<path class="st3" d="M387.9,529.9h-5c-0.5,0-0.7-0.2-0.7-0.7s0.2-0.7,0.7-0.7h5c0.5,0,0.7-0.2,0.7-0.7v-5c0-0.5,0.2-0.7,0.7-0.7
				s0.7,0.2,0.7,0.7v5C390,528.9,389.1,529.9,387.9,529.9z"/>
		</g>
		<g>
			<path class="st3" d="M402.7,534.9h-14.2c-0.5,0-0.7-0.2-0.7-0.7s0.2-0.7,0.7-0.7h14.2c0.5,0,0.7,0.2,0.7,0.7
				C403.4,534.6,403.2,534.9,402.7,534.9z"/>
		</g>
		<g>
			<path class="st3" d="M396.9,547.9h-8.4c-0.5,0-0.7-0.2-0.7-0.7s0.2-0.7,0.7-0.7h8.4c0.5,0,0.7,0.2,0.7,0.7
				S397.4,547.9,396.9,547.9z"/>
		</g>
		<g>
			<path class="st3" d="M402.7,543.6h-14.2c-0.5,0-0.7-0.2-0.7-0.7s0.2-0.7,0.7-0.7h14.2c0.5,0,0.7,0.2,0.7,0.7
				C403.4,543.3,403.2,543.6,402.7,543.6z"/>
		</g>
		<g>
			<path class="st3" d="M402.7,539.4h-14.2c-0.5,0-0.7-0.2-0.7-0.7s0.2-0.7,0.7-0.7h14.2c0.5,0,0.7,0.2,0.7,0.7
				C403.4,538.9,403.2,539.4,402.7,539.4z"/>
		</g>
		<g>
			<path class="st3" d="M406,557h-20.9c-1.8,0-3-1.4-3-3v-24.7c0-0.2,0.1-0.6,0.2-0.7l6.3-6.3c0.1-0.1,0.5-0.2,0.7-0.2h16.6
				c1.8,0,3,1.4,3,3v29C409,555.7,407.6,557,406,557z M383.6,529.5v24.6c0,0.8,0.7,1.5,1.5,1.5H406c0.8,0,1.5-0.7,1.5-1.5v-29
				c0-0.8-0.7-1.5-1.5-1.5h-16.5L383.6,529.5z M389.8,523.4L389.8,523.4L389.8,523.4z"/>
		</g>
	</g>
</g>
<g id="Capa_1">
	<g>
		<g>
			<path class="st4" d="M173.8,56.6c-0.1,0-0.2,0-0.3-0.1s-0.2-0.2-0.3-0.4l-1.4-8c-0.2-1,0-2.1,0.5-3l15.1-27.4
				c1.2-2.3,4.1-3.1,6.3-1.8l3,1.6c2.3,1.2,3.1,4.1,1.8,6.3l-15.2,27.5l0,0c-0.5,0.9-1.3,1.6-2.2,2L173.8,56.6
				C174,56.5,173.9,56.6,173.8,56.6z M191.6,16.3c-1.3,0-2.5,0.7-3.2,1.9l-15.1,27.4c-0.4,0.7-0.5,1.5-0.4,2.3l1.3,7.3l6.7-3
				c0.7-0.3,1.3-0.9,1.7-1.5l15.2-27.5c1-1.7,0.3-3.9-1.4-4.9l-3-1.6C192.8,16.4,192.2,16.3,191.6,16.3z M183.1,51L183.1,51
				L183.1,51z"/>
		</g>
		<g>
			<path class="st4" d="M184.2,49.5c-0.1,0-0.2,0-0.3-0.1l-10.2-5.6c-0.3-0.1-0.4-0.5-0.2-0.7c0.1-0.3,0.5-0.4,0.7-0.2l10.2,5.6
				c0.3,0.1,0.4,0.5,0.2,0.7C184.6,49.4,184.4,49.5,184.2,49.5z"/>
		</g>
		<g>
			<path class="st4" d="M178.1,54.6c-0.1,0-0.2,0-0.3-0.1l-5.1-2.8c-0.3-0.1-0.4-0.5-0.2-0.7c0.1-0.3,0.5-0.4,0.7-0.2l5.1,2.8
				c0.3,0.1,0.4,0.5,0.2,0.7C178.4,54.5,178.3,54.6,178.1,54.6z"/>
		</g>
		<g>
			<path class="st4" d="M178.7,42.3c-0.1,0-0.2,0-0.3-0.1c-0.3-0.1-0.4-0.5-0.2-0.7l8.3-15.1c0.1-0.3,0.5-0.4,0.7-0.2
				c0.3,0.1,0.4,0.5,0.2,0.7L179.1,42C179.1,42.2,178.9,42.3,178.7,42.3z"/>
		</g>
		<g>
			<path class="st4" d="M196.1,27.8c-0.1,0-0.2,0-0.3-0.1l-10.2-5.6c-0.3-0.1-0.4-0.5-0.2-0.7c0.1-0.3,0.5-0.4,0.7-0.2l10.2,5.6
				c0.3,0.1,0.4,0.5,0.2,0.7C196.5,27.7,196.3,27.8,196.1,27.8z"/>
		</g>
		<g>
			<path class="st4" d="M197.3,25.7c-0.1,0-0.2,0-0.3-0.1L186.8,20c-0.3-0.1-0.4-0.5-0.2-0.7c0.1-0.3,0.5-0.4,0.7-0.2l10.2,5.6
				c0.3,0.1,0.4,0.5,0.2,0.7C197.7,25.6,197.5,25.7,197.3,25.7z"/>
		</g>
		<g>
			<path class="st4" d="M182.8,44.6c-0.1,0-0.2,0-0.3-0.1c-0.3-0.1-0.4-0.5-0.2-0.7l8.3-15.1c0.1-0.3,0.5-0.4,0.7-0.2
				c0.3,0.1,0.4,0.5,0.2,0.7l-8.3,15.1C183.2,44.5,183,44.6,182.8,44.6z"/>
		</g>
		<g>
			<path class="st4" d="M164,52.6c-0.2,0-0.4-0.2-0.5-0.4c-0.1-0.3,0.1-0.6,0.4-0.7l0.2-0.1c0.3-0.1,0.6,0.1,0.7,0.4
				c0.1,0.3-0.1,0.6-0.4,0.7l-0.2,0.1C164.1,52.6,164.1,52.6,164,52.6z"/>
		</g>
		<g>
			<path class="st4" d="M167.5,51.6c-0.2,0-0.4-0.2-0.5-0.4c-0.1-0.3,0.1-0.6,0.4-0.7l0.2-0.1c0.3-0.1,0.6,0.1,0.7,0.4
				c0.1,0.3-0.1,0.6-0.4,0.7l-0.2,0.1C167.6,51.6,167.6,51.6,167.5,51.6z"/>
		</g>
		<g>
			<path class="st4" d="M166.5,53.9c-0.2,0-0.4-0.2-0.5-0.4l-0.1-0.2c-0.1-0.3,0.1-0.6,0.4-0.7c0.3-0.1,0.6,0.1,0.7,0.4l0.1,0.2
				c0.1,0.3-0.1,0.6-0.4,0.7C166.6,53.9,166.5,53.9,166.5,53.9z"/>
		</g>
		<g>
			<path class="st4" d="M165.4,50.4c-0.2,0-0.4-0.2-0.5-0.4l-0.1-0.2c-0.1-0.3,0.1-0.6,0.4-0.7c0.3-0.1,0.6,0.1,0.7,0.4l0.1,0.2
				c0.1,0.3-0.1,0.6-0.4,0.7C165.5,50.4,165.5,50.4,165.4,50.4z"/>
		</g>
		<g>
			<path class="st4" d="M165.5,42.6c-0.2,0-0.4-0.2-0.5-0.4l-0.3-0.9c-0.1-0.3,0.1-0.6,0.4-0.7c0.3-0.1,0.6,0.1,0.7,0.4l0.3,0.9
				c0.1,0.3-0.1,0.6-0.4,0.7C165.6,42.6,165.5,42.6,165.5,42.6z"/>
		</g>
		<g>
			<path class="st4" d="M164,37.7c-0.2,0-0.4-0.2-0.5-0.4l-0.3-0.9c-0.1-0.3,0.1-0.6,0.4-0.7c0.3-0.1,0.6,0.1,0.7,0.4l0.3,0.9
				c0.1,0.3-0.1,0.6-0.4,0.7C164.1,37.7,164.1,37.7,164,37.7z"/>
		</g>
		<g>
			<path class="st4" d="M166.6,39.1c-0.2,0-0.4-0.2-0.5-0.4c-0.1-0.3,0.1-0.6,0.4-0.7l0.9-0.3c0.3-0.1,0.6,0.1,0.7,0.4
				c0.1,0.3-0.1,0.6-0.4,0.7l-0.9,0.3C166.7,39.1,166.6,39.1,166.6,39.1z"/>
		</g>
		<g>
			<path class="st4" d="M161.7,40.5c-0.2,0-0.4-0.2-0.5-0.4c-0.1-0.3,0.1-0.6,0.4-0.7l0.9-0.3c0.3-0.1,0.6,0.1,0.7,0.4
				c0.1,0.3-0.1,0.6-0.4,0.7l-0.9,0.3C161.8,40.5,161.8,40.5,161.7,40.5z"/>
		</g>
		<g>
			<path class="st4" d="M170.9,32.5c-0.2,0-0.4-0.2-0.5-0.4c-0.1-0.3,0.1-0.6,0.4-0.7l0.2-0.1c0.3-0.1,0.6,0.1,0.7,0.4
				c0.1,0.3-0.1,0.6-0.4,0.7l-0.2,0.1C171,32.5,170.9,32.5,170.9,32.5z"/>
		</g>
		<g>
			<path class="st4" d="M174.4,31.5c-0.2,0-0.4-0.2-0.5-0.4c-0.1-0.3,0.1-0.6,0.4-0.7l0.2-0.1c0.3-0.1,0.6,0.1,0.7,0.4
				c0.1,0.3-0.1,0.6-0.4,0.7l-0.2,0.1C174.5,31.5,174.5,31.5,174.4,31.5z"/>
		</g>
		<g>
			<path class="st4" d="M173.3,33.9c-0.2,0-0.4-0.2-0.5-0.4l-0.1-0.2c-0.1-0.3,0.1-0.6,0.4-0.7c0.3-0.1,0.6,0.1,0.7,0.4l0.1,0.2
				c0.1,0.3-0.1,0.6-0.4,0.7C173.4,33.9,173.4,33.9,173.3,33.9z"/>
		</g>
		<g>
			<path class="st4" d="M172.3,30.3c-0.2,0-0.4-0.2-0.5-0.4l-0.1-0.2c-0.1-0.3,0.1-0.6,0.4-0.7c0.3-0.1,0.6,0.1,0.7,0.4l0.1,0.2
				c0.1,0.3-0.1,0.6-0.4,0.7C172.4,30.3,172.3,30.3,172.3,30.3z"/>
		</g>
	</g>
	<g>
		<path class="st4" d="M310.4,193.8c-0.2,0-0.5-0.1-0.7-0.3c-0.4-0.4-0.4-1,0-1.4l28.1-28.1c0.4-0.4,1-0.4,1.4,0s0.4,1,0,1.4
			l-28.1,28.1C310.9,193.7,310.7,193.8,310.4,193.8z"/>
		<g>
			<polyline class="st4" points="311.8,194.2 312.5,194.9 314.1,193.3 313.4,192.6 			"/>
			<polygon class="st4" points="314.2,191.8 314.9,192.6 315.6,191.8 314.9,191.1 			"/>
			<polygon class="st4" points="315.6,190.4 316.4,191.1 317.1,190.4 316.4,189.7 			"/>
		</g>
	</g>
	<g>
		<path class="st5" d="M195.2,338.8c0.3,0,0.5-0.1,0.7-0.3c0.4-0.4,0.4-1,0-1.4l-29.7-29.7c-0.4-0.4-1-0.4-1.4,0s-0.4,1,0,1.4
			l29.7,29.7C194.7,338.7,195,338.8,195.2,338.8z"/>
		<g>
			<polyline class="st5" points="193.8,339.2 193.1,339.9 191.3,338.2 192.1,337.4 			"/>
			<polygon class="st5" points="191.3,336.6 190.5,337.4 189.7,336.7 190.5,335.9 			"/>
		</g>
	</g>
	<g>
		<g>
			<path class="st4" d="M410.1,175.2L410.1,175.2c-0.5,0-1-0.4-1-1l0.1-8.5l-8.5,0.1l0,0c-0.5,0-1-0.4-1-1c0-0.5,0.4-1,1-1l9.5-0.1
				c0.2,0,0.5,0.1,0.7,0.3s0.3,0.4,0.3,0.7l-0.1,9.5C411.1,174.8,410.7,175.2,410.1,175.2z"/>
			<path class="st4" d="M382.1,193.9c-0.2,0-0.5-0.1-0.7-0.3c-0.4-0.4-0.4-1,0-1.4l27.3-27.3c0.4-0.4,1-0.4,1.4,0s0.4,1,0,1.4
				l-27.3,27.3C382.6,193.8,382.3,193.9,382.1,193.9z"/>
		</g>
		<g>
			<polyline class="st4" points="383.9,194.2 384.7,195 386.3,193.3 385.6,192.6 			"/>
			<polygon class="st4" points="386.4,191.9 387.1,192.6 387.8,191.9 387.1,191.1 			"/>
			<polygon class="st4" points="387.8,190.4 388.6,191.1 389.3,190.4 388.6,189.7 			"/>
		</g>
	</g>
	<g>
		<path class="st4" d="M262.7,196.7c-0.2,0-0.3,0-0.4-0.1l-10.2-5.4l-10.2,5.4c-0.3,0.2-0.7,0.1-1-0.1c-0.3-0.2-0.4-0.6-0.4-0.9
			l1.9-11.4l-8.3-8c-0.3-0.3-0.4-0.6-0.2-1c0.1-0.3,0.4-0.6,0.8-0.7l11.4-1.7l5.1-10.3c0.2-0.3,0.5-0.5,0.9-0.5s0.7,0.2,0.9,0.5
			l5.1,10.3l11.4,1.7c0.4,0.1,0.7,0.3,0.8,0.7s0,0.7-0.2,1l-8.3,8l1.9,11.4c0.1,0.4-0.1,0.7-0.4,0.9
			C263.1,196.7,262.9,196.7,262.7,196.7z M252,189.2c0.2,0,0.3,0,0.4,0.1l8.9,4.7l-1.7-9.9c-0.1-0.3,0.1-0.6,0.3-0.9l7.2-7l-10-1.4
			c-0.3,0-0.6-0.2-0.7-0.5l-4.5-9l-4.5,9c-0.1,0.3-0.4,0.5-0.7,0.5l-10,1.4l7.2,7c0.2,0.2,0.3,0.5,0.3,0.9l-1.7,9.9l8.9-4.7
			C251.7,189.2,251.9,189.2,252,189.2z"/>
		<polygon class="st4" points="269.1,173.5 269.2,172.5 266,172 265.8,173.1 		"/>
		<polygon class="st4" points="264.8,172.9 264.9,171.9 263.9,171.7 263.8,172.8 		"/>
		<polygon class="st4" points="262.7,172.6 262.9,171.6 261.8,171.5 261.7,172.5 		"/>
		<polygon class="st4" points="245.9,184.3 244.9,184.1 244.7,185.2 245.8,185.3 		"/>
		<polygon class="st4" points="245.6,186.4 244.6,186.2 244.4,187.9 245.4,188.1 		"/>
	</g>
	<g>
		<path class="st4" d="M180.2,196.7c-9.6,0-17.3-7.8-17.3-17.4s7.8-17.3,17.3-17.3s17.4,7.8,17.4,17.3S189.8,196.7,180.2,196.7z
			 M180.2,164c-8.5,0-15.4,6.9-15.4,15.4s6.9,15.4,15.4,15.4s15.4-6.9,15.4-15.4C195.7,170.9,188.7,164,180.2,164z"/>
		<path class="st4" d="M187.8,172.2c-0.2,0-0.4-0.1-0.6-0.3l-0.2-0.2c-0.2-0.3-0.1-0.7,0.2-1c0.3-0.2,0.7-0.1,1,0.2l0.2,0.2
			c0.2,0.3,0.1,0.7-0.2,1C188,172.1,187.9,172.2,187.8,172.2z"/>
		<path class="st4" d="M185.2,168.6c-0.2,0-0.4-0.1-0.6-0.3l-0.2-0.2c-0.2-0.3-0.2-0.7,0.2-1c0.3-0.2,0.7-0.2,1,0.2l0.2,0.2
			c0.2,0.3,0.2,0.7-0.2,1C185.5,168.6,185.3,168.6,185.2,168.6z"/>
		<path class="st4" d="M188,169.1c-0.2,0-0.4-0.1-0.6-0.3c-0.2-0.3-0.2-0.7,0.2-1l0.2-0.2c0.3-0.2,0.7-0.2,1,0.2
			c0.2,0.3,0.2,0.7-0.2,1l-0.2,0.2C188.3,169,188.2,169.1,188,169.1z"/>
		<path class="st4" d="M184.5,171.6c-0.2,0-0.4-0.1-0.6-0.3c-0.2-0.3-0.1-0.7,0.2-1l0.2-0.2c0.3-0.2,0.7-0.1,1,0.2
			c0.2,0.3,0.1,0.7-0.2,1l-0.2,0.2C184.8,171.6,184.6,171.6,184.5,171.6z"/>
	</g>
	<g>
		<g>
			<path class="st4" d="M187.5,268.1h-24.8c-1.7,0-3-1.4-3-3V243c0-0.2,0.1-0.5,0.3-0.7l6.6-6.6c0.2-0.2,0.4-0.3,0.7-0.3h20.3
				c1.7,0,3,1.4,3,3v5.3c0,0.3-0.3,0.6-0.6,0.6s-0.6-0.3-0.6-0.6v-5.3c0-1-0.8-1.8-1.8-1.8h-20.2l-6.5,6.5v22c0,1,0.8,1.8,1.8,1.8
				h24.8c1,0,1.8-0.8,1.8-1.8v-3.6c0-0.3,0.3-0.6,0.6-0.6s0.6,0.3,0.6,0.6v3.6C190.5,266.7,189.1,268.1,187.5,268.1z"/>
		</g>
		<g>
			<path class="st4" d="M166.1,243.4h-5.3c-0.3,0-0.6-0.3-0.6-0.6s0.3-0.6,0.6-0.6h5.3c0.5,0,0.9-0.4,0.9-0.9V236
				c0-0.3,0.3-0.6,0.6-0.6s0.6,0.3,0.6,0.6v5.3C168.2,242.5,167.2,243.4,166.1,243.4z"/>
		</g>
		<g>
			<g>
				<path class="st4" d="M184.9,247.5h-19.8c-0.3,0-0.6-0.3-0.6-0.6s0.3-0.6,0.6-0.6h19.8c0.3,0,0.6,0.3,0.6,0.6
					S185.3,247.5,184.9,247.5z"/>
			</g>
			<g>
				<path class="st4" d="M176,256.9h-10.9c-0.3,0-0.6-0.3-0.6-0.6s0.3-0.6,0.6-0.6H176c0.3,0,0.6,0.3,0.6,0.6
					C176.6,256.6,176.4,256.9,176,256.9z"/>
			</g>
			<g>
				<path class="st4" d="M180.7,253.8h-15.6c-0.3,0-0.6-0.3-0.6-0.6s0.3-0.6,0.6-0.6h15.6c0.3,0,0.6,0.3,0.6,0.6
					S181.1,253.8,180.7,253.8z"/>
			</g>
			<g>
				<path class="st4" d="M183.4,250.6h-18.2c-0.3,0-0.6-0.3-0.6-0.6s0.3-0.6,0.6-0.6h18.2c0.3,0,0.6,0.3,0.6,0.6
					S183.7,250.6,183.4,250.6z"/>
			</g>
		</g>
		<g>
			<path class="st4" d="M179.4,264.4c-0.2,0-0.3-0.1-0.4-0.2c-0.1-0.1-0.2-0.3-0.2-0.5l0.6-5.6c0-0.1,0.1-0.3,0.2-0.4l14.2-14.2
				c0.8-0.8,2.2-0.8,3,0l2.7,2.7c0.8,0.8,0.8,2.2,0,3l-14.2,14.2c-0.1,0.1-0.2,0.1-0.3,0.2L179.4,264.4
				C179.5,264.4,179.4,264.4,179.4,264.4z M180.6,258.5l-0.5,4.7l4.5-0.6l14.1-14.1c0.4-0.4,0.4-1,0-1.4l-2.7-2.7
				c-0.4-0.4-1-0.4-1.4,0L180.6,258.5z M184.9,263.1L184.9,263.1L184.9,263.1z"/>
		</g>
		<g>
			<path class="st4" d="M186.4,262.1c-0.2,0-0.3-0.1-0.4-0.2l-4.9-4.9c-0.2-0.2-0.2-0.6,0-0.8s0.6-0.2,0.8,0l4.9,4.9
				c0.2,0.2,0.2,0.6,0,0.8C186.7,262.1,186.6,262.1,186.4,262.1z"/>
		</g>
		<g>
			<path class="st4" d="M197.7,250.9c-0.2,0-0.3-0.1-0.4-0.2l-4.9-4.9c-0.2-0.2-0.2-0.6,0-0.8s0.6-0.2,0.8,0l4.9,4.9
				c0.2,0.2,0.2,0.6,0,0.8C198,250.8,197.9,250.9,197.7,250.9z"/>
		</g>
		<g>
			<path class="st4" d="M198.5,246.7c-0.2,0-0.3-0.1-0.4-0.2c-0.2-0.2-0.2-0.6,0-0.8l1.5-1.5l-0.7-0.7l-1.5,1.5
				c-0.2,0.2-0.6,0.2-0.8,0s-0.2-0.6,0-0.8l1.6-1.6c0.4-0.4,1.1-0.4,1.5,0l0.9,0.9c0.4,0.4,0.4,1.1,0,1.5l-1.6,1.6
				C198.8,246.6,198.7,246.7,198.5,246.7z"/>
		</g>
	</g>
	<g>
		<g>
			<g>
				<g>
					<path class="st4" d="M310.4,249.5c-0.2,0-0.4-0.1-0.5-0.2c-0.2-0.3-0.1-0.6,0.1-0.8l0.8-0.5c0.3-0.2,0.6-0.1,0.8,0.1
						c0.2,0.3,0.1,0.6-0.1,0.8l-0.8,0.5C310.6,249.4,310.5,249.5,310.4,249.5z"/>
				</g>
				<g>
					<path class="st4" d="M306.3,252.4c-0.2,0-0.4-0.1-0.5-0.2c-0.2-0.3-0.1-0.6,0.1-0.8l0.8-0.5c0.3-0.2,0.6-0.1,0.8,0.1
						c0.2,0.3,0.1,0.6-0.1,0.8l-0.8,0.5C306.5,252.4,306.4,252.4,306.3,252.4z"/>
				</g>
				<g>
					<path class="st4" d="M307.5,249c-0.2,0-0.4-0.1-0.5-0.2l-0.5-0.8c-0.2-0.3-0.1-0.6,0.1-0.8c0.3-0.2,0.6-0.1,0.8,0.1l0.5,0.8
						c0.2,0.3,0.1,0.6-0.1,0.8C307.7,249,307.6,249,307.5,249z"/>
				</g>
				<g>
					<path class="st4" d="M310.5,253.1c-0.2,0-0.4-0.1-0.5-0.2l-0.5-0.8c-0.2-0.3-0.1-0.6,0.1-0.8c0.3-0.2,0.6-0.1,0.8,0.1l0.5,0.8
						c0.2,0.3,0.1,0.6-0.1,0.8C310.7,253.1,310.6,253.1,310.5,253.1z"/>
				</g>
			</g>
			<g>
				<path class="st4" d="M310.4,266.3c-0.2,0-0.4-0.1-0.5-0.2l-0.1-0.2c-0.2-0.3-0.1-0.6,0.1-0.8c0.3-0.2,0.6-0.1,0.8,0.1l0.1,0.2
					c0.2,0.3,0.1,0.6-0.1,0.8C310.7,266.3,310.5,266.3,310.4,266.3z"/>
			</g>
			<g>
				<path class="st4" d="M308.3,263.4c-0.2,0-0.4-0.1-0.5-0.2l-0.1-0.2c-0.2-0.3-0.1-0.6,0.1-0.8c0.3-0.2,0.6-0.1,0.8,0.1l0.1,0.2
					c0.2,0.3,0.1,0.6-0.1,0.8C308.5,263.3,308.4,263.4,308.3,263.4z"/>
			</g>
			<g>
				<path class="st4" d="M310.7,263.7c-0.2,0-0.4-0.1-0.5-0.2c-0.2-0.3-0.1-0.6,0.1-0.8l0.2-0.1c0.3-0.2,0.6-0.1,0.8,0.1
					c0.2,0.3,0.1,0.6-0.1,0.8l-0.2,0.1C310.9,263.7,310.8,263.7,310.7,263.7z"/>
			</g>
			<g>
				<path class="st4" d="M307.7,265.9c-0.2,0-0.4-0.1-0.5-0.2c-0.2-0.3-0.1-0.6,0.1-0.8l0.2-0.1c0.3-0.2,0.6-0.1,0.8,0.1
					c0.2,0.3,0.1,0.6-0.1,0.8l-0.2,0.1C307.9,265.9,307.8,265.9,307.7,265.9z"/>
			</g>
		</g>
		<g>
			<g>
				<path class="st4" d="M318.8,272.8L318.8,272.8l-4.9-0.1c-0.2,0-0.4-0.1-0.5-0.3c-0.1-0.2-0.1-0.4,0-0.6l1.9-3.7
					c0.1-0.1,0.2-0.2,0.3-0.3c0.2,0,0.3,0,0.5,0l4,2.2c0.1,0.1,0.2,0.2,0.3,0.3c0,0.1,0,0.3,0,0.4l-0.9,1.6
					C319.2,272.7,319,272.8,318.8,272.8z M314.8,271.5l3.7,0.1l0.4-0.8l-2.9-1.6L314.8,271.5z"/>
			</g>
			<g>
				<path class="st4" d="M341.7,240.8c-0.1,0-0.2,0-0.3-0.1c-0.3-0.2-0.4-0.5-0.2-0.8l0.9-1.6c0.1-0.2,0.1-0.4,0-0.4l-10.8-5.9
					c-0.1-0.1-0.3,0-0.4,0.2l-0.9,1.6c-0.2,0.3-0.5,0.4-0.8,0.2s-0.4-0.5-0.2-0.8l0.9-1.6c0.4-0.7,1.3-1,2-0.6l10.8,5.9
					c0.7,0.4,0.9,1.3,0.5,2l-0.9,1.6C342.1,240.7,341.9,240.8,341.7,240.8z"/>
			</g>
			<g>
				<path class="st4" d="M320.4,271.4c-0.1,0-0.2,0-0.3-0.1l-5.3-2.9c-0.1-0.1-0.2-0.2-0.3-0.3c0-0.1,0-0.3,0.1-0.4l0.6-1.1
					c-0.1-2.7-1.6-3.9-1.6-3.9c-0.2-0.2-0.3-0.5-0.2-0.7l0.4-0.8c-0.2-0.4-0.2-1,0-1.5l1.2-2.1c-0.3-0.3-0.5-0.7-0.6-1.1
					c-0.1-0.6,0-1.2,0.3-1.8l11.9-20.4c0.3-0.5,0.8-1,1.4-1.2s1.2-0.2,1.8,0.1l12.1,6.7c0.5,0.3,0.9,0.8,1,1.4
					c0.1,0.6,0,1.2-0.3,1.8l-10.9,21l0,0c-0.4,0.8-1.3,1.3-2.1,1.3l0,0l-1.3,2.3c-0.2,0.3-0.5,0.6-0.8,0.7c-0.2,0.1-0.5,0.1-0.7,0.1
					l-0.4,0.6c-0.1,0.3-0.4,0.4-0.7,0.3c-0.1,0-1.8-0.6-4.2,0.7l-0.6,1.1C320.8,271.3,320.6,271.4,320.4,271.4z M315.9,267.6
					l4.3,2.3l0.4-0.8c0.1-0.1,0.1-0.2,0.2-0.2c2.2-1.3,4-1.2,4.8-1l0.4-0.7c0.1-0.1,0.2-0.2,0.3-0.3s0.3,0,0.4,0.1l0.1,0.1
					c0.1,0,0.1,0,0.2,0s0.2-0.1,0.2-0.2l1.4-2.6c0.1-0.2,0.4-0.3,0.6-0.3c0.5,0.1,1-0.2,1.3-0.7l10.9-21c0.2-0.3,0.2-0.7,0.2-1
					c-0.1-0.3-0.2-0.5-0.5-0.7l-12.1-6.7c-0.2-0.1-0.5-0.1-0.8,0s-0.6,0.3-0.7,0.6l-11.9,20.4c-0.2,0.3-0.2,0.6-0.1,1
					c0.1,0.3,0.2,0.5,0.5,0.7c0.1,0.1,0.3,0.2,0.3,0.4c0,0.1,0,0.3,0,0.5l-1.4,2.6c-0.1,0.2-0.1,0.3,0,0.4c0.2,0.2,0.3,0.5,0.1,0.7
					l-0.4,0.7c0.6,0.6,1.6,2.1,1.7,4.6c0,0.1,0,0.2-0.1,0.3L315.9,267.6z M331.2,263.7L331.2,263.7L331.2,263.7z"/>
			</g>
			<g>
				<path class="st4" d="M326.5,268.2c-0.1,0-0.2,0-0.3-0.1l-12-6.6c-0.3-0.2-0.4-0.5-0.2-0.8c0.2-0.3,0.5-0.4,0.8-0.2l12,6.6
					c0.3,0.2,0.4,0.5,0.2,0.8C326.9,268,326.7,268.2,326.5,268.2z"/>
			</g>
			<g>
				<path class="st4" d="M328.9,265.1c-0.1,0-0.2,0-0.3-0.1l-13.1-7.2c-0.3-0.2-0.4-0.5-0.2-0.8c0.2-0.3,0.5-0.4,0.8-0.2l13.1,7.2
					c0.3,0.2,0.4,0.5,0.2,0.8C329.3,265,329.1,265.1,328.9,265.1z"/>
			</g>
		</g>
	</g>
	<g>
		<g>
			<path class="st4" d="M42.3,272.5c-6.9,0-13.2-4-16.1-10.3h-2.8c-0.4,0-0.8-0.3-0.8-0.8s0.3-0.8,0.8-0.8h3.2
				c0.3,0,0.6,0.2,0.7,0.5c2.5,6,8.4,9.9,14.9,9.9c8.9,0,16.2-7.2,16.2-16.2s-7.2-16.2-16.2-16.2c-6.5,0-12.3,3.9-14.9,9.8
				c-0.1,0.3-0.4,0.5-0.7,0.5h-9.5c-0.4,0-0.8-0.3-0.8-0.8s0.3-0.8,0.8-0.8h9.1c2.9-6.3,9.1-10.3,16.1-10.3
				c9.7,0,17.7,7.9,17.7,17.7S52,272.5,42.3,272.5z"/>
		</g>
		<g>
			<path class="st4" d="M42.4,238.7c-0.4,0-0.8-0.3-0.8-0.8v-3.8c0-0.4,0.3-0.8,0.8-0.8s0.8,0.3,0.8,0.8v3.8
				C43.1,238.4,42.8,238.7,42.4,238.7z"/>
		</g>
		<g>
			<path class="st4" d="M26.1,253.2h-4.8c-0.4,0-0.8-0.3-0.8-0.8s0.3-0.8,0.8-0.8h4.8c0.4,0,0.8,0.3,0.8,0.8S26.5,253.2,26.1,253.2z
				"/>
		</g>
		<g>
			<path class="st4" d="M26.1,257.5h-6.5c-0.4,0-0.8-0.3-0.8-0.8s0.3-0.8,0.8-0.8h6.5c0.4,0,0.8,0.3,0.8,0.8S26.5,257.5,26.1,257.5z
				"/>
		</g>
		<g>
			<path class="st4" d="M18.8,253.2h-6c-0.4,0-0.8-0.3-0.8-0.8s0.3-0.8,0.8-0.8h6c0.4,0,0.8,0.3,0.8,0.8S19.2,253.2,18.8,253.2z"/>
		</g>
		<g>
			<path class="st4" d="M19.1,262.2h-5c-0.4,0-0.8-0.3-0.8-0.8s0.3-0.8,0.8-0.8h5c0.4,0,0.8,0.3,0.8,0.8S19.5,262.2,19.1,262.2z"/>
		</g>
		<g>
			<path class="st4" d="M42.3,243.9c-0.4,0-0.8-0.3-0.8-0.8v-0.3c0-0.4,0.3-0.8,0.8-0.8s0.8,0.3,0.8,0.8v0.3
				C43,243.6,42.7,243.9,42.3,243.9z"/>
		</g>
		<g>
			<path class="st4" d="M42.3,267.6c-0.4,0-0.8-0.3-0.8-0.8v-0.3c0-0.4,0.3-0.8,0.8-0.8s0.8,0.3,0.8,0.8v0.3
				C43,267.3,42.7,267.6,42.3,267.6z"/>
		</g>
		<g>
			<path class="st4" d="M30.6,255.6h-0.3c-0.4,0-0.8-0.3-0.8-0.8s0.3-0.8,0.8-0.8h0.3c0.4,0,0.8,0.3,0.8,0.8S31,255.6,30.6,255.6z"
				/>
		</g>
		<g>
			<path class="st4" d="M54.3,255.6H54c-0.4,0-0.8-0.3-0.8-0.8s0.3-0.8,0.8-0.8h0.3c0.4,0,0.8,0.3,0.8,0.8S54.7,255.6,54.3,255.6z"
				/>
		</g>
		<g>
			<path class="st4" d="M36.5,245.5c-0.3,0-0.5-0.1-0.6-0.4l-0.2-0.3c-0.2-0.4-0.1-0.8,0.3-1c0.4-0.2,0.8-0.1,1,0.3l0.2,0.3
				c0.2,0.4,0.1,0.8-0.3,1C36.7,245.5,36.6,245.5,36.5,245.5z"/>
		</g>
		<g>
			<path class="st4" d="M48.3,266c-0.3,0-0.5-0.1-0.7-0.4l-0.2-0.3c-0.2-0.4-0.1-0.8,0.3-1c0.4-0.2,0.8-0.1,1,0.3l0.2,0.3
				c0.2,0.4,0.1,0.8-0.3,1C48.5,266,48.4,266,48.3,266z"/>
		</g>
		<g>
			<path class="st4" d="M31.9,261.6c-0.3,0-0.5-0.1-0.7-0.4c-0.2-0.4-0.1-0.8,0.3-1l0.3-0.2c0.4-0.2,0.8-0.1,1,0.3
				c0.2,0.4,0.1,0.8-0.3,1l-0.3,0.2C32.2,261.6,32,261.6,31.9,261.6z"/>
		</g>
		<g>
			<path class="st4" d="M52.4,249.8c-0.3,0-0.5-0.1-0.7-0.4c-0.2-0.4-0.1-0.8,0.3-1l0.3-0.2c0.4-0.2,0.8-0.1,1,0.3s0.1,0.8-0.3,1
				l-0.3,0.2C52.7,249.7,52.5,249.8,52.4,249.8z"/>
		</g>
		<g>
			<path class="st4" d="M48.1,245.5c-0.1,0-0.3,0-0.4-0.1c-0.4-0.2-0.5-0.7-0.3-1l0.2-0.3c0.2-0.4,0.7-0.5,1-0.3
				c0.4,0.2,0.5,0.7,0.3,1l-0.2,0.3C48.6,245.4,48.4,245.5,48.1,245.5z"/>
		</g>
		<g>
			<path class="st4" d="M36.3,266c-0.1,0-0.3,0-0.4-0.1c-0.4-0.2-0.5-0.7-0.3-1l0.2-0.3c0.2-0.4,0.7-0.5,1-0.3
				c0.4,0.2,0.5,0.7,0.3,1l-0.2,0.3C36.8,265.9,36.6,266,36.3,266z"/>
		</g>
		<g>
			<path class="st4" d="M32.2,249.8c-0.1,0-0.3,0-0.4-0.1l-0.3-0.2c-0.4-0.2-0.5-0.7-0.3-1c0.2-0.4,0.7-0.5,1-0.3l0.3,0.2
				c0.4,0.2,0.5,0.7,0.3,1C32.7,249.6,32.4,249.8,32.2,249.8z"/>
		</g>
		<g>
			<path class="st4" d="M52.7,261.6c-0.1,0-0.3,0-0.4-0.1l-0.3-0.2c-0.4-0.2-0.5-0.7-0.3-1c0.2-0.4,0.7-0.5,1-0.3l0.3,0.2
				c0.4,0.2,0.5,0.7,0.3,1C53.2,261.5,52.9,261.6,52.7,261.6z"/>
		</g>
		<g>
			<path class="st4" d="M42.3,255.6c-0.2,0-0.4-0.1-0.5-0.2l-5.4-5.5c-0.3-0.3-0.3-0.8,0-1.1s0.8-0.3,1.1,0l5,5.1l4.5-2.6
				c0.4-0.2,0.8-0.1,1,0.3c0.2,0.4,0.1,0.8-0.3,1l-5,2.9C42.6,255.6,42.4,255.6,42.3,255.6z"/>
		</g>
		<g>
			<g>
				<path class="st4" d="M30.3,242.9c-0.2,0-0.4-0.1-0.5-0.2l-1.8-1.8c-0.3-0.3-0.3-0.8,0-1.1s0.8-0.3,1.1,0l1.8,1.8
					c0.3,0.3,0.3,0.8,0,1.1C30.7,242.9,30.5,242.9,30.3,242.9z"/>
			</g>
			<g>
				<path class="st4" d="M27.4,242.2c-0.2,0-0.4-0.1-0.5-0.2c-0.3-0.3-0.3-0.8,0-1.1l2.1-2.2c0.3-0.3,0.8-0.3,1.1,0
					c0.3,0.3,0.3,0.8,0,1.1L28,242C27.8,242.1,27.6,242.2,27.4,242.2z"/>
			</g>
		</g>
		<g>
			<g>
				<path class="st4" d="M54.3,242.9c-0.2,0-0.4-0.1-0.5-0.2c-0.3-0.3-0.3-0.8,0-1.1l1.8-1.8c0.3-0.3,0.8-0.3,1.1,0s0.3,0.8,0,1.1
					l-1.8,1.8C54.7,242.9,54.5,242.9,54.3,242.9z"/>
			</g>
			<g>
				<path class="st4" d="M57.2,242.2c-0.2,0-0.4-0.1-0.5-0.2l-2.1-2.2c-0.3-0.3-0.3-0.8,0-1.1s0.8-0.3,1.1,0l2.1,2.2
					c0.3,0.3,0.3,0.8,0,1.1C57.6,242.1,57.4,242.2,57.2,242.2z"/>
			</g>
		</g>
		<g>
			<path class="st4" d="M44.9,234.7h-5.2c-1,0-1.8-0.8-1.8-1.8s0.8-1.8,1.8-1.8h5.2c1,0,1.8,0.8,1.8,1.8S45.9,234.7,44.9,234.7z"/>
		</g>
	</g>
	<g>
		<rect x="100.8" y="38.3" class="st4" width="1.4" height="6.1"/>
		<rect x="100.8" y="34.2" class="st4" width="1.4" height="2.7"/>
		<path class="st4" d="M114.4,54.6h-13.6c-0.7,0-1.4-0.6-1.4-1.4v-1.4c0-0.6,0.3-1.2,0.7-1.6l2.9-2.4c0.3-0.3,0.5-0.6,0.5-1V23.3
			h-6.6c-0.4,0-0.7,0.1-1,0.4l-2.5,2.5c-0.3,0.3-0.7,0.5-1.2,0.5c-0.9,0-1.6-0.7-1.6-1.6v-5.8c0-1.1,0.9-2,2-2h29.9c1.1,0,2,0.9,2,2
			v5.8c0,0.9-0.7,1.6-1.6,1.6c-0.4,0-0.8-0.2-1.2-0.5l-2.5-2.5c-0.3-0.3-0.6-0.4-1-0.4h-6.6v23.5c0,0.4,0.2,0.8,0.5,1l2.9,2.4
			c0.5,0.4,0.7,1,0.7,1.6v1.4C115.7,54,115.1,54.6,114.4,54.6z M96.9,22h8v24.9c0,0.8-0.4,1.6-1,2.1l-2.9,2.4
			c-0.2,0.1-0.2,0.3-0.2,0.5v1.4h13.6v-1.4c0-0.2-0.1-0.4-0.2-0.5l-2.9-2.4c-0.6-0.5-1-1.3-1-2.1V22h8c0.7,0,1.4,0.3,1.9,0.8
			l2.5,2.5c0.2,0.2,0.5,0,0.5-0.2v-5.8c0-0.4-0.3-0.7-0.7-0.7H92.6c-0.4,0-0.7,0.3-0.7,0.7v5.8c0,0.2,0.3,0.4,0.5,0.2l2.5-2.5
			C95.4,22.3,96.1,22,96.9,22z"/>
		<polygon class="st4" points="118.5,47.8 117.1,47.8 117.1,49.2 118.5,49.2 		"/>
		<polygon class="st4" points="118.5,50.6 117.1,50.6 117.1,51.9 118.5,51.9 		"/>
		<polygon class="st4" points="118.5,53.3 117.1,53.3 117.1,54.6 118.5,54.6 		"/>
	</g>
	<g>
		<g>
			<path class="st4" d="M249,57c-0.1,0-0.3,0-0.4,0c-0.1,0-0.4,0-0.6-0.3c-0.2-0.3,0-0.6,0.2-0.9c0.2-0.3,0.3-0.5,0.4-0.7
				c0.2-0.4,0.4-0.8,0.5-1.2c0.4-1.6,0.1-3.3-0.3-4.8l-0.1-0.4c-0.4-1.6-0.9-3.2-0.7-4.9c0.2-2.3,1.4-4.4,3.3-5.7
				c1.7-1.2,4-1.7,6.2-1.3c0.3,0.1,0.5,0.3,0.4,0.6s-0.3,0.5-0.6,0.4c-1.9-0.3-3.9,0.1-5.4,1.1c-1.6,1.1-2.7,3-2.8,4.9
				c-0.1,1.5,0.3,3,0.7,4.5l0.1,0.4c0.4,1.6,0.8,3.5,0.3,5.4c-0.1,0.5-0.3,1-0.6,1.5c-0.1,0.1-0.1,0.2-0.2,0.3
				c0.9,0,1.9-0.1,2.9-0.3c1.7-0.3,3.4-0.9,4.8-1.7c1.8-1,3.4-2.3,4.5-3.9c0.3-0.4,0.6-0.9,0.9-1.4c1-1.9,1.1-4.2,0.2-6.3
				c-0.3-0.8-0.8-1.5-1.3-2.1c-0.2-0.2-0.2-0.6,0-0.8s0.6-0.2,0.8,0c0.6,0.7,1.1,1.5,1.5,2.4c1,2.4,0.9,5.1-0.3,7.2
				c-0.3,0.5-0.6,1-1,1.5c-1.2,1.7-2.9,3.2-4.9,4.2c-1.5,0.8-3.2,1.4-5.1,1.8C251.3,56.9,250.2,57,249,57L249,57z"/>
		</g>
		<g>
			<path class="st4" d="M261.9,40.4C261.8,40.4,261.8,40.4,261.9,40.4c-0.1,0-1.1-0.1-2.6-0.9c-1.4-0.7-2.3-1.7-2.3-1.7
				c-0.1-0.1-0.2-0.3-0.1-0.5l0.8-3.9c0-0.2,0.2-0.3,0.4-0.4c0.2-0.1,0.4,0,0.5,0.1c0,0,1,1,3,2c1.9,1.1,3.3,1.4,3.3,1.4
				c0.2,0,0.3,0.2,0.4,0.4s0,0.4-0.1,0.5l-2.8,2.8C262.1,40.4,262,40.4,261.9,40.4z M257.9,37.2c0.3,0.3,1,0.9,1.9,1.3
				c0.9,0.5,1.6,0.7,1.9,0.8l2-2c-0.6-0.2-1.6-0.6-2.7-1.2c-1.1-0.6-2-1.2-2.5-1.6L257.9,37.2z"/>
		</g>
		<g>
			<path class="st4" d="M264.7,37.6c-0.1,0-0.3-0.1-0.4-0.2c-0.2-0.2-0.2-0.6,0-0.8c8.4-8.4,7.4-17.3,7-19.6
				c-2.2,0.9-10.2,5-12.6,16.6c-0.1,0.3-0.4,0.5-0.6,0.4c-0.3-0.1-0.5-0.3-0.4-0.6c2.9-14,13.8-17.6,13.9-17.6s0.3,0,0.4,0
				c0.1,0.1,0.2,0.2,0.3,0.3c0,0.1,3,11.2-7.1,21.3C264.9,37.5,264.8,37.6,264.7,37.6z"/>
		</g>
		<g>
			<path class="st4" d="M252.3,49.4c-0.2,0-0.4-0.1-0.5-0.4l-0.1-0.3c-0.4-1.3-0.9-2.6-0.8-4c0.1-1.9,1.1-3.6,2.7-4.6
				c0.3-0.2,0.6-0.1,0.7,0.2c0.2,0.3,0.1,0.6-0.2,0.7c-1.3,0.8-2.1,2.2-2.2,3.8c-0.1,1.2,0.4,2.4,0.8,3.7l0.1,0.3
				c0.1,0.3-0.1,0.6-0.3,0.7C252.4,49.4,252.4,49.4,252.3,49.4z"/>
		</g>
		<g>
			<path class="st4" d="M261.7,32c-0.1,0-0.1,0-0.2,0c-0.3-0.1-0.4-0.4-0.3-0.7c0.7-2.2,1.8-4.2,3-6c0.2-0.2,0.5-0.3,0.7-0.1
				c0.2,0.2,0.3,0.5,0.1,0.7c-1.2,1.7-2.1,3.7-2.9,5.8C262.1,31.8,261.9,32,261.7,32z"/>
		</g>
		<g>
			<g>
				<path class="st4" d="M240.5,29.4c-0.1,0-0.3-0.1-0.4-0.2c-0.2-0.2-0.2-0.6,0-0.8l0.6-0.6c0.2-0.2,0.6-0.2,0.8,0s0.2,0.6,0,0.8
					l-0.6,0.6C240.8,29.4,240.6,29.4,240.5,29.4z"/>
			</g>
			<g>
				<path class="st4" d="M237.2,32.7c-0.1,0-0.3-0.1-0.4-0.2c-0.2-0.2-0.2-0.6,0-0.8l0.6-0.6c0.2-0.2,0.6-0.2,0.8,0s0.2,0.6,0,0.8
					l-0.6,0.6C237.5,32.6,237.4,32.7,237.2,32.7z"/>
			</g>
			<g>
				<path class="st4" d="M237.8,29.4c-0.1,0-0.3-0.1-0.4-0.2l-0.6-0.6c-0.2-0.2-0.2-0.6,0-0.8c0.2-0.2,0.6-0.2,0.8,0l0.6,0.6
					c0.2,0.2,0.2,0.6,0,0.8C238.1,29.4,238,29.4,237.8,29.4z"/>
			</g>
			<g>
				<path class="st4" d="M241.1,32.7c-0.1,0-0.3-0.1-0.4-0.2l-0.6-0.6c-0.2-0.2-0.2-0.6,0-0.8c0.2-0.2,0.6-0.2,0.8,0l0.6,0.6
					c0.2,0.2,0.2,0.6,0,0.8C241.4,32.6,241.2,32.7,241.1,32.7z"/>
			</g>
		</g>
		<g>
			<path class="st4" d="M238.4,55.9c-0.2,0-0.5,0-0.7-0.1c-1.4-0.6-1.2-2.2-0.9-3.7c0.3-1.6,0.4-2.6-0.4-3c-1.4-0.7-3.3,0.1-3.3,0.1
				c-0.3,0.1-0.6,0-0.7-0.3c-0.1-0.3,0-0.6,0.3-0.7c0.1,0,2.4-0.9,4.2,0c1.6,0.8,1.3,2.7,1,4.2c-0.2,1.4-0.3,2.3,0.3,2.5
				c0.7,0.3,1.6-0.5,2.6-1.5c1.2-1.1,2.5-2.4,4.2-2.3c0.5,0,1,0.3,1.3,0.7c0.8,1.1,0.3,3.2,0.3,3.5c-0.1,0.3-0.4,0.5-0.7,0.4
				s-0.5-0.4-0.4-0.7c0.2-0.7,0.3-2-0.1-2.6c-0.1-0.1-0.3-0.2-0.5-0.2c-1.2-0.1-2.3,1-3.4,2C240.5,55,239.5,55.9,238.4,55.9z"/>
		</g>
		<g>
			<path class="st4" d="M243,44.5c-0.1,0-0.3-0.1-0.4-0.2l-0.2-0.2c-0.2-0.2-0.2-0.6,0-0.8s0.6-0.2,0.8,0l0.2,0.2
				c0.2,0.2,0.2,0.6,0,0.8C243.3,44.5,243.2,44.5,243,44.5z"/>
		</g>
		<g>
			<path class="st4" d="M240.7,42.2c-0.1,0-0.3-0.1-0.4-0.2l-0.2-0.2c-0.2-0.2-0.2-0.6,0-0.8s0.6-0.2,0.8,0l0.2,0.2
				c0.2,0.2,0.2,0.6,0,0.8C240.9,42.1,240.8,42.2,240.7,42.2z"/>
		</g>
		<g>
			<path class="st4" d="M242.9,42.2c-0.1,0-0.3-0.1-0.4-0.2c-0.2-0.2-0.2-0.6,0-0.8l0.2-0.2c0.2-0.2,0.6-0.2,0.8,0s0.2,0.6,0,0.8
				l-0.2,0.2C243.1,42.1,243,42.2,242.9,42.2z"/>
		</g>
		<g>
			<path class="st4" d="M240.5,44.5c-0.1,0-0.3-0.1-0.4-0.2c-0.2-0.2-0.2-0.6,0-0.8l0.2-0.2c0.2-0.2,0.6-0.2,0.8,0s0.2,0.6,0,0.8
				l-0.2,0.2C240.8,44.5,240.6,44.5,240.5,44.5z"/>
		</g>
	</g>
	<g>
		<path class="st4" d="M111.9,251.1c-1.6,0-2.9-1.3-2.9-2.9c0-1.6,1.3-2.9,2.9-2.9s2.9,1.3,2.9,2.9
			C114.7,249.8,113.4,251.1,111.9,251.1z M111.9,246.8c-0.8,0-1.4,0.6-1.4,1.4c0,0.8,0.6,1.4,1.4,1.4s1.4-0.6,1.4-1.4
			C113.3,247.4,112.6,246.8,111.9,246.8z"/>
		<path class="st4" d="M111.8,259.8l-9.9-9.9c-0.4-0.4-1-0.4-1.4,0l-5.9,5.9l-1-1l5.9-5.9c0.9-0.9,2.5-0.9,3.4,0l9.9,9.9
			L111.8,259.8z"/>
		<path class="st4" d="M120.6,260.1l-5.2-5.2c-0.4-0.4-1-0.4-1.4,0l-1.3,1.3l-1-1l1.3-1.3c0.9-0.9,2.5-0.9,3.4,0l5.2,5.2
			L120.6,260.1z"/>
		<path class="st4" d="M121.9,266.1H93.3v-28.6h28.6V266.1z M94.7,264.6h25.7v-25.7H94.7V264.6z"/>
		<rect x="93.3" y="231.8" class="st4" width="1.4" height="4.3"/>
		<rect x="87.6" y="237.5" class="st4" width="4.3" height="1.4"/>
		<rect x="120.4" y="267.5" class="st4" width="1.4" height="4.3"/>
		<rect x="123.3" y="264.6" class="st4" width="4.3" height="1.4"/>
		<polygon class="st4" points="124.7,240.4 123.3,240.4 123.3,241.8 124.7,241.8 		"/>
		<polygon class="st4" points="124.7,243.2 123.3,243.2 123.3,244.6 124.7,244.6 		"/>
		<polygon class="st4" points="124.7,246.1 123.3,246.1 123.3,247.5 124.7,247.5 		"/>
		<polygon class="st4" points="91.9,256.1 90.4,256.1 90.4,257.5 91.9,257.5 		"/>
		<polygon class="st4" points="91.9,258.9 90.4,258.9 90.4,260.4 91.9,260.4 		"/>
		<polygon class="st4" points="91.9,261.8 90.4,261.8 90.4,263.2 91.9,263.2 		"/>
	</g>
	<g>
		<g>
			<g>
				<path class="st4" d="M264.2,268.1c-0.1,0-0.3,0-0.4-0.1l-11.8-8.3l-11.8,8.3c-0.2,0.1-0.5,0.2-0.7,0c-0.2-0.1-0.4-0.4-0.4-0.6
					v-31.3c0-0.2,0.1-0.4,0.2-0.5c0.1-0.1,0.3-0.2,0.5-0.2l24.4,0.4c0.4,0,0.7,0.3,0.7,0.7v30.8c0,0.3-0.1,0.5-0.4,0.6
					C264.5,268.1,264.4,268.1,264.2,268.1z M252,258.2c0.1,0,0.3,0,0.4,0.1l11.1,7.8v-28.8l-23-0.4v29.2l11.1-7.8
					C251.8,258.2,251.9,258.2,252,258.2z"/>
			</g>
		</g>
		<g>
			<polygon class="st4" points="250.3,238.8 250.3,240.5 255.6,240.5 255.6,238.8 			"/>
			<polygon class="st4" points="257.4,238.8 257.4,240.5 259.1,240.5 259.1,238.8 			"/>
			<polygon class="st4" points="260.8,238.8 260.8,240.5 262.6,240.5 262.6,238.8 			"/>
		</g>
	</g>
	<g>
		<path class="st4" d="M51.5,41.2l-6.3-6.3l3-2.2c1.4-1,2-2.4,1.8-3.8c-0.3-1.4-1.4-2.5-3.1-2.9l-21.3-5.7c-1.8-0.5-3.5,0-4.4,1.3
			c-0.8,1-1,2.3-0.6,3.8l5.7,21.3c0.5,2,1.8,3.1,3.5,3.1c1.2,0,2.3-0.7,3.2-1.8l2.2-3l6.3,6.3c0.1,0.1,0.3,0.2,0.5,0.2
			s0.4-0.1,0.5-0.2l9-9c0.1-0.1,0.2-0.3,0.2-0.5S51.6,41.3,51.5,41.2z M29.7,48.3c-1,0-1.8-0.8-2.2-2.1l-5.7-21.3
			c-0.3-1-0.1-1.9,0.4-2.6c0.6-0.8,1.8-1.1,3-0.8l21.3,5.7c1.2,0.3,1.9,1,2.1,1.9c0.2,0.9-0.3,1.8-1.3,2.5l-3.6,2.7
			c-0.2,0.1-0.3,0.3-0.3,0.5s0.1,0.4,0.2,0.5l6.4,6.4l-8,8l-6.4-6.4c-0.1-0.1-0.3-0.2-0.5-0.2H35c-0.2,0-0.4,0.1-0.5,0.3L31.9,47
			C31.2,47.8,30.5,48.3,29.7,48.3z"/>
		<g>
			<g>
				<path class="st4" d="M45.1,32.4l-0.6-0.8c0.6-0.4,0.9-1,0.8-1.5c-0.1-0.5-0.6-0.9-1.3-1.1l0.3-1c1.1,0.3,1.8,1,2,1.8
					C46.4,30.9,46,31.8,45.1,32.4z M43.3,28.9l-2.5-0.7l0.3-1l2.5,0.7L43.3,28.9z"/>
			</g>
		</g>
		<g>
			
				<rect x="23.5" y="26.4" transform="matrix(0.9582 -0.2862 0.2862 0.9582 -7.0076 8.0545)" class="st4" width="1.1" height="3.2"/>
			<rect x="24.7" y="31" transform="matrix(0.9582 -0.2862 0.2862 0.9582 -8.0593 8.5588)" class="st4" width="1.1" height="1.7"/>
		</g>
	</g>
	<g>
		<g>
			<path class="st4" d="M335.7,24.1c-0.1,0-0.3,0-0.5,0c-0.6,0.1-1.1,0.3-1.6,0.6V24c0-1.7-1.2-3.2-2.9-3.4c-0.1,0-0.2,0-0.3,0
				c-0.7,0-1.3,0.2-1.9,0.6c-0.1-1.6-1.3-2.9-3-3.1c-0.1,0-0.3,0-0.4,0c-1.8,0-3.3,1.4-3.4,3.2c-0.4-0.3-1-0.5-1.5-0.6
				c-0.1,0-0.4,0-0.5,0c-1.9,0-3.5,1.5-3.5,3.4v11.4l-0.7-0.7c-0.6-0.6-1.4-1-2.3-1s-1.7,0.3-2.3,1c-1.3,1.3-1.3,3.3-0.1,4.7
				l7.2,9.4l0.2,2c0.1,1.2,1.1,2.2,2.3,2.2h13.1c1.2,0,2.2-0.9,2.3-2l0.3-2.4c1-1.6,1.7-3.8,2.1-6.4c0.4-2.3,0.5-5,0.5-8.1v-6.5
				C338.9,25.6,337.5,24.1,335.7,24.1z M334.4,50.7c0,0.4-0.4,0.7-0.7,0.7h-13.1l0,0c-0.4,0-0.7-0.3-0.7-0.7l-0.2-2.5l0,0l-7.5-9.9
				c-0.7-0.7-0.7-1.8,0-2.5c0.3-0.3,0.8-0.5,1.2-0.5c0.5,0,0.9,0.2,1.2,0.5l2.1,2c0.2,0.2,0.1,0.2,0.3,0.2c0.4,0,0.6-0.3,0.6-0.8
				V23.9c0-1,1-1.8,2-1.8c0.1,0,0,0,0.1,0c0.9,0.1,1.4,0.9,1.4,1.8V33c0,0.5,0.4,0.9,0.9,0.9s0.9-0.4,0.9-0.9V21.4c0-1,1-1.8,2-1.8
				c0.1,0,0,0,0.1,0c0.9,0.1,1.5,0.9,1.5,1.8v11.7c0,0.5,0.4,0.9,0.9,0.9s0.9-0.4,0.9-0.9v-9.2c0-1,1-1.8,2-1.8c0.1,0,0,0,0.1,0
				c0.9,0.1,1.5,0.9,1.5,1.8V33c0,0.5,0.8,1,1.3,1l0,0c0.5,0,0.5-0.5,0.5-0.9v-5.6c0-0.9,0.8-1.7,1.7-1.8c0.1,0,0,0,0.1,0
				c1,0,1.7,0.8,1.7,1.8V34c0,5.6-0.5,10.7-2.5,13.8c-0.1,0.1,0,0.2,0,0.3L334.4,50.7z"/>
		</g>
		<g>
			<g>
				<path class="st4" d="M312,25.1c-0.3,0-0.6-0.2-0.7-0.5c-0.2-0.4,0-0.9,0.4-1l1.1-0.5c0.4-0.2,0.9,0,1,0.4c0.2,0.4,0,0.9-0.4,1
					l-1.1,0.5C312.2,25.1,312.1,25.1,312,25.1z"/>
			</g>
			<g>
				<path class="st4" d="M314.7,21.1c-0.3,0-0.6-0.2-0.7-0.5l-0.5-1.1c-0.2-0.4,0-0.9,0.4-1c0.4-0.2,0.9,0,1,0.4l0.5,1.1
					c0.2,0.4,0,0.9-0.4,1C314.9,21.1,314.8,21.1,314.7,21.1z"/>
			</g>
		</g>
	</g>
	<g>
		<g>
			<path class="st4" d="M381.8,29.1c-0.3,0-0.6-0.2-0.7-0.5c-0.2-0.4,0-0.9,0.4-1l1.1-0.5c0.4-0.2,0.9,0,1,0.4c0.2,0.4,0,0.9-0.4,1
				l-1.1,0.5C382,29.1,381.9,29.1,381.8,29.1z"/>
		</g>
		<g>
			<path class="st4" d="M384.4,25.1c-0.3,0-0.6-0.2-0.7-0.5l-0.5-1.1c-0.2-0.4,0-0.9,0.4-1c0.4-0.2,0.9,0,1,0.4l0.5,1.1
				c0.2,0.4,0,0.9-0.4,1C384.6,25.1,384.5,25.1,384.4,25.1z"/>
		</g>
	</g>
	<g>
		<path class="st4" d="M120.4,196.7H94.7c-2.5,0-4.5-2.3-4.5-5.2v-24.3c0-2.9,2-5.2,4.5-5.2h25.7c2.5,0,4.5,2.3,4.5,5.2v24.3
			C124.9,194.4,122.9,196.7,120.4,196.7z M94.7,164c-1.4,0-2.6,1.5-2.6,3.3v24.3c0,1.8,1.1,3.3,2.6,3.3h25.7c1.4,0,2.6-1.5,2.6-3.3
			v-24.3c0-1.8-1.1-3.3-2.6-3.3H94.7z"/>
		<polygon class="st4" points="110.3,166.4 110.3,167.9 114.9,167.9 114.9,166.4 		"/>
		<polygon class="st4" points="116.4,166.4 116.4,167.9 117.9,167.9 117.9,166.4 		"/>
		<polygon class="st4" points="119.4,166.4 119.4,167.9 120.9,167.9 120.9,166.4 		"/>
	</g>
	<g>
		<g>
			<polygon class="st4" points="40,165.9 40,167.4 44.4,167.4 44.4,165.9 			"/>
			<polygon class="st4" points="45.9,165.9 45.9,167.4 47.3,167.4 47.3,165.9 			"/>
			<polygon class="st4" points="48.7,165.9 48.7,167.4 50.1,167.4 50.1,165.9 			"/>
		</g>
		<g>
			<path class="st4" d="M52.4,196.7H19.6c-0.5,0-0.9-0.4-0.9-0.9V163c0-0.5,0.4-0.9,0.9-0.9h32.8c0.5,0,0.9,0.4,0.9,0.9v32.8
				C53.3,196.3,52.9,196.7,52.4,196.7z M20.5,194.8h30.9v-30.9H20.5V194.8z"/>
		</g>
	</g>
	<g>
		<path class="st6" d="M310.4,122.8c-0.2,0-0.5-0.1-0.7-0.3c-0.4-0.4-0.4-1,0-1.4L337.8,93c0.4-0.4,1-0.4,1.4,0s0.4,1,0,1.4
			l-28.1,28.1C310.9,122.7,310.7,122.8,310.4,122.8z"/>
		<g>
			<polyline class="st6" points="311.8,123.2 312.5,123.9 314.1,122.3 313.4,121.6 			"/>
			<polygon class="st6" points="314.2,120.8 314.9,121.6 315.6,120.8 314.9,120.1 			"/>
			<polygon class="st6" points="315.6,119.4 316.4,120.1 317.1,119.4 316.4,118.7 			"/>
		</g>
	</g>
	<g>
		<g>
			<path class="st6" d="M410.1,104.2L410.1,104.2c-0.5,0-1-0.4-1-1l0.1-8.5l-8.5,0.1l0,0c-0.5,0-1-0.4-1-1c0-0.5,0.4-1,1-1l9.5-0.1
				c0.2,0,0.5,0.1,0.7,0.3c0.2,0.2,0.3,0.4,0.3,0.7l-0.1,9.5C411.1,103.8,410.7,104.2,410.1,104.2z"/>
			<path class="st6" d="M382.1,122.9c-0.2,0-0.5-0.1-0.7-0.3c-0.4-0.4-0.4-1,0-1.4l27.3-27.3c0.4-0.4,1-0.4,1.4,0s0.4,1,0,1.4
				l-27.3,27.3C382.6,122.8,382.3,122.9,382.1,122.9z"/>
		</g>
		<g>
			<polyline class="st6" points="383.9,123.2 384.7,124 386.3,122.3 385.6,121.6 			"/>
			<polygon class="st6" points="386.4,120.9 387.1,121.6 387.8,120.9 387.1,120.1 			"/>
			<polygon class="st6" points="387.8,119.4 388.6,120.1 389.3,119.4 388.6,118.7 			"/>
		</g>
	</g>
	<g>
		<path class="st6" d="M262.7,125.7c-0.2,0-0.3,0-0.4-0.1l-10.2-5.4l-10.2,5.4c-0.3,0.2-0.7,0.1-1-0.1s-0.4-0.6-0.4-0.9l1.9-11.4
			l-8.3-8c-0.3-0.3-0.4-0.6-0.2-1c0.1-0.3,0.4-0.6,0.8-0.7l11.4-1.7l5.1-10.3c0.2-0.3,0.5-0.5,0.9-0.5s0.7,0.2,0.9,0.5l5.1,10.3
			l11.4,1.7c0.4,0.1,0.7,0.3,0.8,0.7s0,0.7-0.2,1l-8.3,8l1.9,11.4c0.1,0.4-0.1,0.7-0.4,0.9C263.1,125.7,262.9,125.7,262.7,125.7z
			 M252,118.2c0.2,0,0.3,0,0.4,0.1l8.9,4.7l-1.7-9.9c-0.1-0.3,0.1-0.6,0.3-0.9l7.2-7l-10-1.4c-0.3,0-0.6-0.2-0.7-0.5l-4.5-9l-4.5,9
			c-0.1,0.3-0.4,0.5-0.7,0.5l-10,1.4l7.2,7c0.2,0.2,0.3,0.5,0.3,0.9l-1.7,9.9l8.9-4.7C251.7,118.2,251.9,118.2,252,118.2z"/>
		<polygon class="st6" points="269.1,102.5 269.2,101.5 266,101 265.8,102.1 		"/>
		<polygon class="st6" points="264.8,101.9 264.9,100.9 263.9,100.7 263.8,101.8 		"/>
		<polygon class="st6" points="262.7,101.6 262.9,100.6 261.8,100.5 261.7,101.5 		"/>
		<polygon class="st6" points="245.9,113.3 244.9,113.1 244.7,114.2 245.8,114.3 		"/>
		<polygon class="st6" points="245.6,115.4 244.6,115.2 244.4,116.9 245.4,117.1 		"/>
	</g>
	<g>
		<path class="st6" d="M180.2,125.7c-9.6,0-17.3-7.8-17.3-17.3S170.7,91,180.2,91s17.4,7.8,17.4,17.3S189.8,125.7,180.2,125.7z
			 M180.2,93c-8.5,0-15.4,6.9-15.4,15.4s6.9,15.4,15.4,15.4s15.4-6.9,15.4-15.4S188.7,93,180.2,93z"/>
		<path class="st6" d="M187.8,101.2c-0.2,0-0.4-0.1-0.6-0.3l-0.2-0.2c-0.2-0.3-0.1-0.7,0.2-1c0.3-0.2,0.7-0.1,1,0.2l0.2,0.2
			c0.2,0.3,0.1,0.7-0.2,1C188,101.1,187.9,101.2,187.8,101.2z"/>
		<path class="st6" d="M185.2,97.6c-0.2,0-0.4-0.1-0.6-0.3l-0.2-0.2c-0.2-0.3-0.2-0.7,0.2-1c0.3-0.2,0.7-0.2,1,0.2l0.2,0.2
			c0.2,0.3,0.2,0.7-0.2,1C185.5,97.6,185.3,97.6,185.2,97.6z"/>
		<path class="st6" d="M188,98.1c-0.2,0-0.4-0.1-0.6-0.3c-0.2-0.3-0.2-0.7,0.2-1l0.2-0.2c0.3-0.2,0.7-0.2,1,0.2
			c0.2,0.3,0.2,0.7-0.2,1l-0.2,0.2C188.3,98,188.2,98.1,188,98.1z"/>
		<path class="st6" d="M184.5,100.6c-0.2,0-0.4-0.1-0.6-0.3c-0.2-0.3-0.1-0.7,0.2-1l0.2-0.2c0.3-0.2,0.7-0.1,1,0.2
			c0.2,0.3,0.1,0.7-0.2,1l-0.2,0.2C184.8,100.6,184.6,100.6,184.5,100.6z"/>
	</g>
	<g>
		<path class="st6" d="M120.4,125.7H94.7c-2.5,0-4.5-2.3-4.5-5.2V96.2c0-2.9,2-5.2,4.5-5.2h25.7c2.5,0,4.5,2.3,4.5,5.2v24.3
			C124.9,123.4,122.9,125.7,120.4,125.7z M94.7,93c-1.4,0-2.6,1.5-2.6,3.3v24.3c0,1.8,1.1,3.3,2.6,3.3h25.7c1.4,0,2.6-1.5,2.6-3.3
			V96.2c0-1.8-1.1-3.3-2.6-3.3H94.7V93z"/>
		<polygon class="st6" points="110.3,95.4 110.3,96.9 114.9,96.9 114.9,95.4 		"/>
		<polygon class="st6" points="116.4,95.4 116.4,96.9 117.9,96.9 117.9,95.4 		"/>
		<polygon class="st6" points="119.4,95.4 119.4,96.9 120.9,96.9 120.9,95.4 		"/>
	</g>
	<g>
		<g>
			<polygon class="st6" points="40,94.9 40,96.4 44.4,96.4 44.4,94.9 			"/>
			<polygon class="st6" points="45.9,94.9 45.9,96.4 47.3,96.4 47.3,94.9 			"/>
			<polygon class="st6" points="48.7,94.9 48.7,96.4 50.1,96.4 50.1,94.9 			"/>
		</g>
		<g>
			<path class="st6" d="M52.4,125.7H19.6c-0.5,0-0.9-0.4-0.9-0.9V92c0-0.5,0.4-0.9,0.9-0.9h32.8c0.5,0,0.9,0.4,0.9,0.9v32.8
				C53.3,125.3,52.9,125.7,52.4,125.7z M20.5,123.8h30.9V92.9H20.5V123.8z"/>
		</g>
	</g>
	<g>
		<path class="st7" d="M111.1,403.8h-8.7c-0.4,0-0.8-0.3-0.8-0.8c0-0.1,0-0.1,0-0.2l0.4-1.6c0.1-0.4,0.5-0.6,0.8-0.6h2.5l2.1-9.6
			h-2.7c-0.2,0-0.4-0.1-0.5-0.2s-0.2-0.3-0.2-0.5c0-0.1,0-0.1,0-0.2l0.4-1.6c0.1-0.4,0.5-0.6,0.8-0.6h8.7c0.2,0,0.4,0.1,0.5,0.2
			s0.2,0.3,0.2,0.5c0,0.1,0,0.1,0,0.2l-0.4,1.6c-0.1,0.4-0.5,0.6-0.8,0.6H111l-2.1,9.6h2.7c0.2,0,0.4,0.1,0.5,0.2s0.2,0.3,0.2,0.5
			c0,0.1,0,0.1,0,0.2l-0.4,1.6C111.9,403.6,111.5,403.8,111.1,403.8z M103,401.2c-0.1,0-0.2,0.1-0.3,0.2l-0.4,1.6l0,0
			c0,0.1,0.1,0.2,0.2,0.2h8.7c0.1,0,0.2-0.1,0.3-0.2l0.4-1.6l0,0v-0.1h-0.1h-3.5l2.3-10.8h2.9c0.1,0,0.2-0.1,0.3-0.2l0.4-1.6l0,0
			v-0.1h-0.1h-8.7c-0.1,0-0.2,0.1-0.3,0.2l-0.4,1.6l0,0v0.1h0.1h3.5l-2.3,10.8h-3V401.2z"/>
		
			<rect x="109.5" y="394.4" transform="matrix(0.21 -0.9777 0.9777 0.21 -297.9306 420.616)" class="st7" width="3.7" height="0.6"/>
		
			<rect x="109.9" y="397.6" transform="matrix(0.2091 -0.9779 0.9779 0.2091 -301.6796 422.8895)" class="st7" width="1.4" height="0.6"/>
		<path class="st7" d="M103.8,391.9c-0.6-0.3-1-1-1-1.7c0-0.2,0-0.3,0.1-0.5l0.6,0.1c0,0.1,0,0.2,0,0.3c0,0.5,0.3,0.9,0.7,1.2
			L103.8,391.9z"/>
		
			<rect x="103" y="388.2" transform="matrix(0.298 -0.9546 0.9546 0.298 -298.0744 371.6838)" class="st7" width="1.4" height="0.6"/>
	</g>
	<g>
		<path class="st8" d="M175.4,395.8c0,3.2,1.8,4.6,5,4.6s5-1.4,5-4.6v-7.3h-2.3v7.3c0,1.7-1,2.3-2.7,2.3s-2.7-0.6-2.7-2.3v-7.3h-2.3
			V395.8z"/>
		<rect x="176" y="401.9" class="st8" width="8.9" height="1.3"/>
	</g>
	<g>
		<rect x="29.1" y="400.1" class="st7" width="0.6" height="2.6"/>
		<rect x="29.1" y="403.2" class="st7" width="0.6" height="1.2"/>
		<g>
			<path class="st9" d="M36.6,394.6h-3v-3.8h3c0.9,0,1.7,0.8,1.7,1.7v0.4C38.3,393.9,37.5,394.6,36.6,394.6z"/>
			<path class="st9" d="M37.4,401.4h-3.8v-3.8h3.8c0.9,0,1.7,0.8,1.7,1.7v0.4C39.1,400.7,38.4,401.4,37.4,401.4z"/>
			<path class="st9" d="M40.1,395.7c0.7-0.7,1.2-1.7,1.2-2.7v-0.8c0-2.1-1.7-3.8-3.8-3.8h-6.8v16.1h7.2c2.3,0,4.2-1.9,4.2-4.2v-0.8
				C42.1,397.8,41.3,396.4,40.1,395.7z"/>
		</g>
		<g>
			<path class="st7" d="M41.5,390.1c-1.2-2.8-4.8-2.4-4.9-2.4v-0.4c0,0,4-0.4,5.3,2.7L41.5,390.1z"/>
		</g>
	</g>
	<g>
		<g>
			<path class="st7" d="M260.8,461.3h-17.4c-0.2,0-0.4-0.2-0.4-0.4s0.2-0.4,0.4-0.4h17.4c0.2,0,0.4,0.2,0.4,0.4
				S261,461.3,260.8,461.3z"/>
		</g>
		<g>
			<path class="st7" d="M260.8,464.9h-17.4c-0.2,0-0.4-0.2-0.4-0.4s0.2-0.4,0.4-0.4h17.4c0.2,0,0.4,0.2,0.4,0.4
				S261,464.9,260.8,464.9z"/>
		</g>
		<g>
			<path class="st7" d="M260.8,468.6h-17.4c-0.2,0-0.4-0.2-0.4-0.4s0.2-0.4,0.4-0.4h17.4c0.2,0,0.4,0.2,0.4,0.4
				S261,468.6,260.8,468.6z"/>
		</g>
		<g>
			<path class="st7" d="M260.8,475.9h-17.4c-0.2,0-0.4-0.2-0.4-0.4s0.2-0.4,0.4-0.4h17.4c0.2,0,0.4,0.2,0.4,0.4
				S261,475.9,260.8,475.9z"/>
		</g>
		<g>
			<path class="st7" d="M260.8,472.2h-17.4c-0.2,0-0.4-0.2-0.4-0.4s0.2-0.4,0.4-0.4h17.4c0.2,0,0.4,0.2,0.4,0.4
				S261,472.2,260.8,472.2z"/>
		</g>
	</g>
	<g>
		<g>
			<path class="st7" d="M188.6,461.3h-13c-0.2,0-0.4-0.2-0.4-0.4s0.2-0.4,0.4-0.4h13c0.2,0,0.4,0.2,0.4,0.4S188.8,461.3,188.6,461.3
				z"/>
		</g>
		<g>
			<path class="st7" d="M188.6,464.9h-17.4c-0.2,0-0.4-0.2-0.4-0.4s0.2-0.4,0.4-0.4h17.4c0.2,0,0.4,0.2,0.4,0.4
				S188.8,464.9,188.6,464.9z"/>
		</g>
		<g>
			<path class="st7" d="M188.6,468.6h-13c-0.2,0-0.4-0.2-0.4-0.4s0.2-0.4,0.4-0.4h13c0.2,0,0.4,0.2,0.4,0.4S188.8,468.6,188.6,468.6
				z"/>
		</g>
		<g>
			<path class="st7" d="M188.6,475.9h-13c-0.2,0-0.4-0.2-0.4-0.4s0.2-0.4,0.4-0.4h13c0.2,0,0.4,0.2,0.4,0.4S188.8,475.9,188.6,475.9
				z"/>
		</g>
		<g>
			<path class="st7" d="M188.6,472.2h-17.4c-0.2,0-0.4-0.2-0.4-0.4s0.2-0.4,0.4-0.4h17.4c0.2,0,0.4,0.2,0.4,0.4
				S188.8,472.2,188.6,472.2z"/>
		</g>
	</g>
	<g>
		<g>
			<path class="st7" d="M113.8,461.3H102c-0.2,0-0.4-0.2-0.4-0.4s0.2-0.4,0.4-0.4h11.7c0.2,0,0.4,0.2,0.4,0.4S114,461.3,113.8,461.3
				z"/>
		</g>
		<g>
			<path class="st7" d="M116.6,464.9H99.2c-0.2,0-0.4-0.2-0.4-0.4s0.2-0.4,0.4-0.4h17.4c0.2,0,0.4,0.2,0.4,0.4
				S116.8,464.9,116.6,464.9z"/>
		</g>
		<g>
			<path class="st7" d="M113.8,468.6H102c-0.2,0-0.4-0.2-0.4-0.4s0.2-0.4,0.4-0.4h11.7c0.2,0,0.4,0.2,0.4,0.4S114,468.6,113.8,468.6
				z"/>
		</g>
		<g>
			<path class="st7" d="M113.8,475.9H102c-0.2,0-0.4-0.2-0.4-0.4s0.2-0.4,0.4-0.4h11.7c0.2,0,0.4,0.2,0.4,0.4S114,475.9,113.8,475.9
				z"/>
		</g>
		<g>
			<path class="st7" d="M116.6,472.2H99.2c-0.2,0-0.4-0.2-0.4-0.4s0.2-0.4,0.4-0.4h17.4c0.2,0,0.4,0.2,0.4,0.4
				S116.8,472.2,116.6,472.2z"/>
		</g>
	</g>
	<g>
		<g>
			<path class="st7" d="M39.4,461.3H27.2c-0.2,0-0.4-0.2-0.4-0.4s0.2-0.4,0.4-0.4h12.1c0.2,0,0.4,0.2,0.4,0.4S39.6,461.3,39.4,461.3
				z"/>
		</g>
		<g>
			<path class="st7" d="M44.6,464.9H27.2c-0.2,0-0.4-0.2-0.4-0.4s0.2-0.4,0.4-0.4h17.4c0.2,0,0.4,0.2,0.4,0.4S44.8,464.9,44.6,464.9
				z"/>
		</g>
		<g>
			<path class="st7" d="M39.4,468.6H27.2c-0.2,0-0.4-0.2-0.4-0.4s0.2-0.4,0.4-0.4h12.1c0.2,0,0.4,0.2,0.4,0.4S39.6,468.6,39.4,468.6
				z"/>
		</g>
		<g>
			<path class="st7" d="M39.4,475.9H27.2c-0.2,0-0.4-0.2-0.4-0.4s0.2-0.4,0.4-0.4h12.1c0.2,0,0.4,0.2,0.4,0.4S39.6,475.9,39.4,475.9
				z"/>
		</g>
		<g>
			<path class="st7" d="M44.6,472.2H27.2c-0.2,0-0.4-0.2-0.4-0.4s0.2-0.4,0.4-0.4h17.4c0.2,0,0.4,0.2,0.4,0.4S44.8,472.2,44.6,472.2
				z"/>
		</g>
	</g>
	<g>
		<path class="st4" d="M408.6,34c-0.2-1.8-0.8-3.2-1.9-4.2c-0.9-0.9-2.1-1.3-3.4-1.3h-0.1c-1-1.3-2.4-1.9-3.9-1.9
			c-0.4,0-0.7,0-1.1,0.1c-0.9-1-2.1-1.6-3.4-1.6c-0.8,0-1.5,0.2-2.2,0.6c-0.7-0.5-1.6-0.7-2.5-0.7c-1.2,0-2.2,0.4-3,1.2
			c-0.8,0.8-1.2,1.8-1.2,3c0,1.4,0,1.7,0,2c0,0.2,0,0.4,0,1.2c-1.1,0.6-1.9,1.5-2.2,2.8c-0.6,1.9-0.1,4.3,1.3,7.4
			c1,2,2.1,3.8,2.7,4.6l0.2,3.3c0.1,1.5,1.3,2.6,2.8,2.6h11.6c1.4,0,2.6-1,2.8-2.4l0.4-3.4C409,41.7,409,37.1,408.6,34z M403.9,46.7
			l-0.5,3.6c-0.1,0.5-0.5,1.1-1,1.1l-11.6,0.3l0,0c-0.5,0-1-0.7-1-1.2l-0.3-3.6c0-0.2-0.1-0.4-0.2-0.6c-1.1-1.5-7-10.6-2.2-12.6
			c0.4-0.2,0.6-0.5,0.6-1c0-2.4,0-1,0-3.7c0-1.6,1.2-2.4,2.4-2.4c0.7,0,1.5,0.3,2,0.8c0.2,0.2,0.3,0.2,0.4,0.2
			c0.2,0,0.4-0.2,0.7-0.4c0.5-0.4,1-0.6,1.6-0.6c0.9,0,1.7,0.4,2.3,1.3c0.2,0.3,0.5,0.4,0.8,0.4c0.1,0,0.2,0,0.3,0
			c0.3-0.1,0.7-0.1,1.1-0.1c0.9,0,2,0.3,2.8,1.6c0.1,0.2,0.4,0.4,0.6,0.4h0.1c0.2,0,0.4-0.1,0.6-0.1c1.4,0,3.1,0.9,3.5,3.9
			c0.4,3.2,0.3,7.3-2.8,12.1C403.9,46.4,403.9,46.6,403.9,46.7z"/>
	</g>
	<g>
		<g>
			<path class="st5" d="M253.2,354.3c-0.1,0-0.2,0-0.2-0.1l-18.7-8.8c-0.2-0.1-0.3-0.3-0.3-0.5v-10.1c0-0.3,0.3-0.6,0.6-0.6
				s0.6,0.3,0.6,0.6v9.7l18.1,8.5l17.1-8.5v-9.8c0-0.3,0.3-0.6,0.6-0.6c0.3,0,0.6,0.3,0.6,0.6v10.2c0,0.2-0.1,0.4-0.3,0.5l-17.6,8.8
				C253.4,354.3,253.3,354.3,253.2,354.3z"/>
		</g>
		<g>
			<path class="st5" d="M253.2,333.3c-0.1,0-0.2,0-0.2,0l-18.7-7.7c-0.3-0.1-0.4-0.5-0.3-0.8c0.1-0.3,0.5-0.4,0.8-0.3l18.5,7.6
				l17.4-7.6c0.3-0.1,0.6,0,0.8,0.3c0.1,0.3,0,0.6-0.3,0.8l-17.6,7.7C253.4,333.3,253.3,333.3,253.2,333.3z"/>
		</g>
		<g>
			<path class="st5" d="M253.2,354.3c-0.3,0-0.6-0.3-0.6-0.6v-20.9c0-0.3,0.3-0.6,0.6-0.6s0.6,0.3,0.6,0.6v20.9
				C253.8,354,253.6,354.3,253.2,354.3z"/>
		</g>
		<g>
			<path class="st5" d="M247.7,341.6c-0.1,0-0.2,0-0.2-0.1l-18.7-8.8c-0.2-0.1-0.3-0.2-0.3-0.4c0-0.2,0-0.4,0.1-0.5l5.5-7.2
				c0.2-0.3,0.6-0.3,0.8-0.1c0.3,0.2,0.3,0.6,0.1,0.8l-5.1,6.6l17.6,8.3l5.2-7.9c0.2-0.3,0.5-0.3,0.8-0.2c0.3,0.2,0.3,0.5,0.2,0.8
				l-5.5,8.3C248.1,341.5,247.9,341.6,247.7,341.6z"/>
		</g>
		<g>
			<path class="st5" d="M270.9,325.6c-0.1,0-0.1,0-0.2,0l-3.1-1c-0.3-0.1-0.5-0.4-0.4-0.7c0.1-0.3,0.4-0.5,0.7-0.4l3.1,1
				c0.3,0.1,0.5,0.4,0.4,0.7C271.3,325.5,271.1,325.6,270.9,325.6z"/>
		</g>
		<g>
			<path class="st5" d="M234.5,325.6c-0.2,0-0.5-0.2-0.6-0.4c-0.1-0.3,0.1-0.6,0.4-0.7l4.2-1.4c0.3-0.1,0.6,0.1,0.7,0.4
				c0.1,0.3-0.1,0.6-0.4,0.7L234.5,325.6C234.6,325.6,234.6,325.6,234.5,325.6z"/>
		</g>
		<g>
			<path class="st5" d="M259.3,341.1c-0.2,0-0.3-0.1-0.5-0.2l-6.1-7.7c-0.2-0.3-0.2-0.6,0.1-0.8c0.3-0.2,0.6-0.2,0.8,0.1l5.8,7.3
				L275,332l-4.6-6.6c-0.2-0.3-0.1-0.6,0.1-0.8c0.3-0.2,0.6-0.1,0.8,0.1l5,7.2c0.1,0.1,0.1,0.3,0.1,0.5s-0.2,0.3-0.3,0.4l-16.5,8.3
				C259.5,341,259.4,341.1,259.3,341.1z"/>
		</g>
		<g>
			<path class="st5" d="M276.4,321c-0.1,0-0.3-0.1-0.4-0.2c-0.2-0.2-0.2-0.6,0-0.8l0.7-0.7c0.2-0.2,0.6-0.2,0.8,0
				c0.2,0.2,0.2,0.6,0,0.8l-0.7,0.7C276.7,321,276.5,321,276.4,321z"/>
		</g>
		<g>
			<path class="st5" d="M280,317.4c-0.1,0-0.3-0.1-0.4-0.2c-0.2-0.2-0.2-0.6,0-0.8l0.7-0.7c0.2-0.2,0.6-0.2,0.8,0s0.2,0.6,0,0.8
				l-0.7,0.7C280.3,317.4,280.2,317.4,280,317.4z"/>
		</g>
		<g>
			<path class="st5" d="M280.7,321c-0.1,0-0.3-0.1-0.4-0.2l-0.7-0.7c-0.2-0.2-0.2-0.6,0-0.8s0.6-0.2,0.8,0l0.7,0.7
				c0.2,0.2,0.2,0.6,0,0.8C281,321,280.8,321,280.7,321z"/>
		</g>
		<g>
			<path class="st5" d="M277.1,317.4c-0.1,0-0.3-0.1-0.4-0.2l-0.7-0.7c-0.2-0.2-0.2-0.6,0-0.8c0.2-0.2,0.6-0.2,0.8,0l0.7,0.7
				c0.2,0.2,0.2,0.6,0,0.8C277.4,317.4,277.2,317.4,277.1,317.4z"/>
		</g>
		<g>
			<path class="st5" d="M230.1,313.8c-0.1,0-0.3-0.1-0.4-0.2c-0.2-0.2-0.2-0.6,0-0.8l0.7-0.7c0.2-0.2,0.6-0.2,0.8,0s0.2,0.6,0,0.8
				l-0.7,0.7C230.4,313.8,230.3,313.8,230.1,313.8z"/>
		</g>
		<g>
			<path class="st5" d="M226.5,317.4c-0.1,0-0.3-0.1-0.4-0.2c-0.2-0.2-0.2-0.6,0-0.8l0.7-0.7c0.2-0.2,0.6-0.2,0.8,0s0.2,0.6,0,0.8
				l-0.7,0.7C226.8,317.4,226.7,317.4,226.5,317.4z"/>
		</g>
		<g>
			<path class="st5" d="M227.2,313.8c-0.1,0-0.3-0.1-0.4-0.2l-0.7-0.7c-0.2-0.2-0.2-0.6,0-0.8s0.6-0.2,0.8,0l0.7,0.7
				c0.2,0.2,0.2,0.6,0,0.8C227.5,313.8,227.3,313.8,227.2,313.8z"/>
		</g>
		<g>
			<path class="st5" d="M230.8,317.4c-0.1,0-0.3-0.1-0.4-0.2l-0.7-0.7c-0.2-0.2-0.2-0.6,0-0.8c0.2-0.2,0.6-0.2,0.8,0l0.7,0.7
				c0.2,0.2,0.2,0.6,0,0.8C231.1,317.4,231,317.4,230.8,317.4z"/>
		</g>
		<g>
			<path class="st5" d="M226.2,328.5c-0.1,0-0.3-0.1-0.4-0.2l-0.2-0.2c-0.2-0.2-0.2-0.6,0-0.8s0.6-0.2,0.8,0l0.2,0.2
				c0.2,0.2,0.2,0.6,0,0.8C226.5,328.4,226.4,328.5,226.2,328.5z"/>
		</g>
		<g>
			<path class="st5" d="M223.6,325.8c-0.1,0-0.3-0.1-0.4-0.2l-0.2-0.2c-0.2-0.2-0.2-0.6,0-0.8c0.2-0.2,0.6-0.2,0.8,0l0.2,0.2
				c0.2,0.2,0.2,0.6,0,0.8C223.9,325.8,223.7,325.8,223.6,325.8z"/>
		</g>
		<g>
			<path class="st5" d="M226,325.8c-0.1,0-0.3-0.1-0.4-0.2c-0.2-0.2-0.2-0.6,0-0.8l0.2-0.2c0.2-0.2,0.6-0.2,0.8,0s0.2,0.6,0,0.8
				l-0.2,0.2C226.3,325.8,226.2,325.8,226,325.8z"/>
		</g>
		<g>
			<path class="st5" d="M223.4,328.5c-0.1,0-0.3-0.1-0.4-0.2c-0.2-0.2-0.2-0.6,0-0.8l0.2-0.2c0.2-0.2,0.6-0.2,0.8,0s0.2,0.6,0,0.8
				l-0.2,0.2C223.7,328.4,223.6,328.5,223.4,328.5z"/>
		</g>
		<g>
			<path class="st5" d="M242,318.1L242,318.1c-1.1-0.1-2.1-0.3-3-0.7c-2.6-1.1-4.6-3.2-5.3-5.7c-0.2-0.6-0.3-1.3-0.4-1.9
				c-0.4-2.3-0.2-4.7,0.5-7c0.5-1.8,1.4-3.6,2.5-5.3c0.8-1.1,1.6-2.1,2.4-3c0.1-0.1,0.2-0.2,0.3-0.3c0.1-0.1,0.3-0.3,0.6-0.3
				c0.4,0.1,0.5,0.5,0.5,0.8v0.1c0.1,0.3,0.1,0.5,0.2,0.8c0.2,0.5,0.4,0.9,0.6,1.3c0.9,1.6,2.5,2.6,3.9,3.4l0.4,0.2
				c1.5,0.9,3.1,1.8,4.3,3.2c1.6,1.9,2.3,4.5,1.9,6.9c-0.4,2.2-1.8,4.3-3.8,5.7c-0.3,0.2-0.6,0.1-0.8-0.1c-0.2-0.3-0.1-0.6,0.1-0.8
				c1.7-1.2,2.9-3,3.3-5c0.4-2.1-0.2-4.3-1.6-5.9c-1.1-1.3-2.5-2.1-4-2.9l-0.4-0.2c-1.6-0.9-3.3-2-4.4-3.9c-0.3-0.5-0.5-1-0.7-1.5
				c0-0.1-0.1-0.2-0.1-0.4c-0.7,0.7-1.4,1.6-2,2.5c-1.1,1.6-1.9,3.3-2.4,4.9c-0.6,2.1-0.8,4.4-0.5,6.4c0.1,0.6,0.2,1.2,0.4,1.8
				c0.7,2.2,2.4,4.1,4.6,5c0.8,0.3,1.7,0.6,2.6,0.6c0.3,0,0.6,0.3,0.5,0.6C242.6,317.8,242.3,318.1,242,318.1z"/>
		</g>
		<g>
			<path class="st5" d="M242,322.3c-0.1,0-0.2,0-0.3-0.1c-0.2-0.1-0.3-0.3-0.3-0.5v-4.3c0-0.2,0.1-0.3,0.2-0.4c0,0,0.9-0.7,2.7-1.3
				c1.6-0.5,3-0.5,3.1-0.5c0.2,0,0.4,0.1,0.5,0.3l2.3,3.6c0.1,0.2,0.1,0.4,0,0.6s-0.3,0.3-0.5,0.3c0,0-1.5,0.1-3.8,0.7
				c-2.3,0.7-3.6,1.5-3.6,1.5C242.2,322.3,242.1,322.3,242,322.3z M242.6,317.8v3c0.7-0.3,1.7-0.7,3-1.1s2.4-0.6,3.1-0.7l-1.6-2.5
				c-0.5,0-1.4,0.1-2.4,0.4C243.6,317.2,242.9,317.6,242.6,317.8z"/>
		</g>
		<g>
			<path class="st5" d="M254.3,332.9c-0.3,0-0.6-0.2-0.6-0.5c-0.3-4.3-1.8-8.5-4.5-12.6c-0.2-0.3-0.1-0.6,0.2-0.8
				c0.3-0.2,0.6-0.1,0.8,0.2c2.8,4.2,4.3,8.6,4.7,13.1C254.9,332.6,254.7,332.8,254.3,332.9L254.3,332.9z"/>
		</g>
		<g>
			<path class="st5" d="M242.7,329c-0.3,0-0.5-0.2-0.6-0.5c-0.5-2.2-0.7-4.4-0.7-6.8c0-0.3,0.3-0.6,0.6-0.6l0,0
				c0.3,0,0.6,0.3,0.6,0.6c0,2.3,0.2,4.5,0.7,6.6c0.1,0.3-0.1,0.6-0.4,0.7C242.8,329,242.8,329,242.7,329z"/>
		</g>
		<g>
			<path class="st5" d="M247.7,311.4h-0.1c-0.3-0.1-0.5-0.4-0.4-0.7c0.4-1.6-0.1-3.3-1.2-4.6c-0.9-1-2.2-1.6-3.4-2.2l-0.3-0.2
				c-0.3-0.1-0.4-0.5-0.3-0.8c0.1-0.3,0.5-0.4,0.8-0.3l0.3,0.2c1.3,0.7,2.7,1.3,3.7,2.5c1.4,1.5,2,3.6,1.5,5.6
				C248.2,311.3,248,311.4,247.7,311.4z"/>
		</g>
		<g>
			<path class="st5" d="M250.4,329c-0.3,0-0.5-0.2-0.6-0.4c-0.4-1.5-1-3.1-1.7-4.6c-0.1-0.3,0-0.6,0.3-0.8c0.3-0.1,0.6,0,0.8,0.3
				c0.8,1.6,1.4,3.2,1.8,4.8c0.1,0.3-0.1,0.6-0.4,0.7C250.5,329,250.5,329,250.4,329z"/>
		</g>
		<g>
			<path class="st5" d="M261.8,329.6c-0.1,0-0.2,0-0.2,0c-0.3-0.1-0.4-0.5-0.3-0.8l7-16.4c0.3-0.6,0.3-1.3,0.1-2l-2.1-7.5l-6.7,3.8
				c-0.6,0.3-1,0.8-1.3,1.4l-6.3,14.7c-0.1,0.3-0.5,0.4-0.8,0.3s-0.4-0.5-0.3-0.8l6.3-14.7c0.4-0.8,1-1.5,1.8-2l7.3-4.2
				c0.2-0.1,0.3-0.1,0.5,0s0.3,0.2,0.3,0.4l2.3,8.3c0.3,0.9,0.2,1.9-0.2,2.8l-7,16.4C262.2,329.5,262,329.6,261.8,329.6z"/>
		</g>
		<g>
			<path class="st5" d="M267.8,315.5c-0.1,0-0.2,0-0.2,0l-11-4.7c-0.3-0.1-0.4-0.5-0.3-0.8s0.5-0.4,0.8-0.3l11,4.7
				c0.3,0.1,0.4,0.5,0.3,0.8C268.2,315.4,268,315.5,267.8,315.5z"/>
		</g>
		<g>
			<path class="st5" d="M268,307.2c-0.1,0-0.2,0-0.2,0l-5.4-2.3c-0.3-0.1-0.4-0.5-0.3-0.8s0.5-0.4,0.8-0.3l5.4,2.3
				c0.3,0.1,0.4,0.5,0.3,0.8C268.4,307.1,268.2,307.2,268,307.2z"/>
		</g>
		<g>
			<path class="st5" d="M257,331.7c-0.1,0-0.2,0-0.2,0c-0.3-0.1-0.4-0.5-0.3-0.8l6.1-14.1c0.1-0.3,0.5-0.4,0.8-0.3s0.4,0.5,0.3,0.8
				l-6.1,14.1C257.5,331.5,257.3,331.7,257,331.7z"/>
		</g>
		<g>
			<path class="st5" d="M253.4,328c-0.1,0-0.2,0-0.2,0c-0.3-0.1-0.4-0.5-0.3-0.8l5.3-12.3c0.1-0.3,0.5-0.4,0.8-0.3s0.4,0.5,0.3,0.8
				l-5.3,12.3C253.9,327.9,253.7,328,253.4,328z"/>
		</g>
		<g>
			<path class="st5" d="M228.6,301.8c-0.1,0-0.3-0.1-0.4-0.2l-0.2-0.2c-0.2-0.2-0.2-0.6,0-0.8s0.6-0.2,0.8,0l0.2,0.2
				c0.2,0.2,0.2,0.6,0,0.8C228.9,301.8,228.8,301.8,228.6,301.8z"/>
		</g>
		<g>
			<path class="st5" d="M226,299.2c-0.1,0-0.3-0.1-0.4-0.2l-0.2-0.2c-0.2-0.2-0.2-0.6,0-0.8s0.6-0.2,0.8,0l0.2,0.2
				c0.2,0.2,0.2,0.6,0,0.8C226.3,299.2,226.1,299.2,226,299.2z"/>
		</g>
		<g>
			<path class="st5" d="M228.4,299.2c-0.1,0-0.3-0.1-0.4-0.2c-0.2-0.2-0.2-0.6,0-0.8l0.2-0.2c0.2-0.2,0.6-0.2,0.8,0s0.2,0.6,0,0.8
				l-0.2,0.2C228.7,299.2,228.6,299.2,228.4,299.2z"/>
		</g>
		<g>
			<path class="st5" d="M225.8,301.8c-0.1,0-0.3-0.1-0.4-0.2c-0.2-0.2-0.2-0.6,0-0.8l0.2-0.2c0.2-0.2,0.6-0.2,0.8,0s0.2,0.6,0,0.8
				l-0.2,0.2C226.1,301.8,225.9,301.8,225.8,301.8z"/>
		</g>
		<g>
			<path class="st5" d="M253.5,299.9c-0.1,0-0.3-0.1-0.4-0.2c-0.2-0.2-0.2-0.6,0-0.8l0.7-0.7c0.2-0.2,0.6-0.2,0.8,0s0.2,0.6,0,0.8
				l-0.7,0.7C253.8,299.8,253.7,299.9,253.5,299.9z"/>
		</g>
		<g>
			<path class="st5" d="M257.1,296.2c-0.1,0-0.3-0.1-0.4-0.2c-0.2-0.2-0.2-0.6,0-0.8l0.7-0.7c0.2-0.2,0.6-0.2,0.8,0
				c0.2,0.2,0.2,0.6,0,0.8l-0.7,0.7C257.4,296.2,257.3,296.2,257.1,296.2z"/>
		</g>
		<g>
			<path class="st5" d="M257.8,299.9c-0.1,0-0.3-0.1-0.4-0.2l-0.7-0.7c-0.2-0.2-0.2-0.6,0-0.8s0.6-0.2,0.8,0l0.7,0.7
				c0.2,0.2,0.2,0.6,0,0.8C258.1,299.8,258,299.9,257.8,299.9z"/>
		</g>
		<g>
			<path class="st5" d="M254.2,296.2c-0.1,0-0.3-0.1-0.4-0.2l-0.7-0.7c-0.2-0.2-0.2-0.6,0-0.8c0.2-0.2,0.6-0.2,0.8,0l0.7,0.7
				c0.2,0.2,0.2,0.6,0,0.8C254.5,296.2,254.3,296.2,254.2,296.2z"/>
		</g>
		<g>
			<path class="st5" d="M276.4,301.4c-0.1,0-0.3-0.1-0.4-0.2l-0.2-0.2c-0.2-0.2-0.2-0.6,0-0.8c0.2-0.2,0.6-0.2,0.8,0l0.2,0.2
				c0.2,0.2,0.2,0.6,0,0.8C276.7,301.4,276.5,301.4,276.4,301.4z"/>
		</g>
		<g>
			<path class="st5" d="M273.7,298.8c-0.1,0-0.3-0.1-0.4-0.2l-0.2-0.2c-0.2-0.2-0.2-0.6,0-0.8s0.6-0.2,0.8,0l0.2,0.2
				c0.2,0.2,0.2,0.6,0,0.8C274,298.7,273.9,298.8,273.7,298.8z"/>
		</g>
		<g>
			<path class="st5" d="M276.2,298.8c-0.1,0-0.3-0.1-0.4-0.2c-0.2-0.2-0.2-0.6,0-0.8l0.2-0.2c0.2-0.2,0.6-0.2,0.8,0s0.2,0.6,0,0.8
				l-0.2,0.2C276.5,298.7,276.3,298.8,276.2,298.8z"/>
		</g>
		<g>
			<path class="st5" d="M273.6,301.4c-0.1,0-0.3-0.1-0.4-0.2c-0.2-0.2-0.2-0.6,0-0.8l0.2-0.2c0.2-0.2,0.6-0.2,0.8,0
				c0.2,0.2,0.2,0.6,0,0.8l-0.2,0.2C273.9,301.4,273.7,301.4,273.6,301.4z"/>
		</g>
	</g>
	<g>
		<g>
			<path class="st5" d="M348.1,320.9c-0.1,0-0.3-0.1-0.4-0.2c-0.2-0.2-0.2-0.6,0-0.8l0.7-0.7c0.2-0.2,0.6-0.2,0.8,0
				c0.2,0.2,0.2,0.6,0,0.8l-0.7,0.7C348.4,320.8,348.3,320.9,348.1,320.9z"/>
		</g>
		<g>
			<path class="st5" d="M351.8,317.3c-0.1,0-0.3-0.1-0.4-0.2c-0.2-0.2-0.2-0.6,0-0.8l0.7-0.7c0.2-0.2,0.6-0.2,0.8,0s0.2,0.6,0,0.8
				l-0.7,0.7C352,317.2,351.9,317.3,351.8,317.3z"/>
		</g>
		<g>
			<path class="st5" d="M352.4,320.9c-0.1,0-0.3-0.1-0.4-0.2l-0.7-0.7c-0.2-0.2-0.2-0.6,0-0.8c0.2-0.2,0.6-0.2,0.8,0l0.7,0.7
				c0.2,0.2,0.2,0.6,0,0.8C352.7,320.8,352.6,320.9,352.4,320.9z"/>
		</g>
		<g>
			<path class="st5" d="M348.8,317.3c-0.1,0-0.3-0.1-0.4-0.2l-0.7-0.7c-0.2-0.2-0.2-0.6,0-0.8c0.2-0.2,0.6-0.2,0.8,0l0.7,0.7
				c0.2,0.2,0.2,0.6,0,0.8C349.1,317.2,349,317.3,348.8,317.3z"/>
		</g>
		<g>
			<path class="st5" d="M301.9,313.7c-0.1,0-0.3-0.1-0.4-0.2c-0.2-0.2-0.2-0.6,0-0.8l0.7-0.7c0.2-0.2,0.6-0.2,0.8,0s0.2,0.6,0,0.8
				l-0.7,0.7C302.2,313.6,302,313.7,301.9,313.7z"/>
		</g>
		<g>
			<path class="st5" d="M298.3,317.3c-0.1,0-0.3-0.1-0.4-0.2c-0.2-0.2-0.2-0.6,0-0.8l0.7-0.7c0.2-0.2,0.6-0.2,0.8,0
				c0.2,0.2,0.2,0.6,0,0.8l-0.7,0.7C298.6,317.2,298.4,317.3,298.3,317.3z"/>
		</g>
		<g>
			<path class="st5" d="M298.9,313.7c-0.1,0-0.3-0.1-0.4-0.2l-0.7-0.7c-0.2-0.2-0.2-0.6,0-0.8c0.2-0.2,0.6-0.2,0.8,0l0.7,0.7
				c0.2,0.2,0.2,0.6,0,0.8C299.2,313.6,299.1,313.7,298.9,313.7z"/>
		</g>
		<g>
			<path class="st5" d="M302.6,317.3c-0.1,0-0.3-0.1-0.4-0.2l-0.7-0.7c-0.2-0.2-0.2-0.6,0-0.8c0.2-0.2,0.6-0.2,0.8,0l0.7,0.7
				c0.2,0.2,0.2,0.6,0,0.8C302.8,317.2,302.7,317.3,302.6,317.3z"/>
		</g>
		<g>
			<path class="st5" d="M298,328.3c-0.1,0-0.3-0.1-0.4-0.2l-0.2-0.2c-0.2-0.2-0.2-0.6,0-0.8s0.6-0.2,0.8,0l0.2,0.2
				c0.2,0.2,0.2,0.6,0,0.8C298.3,328.3,298.1,328.3,298,328.3z"/>
		</g>
		<g>
			<path class="st5" d="M295.3,325.7c-0.1,0-0.3-0.1-0.4-0.2l-0.2-0.2c-0.2-0.2-0.2-0.6,0-0.8s0.6-0.2,0.8,0l0.2,0.2
				c0.2,0.2,0.2,0.6,0,0.8C295.6,325.7,295.5,325.7,295.3,325.7z"/>
		</g>
		<g>
			<path class="st5" d="M297.8,325.7c-0.1,0-0.3-0.1-0.4-0.2c-0.2-0.2-0.2-0.6,0-0.8l0.2-0.2c0.2-0.2,0.6-0.2,0.8,0s0.2,0.6,0,0.8
				l-0.2,0.2C298.1,325.7,297.9,325.7,297.8,325.7z"/>
		</g>
		<g>
			<path class="st5" d="M295.2,328.3c-0.1,0-0.3-0.1-0.4-0.2c-0.2-0.2-0.2-0.6,0-0.8l0.2-0.2c0.2-0.2,0.6-0.2,0.8,0s0.2,0.6,0,0.8
				l-0.2,0.2C295.5,328.3,295.3,328.3,295.2,328.3z"/>
		</g>
		<g>
			<path class="st5" d="M300.4,301.7c-0.1,0-0.3-0.1-0.4-0.2l-0.2-0.2c-0.2-0.2-0.2-0.6,0-0.8s0.6-0.2,0.8,0l0.2,0.2
				c0.2,0.2,0.2,0.6,0,0.8C300.6,301.7,300.5,301.7,300.4,301.7z"/>
		</g>
		<g>
			<path class="st5" d="M297.7,299.1c-0.1,0-0.3-0.1-0.4-0.2l-0.2-0.2c-0.2-0.2-0.2-0.6,0-0.8c0.2-0.2,0.6-0.2,0.8,0l0.2,0.2
				c0.2,0.2,0.2,0.6,0,0.8C298,299,297.9,299.1,297.7,299.1z"/>
		</g>
		<g>
			<path class="st5" d="M300.2,299.1c-0.1,0-0.3-0.1-0.4-0.2c-0.2-0.2-0.2-0.6,0-0.8l0.2-0.2c0.2-0.2,0.6-0.2,0.8,0
				c0.2,0.2,0.2,0.6,0,0.8l-0.2,0.2C300.5,299,300.3,299.1,300.2,299.1z"/>
		</g>
		<g>
			<path class="st5" d="M297.5,301.7c-0.1,0-0.3-0.1-0.4-0.2c-0.2-0.2-0.2-0.6,0-0.8l0.2-0.2c0.2-0.2,0.6-0.2,0.8,0s0.2,0.6,0,0.8
				l-0.2,0.2C297.8,301.7,297.7,301.7,297.5,301.7z"/>
		</g>
		<g>
			<path class="st5" d="M325.3,299.7c-0.1,0-0.3-0.1-0.4-0.2c-0.2-0.2-0.2-0.6,0-0.8l0.7-0.7c0.2-0.2,0.6-0.2,0.8,0s0.2,0.6,0,0.8
				l-0.7,0.7C325.6,299.7,325.4,299.7,325.3,299.7z"/>
		</g>
		<g>
			<path class="st5" d="M328.9,296.1c-0.1,0-0.3-0.1-0.4-0.2c-0.2-0.2-0.2-0.6,0-0.8l0.7-0.7c0.2-0.2,0.6-0.2,0.8,0s0.2,0.6,0,0.8
				l-0.7,0.7C329.2,296.1,329,296.1,328.9,296.1z"/>
		</g>
		<g>
			<path class="st5" d="M329.5,299.7c-0.1,0-0.3-0.1-0.4-0.2l-0.7-0.7c-0.2-0.2-0.2-0.6,0-0.8c0.2-0.2,0.6-0.2,0.8,0l0.7,0.7
				c0.2,0.2,0.2,0.6,0,0.8C329.8,299.7,329.7,299.7,329.5,299.7z"/>
		</g>
		<g>
			<path class="st5" d="M325.9,296.1c-0.1,0-0.3-0.1-0.4-0.2l-0.7-0.7c-0.2-0.2-0.2-0.6,0-0.8c0.2-0.2,0.6-0.2,0.8,0l0.7,0.7
				c0.2,0.2,0.2,0.6,0,0.8C326.2,296.1,326.1,296.1,325.9,296.1z"/>
		</g>
		<g>
			<path class="st5" d="M348.1,301.3c-0.1,0-0.3-0.1-0.4-0.2l-0.2-0.2c-0.2-0.2-0.2-0.6,0-0.8c0.2-0.2,0.6-0.2,0.8,0l0.2,0.2
				c0.2,0.2,0.2,0.6,0,0.8C348.4,301.2,348.3,301.3,348.1,301.3z"/>
		</g>
		<g>
			<path class="st5" d="M345.5,298.7c-0.1,0-0.3-0.1-0.4-0.2l-0.2-0.2c-0.2-0.2-0.2-0.6,0-0.8c0.2-0.2,0.6-0.2,0.8,0l0.2,0.2
				c0.2,0.2,0.2,0.6,0,0.8C345.8,298.6,345.6,298.7,345.5,298.7z"/>
		</g>
		<g>
			<path class="st5" d="M347.9,298.7c-0.1,0-0.3-0.1-0.4-0.2c-0.2-0.2-0.2-0.6,0-0.8l0.2-0.2c0.2-0.2,0.6-0.2,0.8,0
				c0.2,0.2,0.2,0.6,0,0.8l-0.2,0.2C348.2,298.6,348.1,298.7,347.9,298.7z"/>
		</g>
		<g>
			<path class="st5" d="M345.3,301.3c-0.1,0-0.3-0.1-0.4-0.2c-0.2-0.2-0.2-0.6,0-0.8l0.2-0.2c0.2-0.2,0.6-0.2,0.8,0
				c0.2,0.2,0.2,0.6,0,0.8l-0.2,0.2C345.6,301.2,345.5,301.3,345.3,301.3z"/>
		</g>
		<g>
			<g>
				<path class="st5" d="M324,353.9c-0.1,0-0.2,0-0.2-0.1l-18.6-8.7c-0.2-0.1-0.3-0.3-0.3-0.5v-10c0-0.3,0.3-0.6,0.6-0.6
					c0.3,0,0.6,0.3,0.6,0.6v9.6l18,8.5l16.9-8.5v-9.7c0-0.3,0.3-0.6,0.6-0.6c0.3,0,0.6,0.3,0.6,0.6v10.1c0,0.2-0.1,0.4-0.3,0.5
					l-17.5,8.7C324.2,353.9,324.1,353.9,324,353.9z"/>
			</g>
			<g>
				<path class="st5" d="M324,333.2c-0.1,0-0.2,0-0.2,0l-18.6-7.6c-0.3-0.1-0.4-0.5-0.3-0.8s0.5-0.4,0.8-0.3L324,332l17.2-7.5
					c0.3-0.1,0.6,0,0.8,0.3c0.1,0.3,0,0.6-0.3,0.8l-17.5,7.6C324.2,333.2,324.1,333.2,324,333.2z"/>
			</g>
			<g>
				<path class="st5" d="M324,353.9c-0.3,0-0.6-0.3-0.6-0.6v-20.8c0-0.3,0.3-0.6,0.6-0.6s0.6,0.3,0.6,0.6v20.8
					C324.6,353.7,324.3,353.9,324,353.9z"/>
			</g>
			<g>
				<path class="st5" d="M318.6,341.4c-0.1,0-0.2,0-0.2-0.1l-18.6-8.7c-0.2-0.1-0.3-0.2-0.3-0.4c0-0.2,0-0.4,0.1-0.5l5.5-7.1
					c0.2-0.3,0.6-0.3,0.8-0.1c0.3,0.2,0.3,0.6,0.1,0.8l-5,6.5l17.5,8.2l5.2-7.8c0.2-0.3,0.5-0.3,0.8-0.2c0.3,0.2,0.3,0.5,0.2,0.8
					l-5.5,8.2C318.9,341.3,318.8,341.4,318.6,341.4z"/>
			</g>
			<g>
				<path class="st5" d="M341.5,325.5c-0.1,0-0.1,0-0.2,0l-17.8-5.9l-17.8,5.9c-0.3,0.1-0.6-0.1-0.7-0.4s0.1-0.6,0.4-0.7l18-6
					c0.1,0,0.2,0,0.4,0l18,6c0.3,0.1,0.5,0.4,0.4,0.7C342,325.4,341.7,325.5,341.5,325.5z"/>
			</g>
			<g>
				<path class="st5" d="M330,340.8c-0.2,0-0.3-0.1-0.5-0.2l-6-7.6c-0.2-0.3-0.2-0.6,0.1-0.8c0.3-0.2,0.6-0.2,0.8,0.1l5.7,7.3
					l15.4-7.7l-4.5-6.5c-0.2-0.3-0.1-0.6,0.1-0.8s0.6-0.1,0.8,0.1l4.9,7.1c0.1,0.1,0.1,0.3,0.1,0.5s-0.2,0.3-0.3,0.4l-16.4,8.2
					C330.2,340.8,330.1,340.8,330,340.8z"/>
			</g>
			<g>
				<path class="st5" d="M323.5,329.5c-0.3,0-0.6-0.3-0.6-0.6v-0.2c0-0.3,0.3-0.6,0.6-0.6c0.3,0,0.6,0.3,0.6,0.6v0.2
					C324.1,329.3,323.8,329.5,323.5,329.5z M323.5,326.4c-0.3,0-0.6-0.3-0.6-0.6v-0.2c0-0.3,0.3-0.6,0.6-0.6c0.3,0,0.6,0.3,0.6,0.6
					v0.2C324.1,326.1,323.8,326.4,323.5,326.4z M323.5,323.3c-0.3,0-0.6-0.3-0.6-0.6v-0.2c0-0.3,0.3-0.6,0.6-0.6
					c0.3,0,0.6,0.3,0.6,0.6v0.2C324.1,323,323.8,323.3,323.5,323.3z"/>
			</g>
		</g>
	</g>
	<g>
		<path class="st6" d="M392.9,457.9c-0.4,0-0.6,0.4-0.6,0.9v1.8c0,0.5,0.3,0.9,0.6,0.9H406c0.4,0,0.6-0.4,0.6-0.9v-1.8
			c0-0.5-0.3-0.9-0.6-0.9H392.9z"/>
		<path class="st6" d="M392.9,465.9c-0.4,0-0.6,0.4-0.6,0.9v1.8c0,0.5,0.3,0.9,0.6,0.9H406c0.4,0,0.6-0.4,0.6-0.9v-1.8
			c0-0.5-0.3-0.9-0.6-0.9H392.9z"/>
		<path class="st6" d="M392.9,474c-0.4,0-0.6,0.4-0.6,0.9v1.8c0,0.5,0.3,0.9,0.6,0.9H406c0.4,0,0.6-0.4,0.6-0.9v-1.8
			c0-0.5-0.3-0.9-0.6-0.9H392.9z"/>
		<path class="st6" d="M388.6,461.3c0.4,0,0.6-0.4,0.6-0.9v-1.8c0-0.5-0.3-0.9-0.6-0.9h-2.3c-0.4,0-0.6,0.4-0.6,0.9v1.8
			c0,0.5,0.3,0.9,0.6,0.9H388.6z"/>
		<path class="st6" d="M388.6,469.4c0.4,0,0.6-0.4,0.6-0.9v-1.7c0-0.5-0.3-0.9-0.6-0.9h-2.3c-0.4,0-0.6,0.4-0.6,0.9v1.8
			c0,0.5,0.3,0.9,0.6,0.9L388.6,469.4L388.6,469.4z"/>
		<path class="st6" d="M388.6,477.5c0.4,0,0.6-0.4,0.6-0.9v-1.8c0-0.5-0.3-0.9-0.6-0.9h-2.3c-0.4,0-0.6,0.4-0.6,0.9v1.8
			c0,0.5,0.3,0.9,0.6,0.9H388.6z"/>
	</g>
	<g>
		<path class="st6" d="M317.4,457.7H314c-0.4,0-0.8,0.4-0.8,0.9v2.9c0,0.5,0.4,0.9,0.8,0.9h3.4c0.4,0,0.8-0.4,0.8-0.9v-2.9
			C318.2,458.1,317.8,457.7,317.4,457.7z"/>
		<path class="st6" d="M317.4,465.4H314c-0.4,0-0.8,0.4-0.8,0.9v2.9c0,0.5,0.4,0.9,0.8,0.9h3.4c0.4,0,0.8-0.4,0.8-0.9v-2.9
			C318.2,465.8,317.8,465.4,317.4,465.4z"/>
		<path class="st6" d="M317.4,473H314c-0.4,0-0.8,0.4-0.8,0.9v2.9c0,0.5,0.4,0.9,0.8,0.9h3.4c0.4,0,0.8-0.4,0.8-0.9v-2.9
			C318.2,473.4,317.8,473,317.4,473z"/>
		<path class="st6" d="M333.8,457.7h-3.4c-0.4,0-0.8,0.4-0.8,0.9v2.9c0,0.5,0.4,0.9,0.8,0.9h3.4c0.4,0,0.8-0.4,0.8-0.9v-2.9
			C334.5,458.1,334.2,457.7,333.8,457.7z"/>
		<path class="st6" d="M333.8,465.4h-3.4c-0.4,0-0.8,0.4-0.8,0.9v2.9c0,0.5,0.4,0.9,0.8,0.9h3.4c0.4,0,0.8-0.4,0.8-0.9v-2.9
			C334.5,465.8,334.2,465.4,333.8,465.4z"/>
		<path class="st6" d="M333.8,473h-3.4c-0.4,0-0.8,0.4-0.8,0.9v2.9c0,0.5,0.4,0.9,0.8,0.9h3.4c0.4,0,0.8-0.4,0.8-0.9v-2.9
			C334.5,473.4,334.2,473,333.8,473z"/>
		<path class="st6" d="M325.6,457.7h-3.4c-0.4,0-0.8,0.4-0.8,0.9v2.9c0,0.5,0.4,0.9,0.8,0.9h3.4c0.4,0,0.8-0.4,0.8-0.9v-2.9
			C326.4,458.1,326,457.7,325.6,457.7z"/>
		<path class="st6" d="M325.6,465.4h-3.4c-0.4,0-0.8,0.4-0.8,0.9v2.9c0,0.5,0.4,0.9,0.8,0.9h3.4c0.4,0,0.8-0.4,0.8-0.9v-2.9
			C326.4,465.8,326,465.4,325.6,465.4z"/>
		<path class="st6" d="M325.6,473h-3.4c-0.4,0-0.8,0.4-0.8,0.9v2.9c0,0.5,0.4,0.9,0.8,0.9h3.4c0.4,0,0.8-0.4,0.8-0.9v-2.9
			C326.4,473.4,326,473,325.6,473z"/>
	</g>
	<g>
		<g>
			<path class="st5" d="M51.9,316.9H20.4c-2.1,0-3.8-1.7-3.8-3.8s1.7-3.8,3.8-3.8H52c2.1,0,3.8,1.7,3.8,3.8S54,316.9,51.9,316.9z
				 M20.4,310.9c-1.2,0-2.2,1-2.2,2.2s1,2.2,2.2,2.2H52c1.2,0,2.2-1,2.2-2.2s-1-2.2-2.2-2.2H20.4z"/>
		</g>
		<g>
			<path class="st5" d="M42.9,310.9c-0.4,0-0.8-0.3-0.8-0.8c0-3.3-2.7-6-6-6s-6,2.7-6,6c0,0.4-0.3,0.8-0.8,0.8s-0.8-0.3-0.8-0.8
				c0-4.2,3.4-7.6,7.6-7.6s7.6,3.4,7.6,7.6C43.7,310.5,43.4,310.9,42.9,310.9z"/>
		</g>
		<g>
			<path class="st5" d="M44.6,345.7h-17c-2.2,0-4-1.6-4.3-3.8l-3-25.7c-0.1-0.4,0.3-0.8,0.7-0.9c0.4-0.1,0.8,0.3,0.9,0.7l3,25.7
				c0.2,1.4,1.3,2.4,2.7,2.4h17c1.4,0,2.6-1,2.7-2.4l3-25.7c0.1-0.4,0.4-0.7,0.9-0.7c0.4,0.1,0.7,0.4,0.7,0.9l-3,25.7
				C48.7,344.1,46.8,345.7,44.6,345.7z"/>
		</g>
		<g>
			<path class="st5" d="M28.6,342.1c-0.4,0-0.7-0.3-0.8-0.7L26,319.8c0-0.4,0.3-0.8,0.7-0.8c0.4,0,0.8,0.3,0.8,0.7l1.8,21.5
				C29.4,341.6,29.1,342,28.6,342.1C28.7,342.1,28.6,342.1,28.6,342.1z"/>
		</g>
		<g>
			<path class="st5" d="M43.7,342.1C43.6,342.1,43.6,342.1,43.7,342.1c-0.5,0-0.8-0.4-0.8-0.8l1.8-21.5c0-0.4,0.4-0.8,0.8-0.7
				c0.4,0,0.7,0.4,0.7,0.8l-1.8,21.5C44.4,341.8,44.1,342.1,43.7,342.1z"/>
		</g>
		<g>
			<path class="st5" d="M33.4,342.1c-0.4,0-0.8-0.3-0.8-0.8l-0.7-21.5c0-0.4,0.3-0.8,0.8-0.8c0.4,0,0.8,0.3,0.8,0.8l0.7,21.5
				C34.2,341.7,33.8,342,33.4,342.1L33.4,342.1z"/>
		</g>
		<g>
			<path class="st5" d="M38.9,342.1L38.9,342.1c-0.5,0-0.8-0.4-0.8-0.8l0.7-21.5c0-0.4,0.4-0.8,0.8-0.8c0.4,0,0.8,0.4,0.8,0.8
				l-0.7,21.5C39.6,341.7,39.3,342.1,38.9,342.1z"/>
		</g>
	</g>
	<path class="st2" d="M248.4,546c-2.6,0-5.2-1-7.1-2.9c-3.9-3.9-3.9-10.3,0-14.3s10.3-3.9,14.3,0l0,0c3.9,3.9,3.9,10.3,0,14.3
		C253.6,545,251,546,248.4,546z M248.4,526.9c-2.3,0-4.7,0.9-6.4,2.7c-3.5,3.5-3.5,9.3,0,12.9c3.5,3.5,9.3,3.5,12.9,0
		c3.5-3.5,3.5-9.3,0-12.9l0,0C253.1,527.8,250.7,526.9,248.4,526.9z"/>
	<path class="st10" d="M263,553.3c-0.7,0-1.4-0.3-1.9-0.8l-3.7-3.7c-0.8-0.8-1.4-2-1.5-3.2v-0.4c0-0.5,0.1-1,0.5-1.3
		c0.4-0.4,0.8-0.5,1.4-0.5h0.1c1.4,0.2,2.7,0.8,3.7,1.8l3.3,3.3l0,0c1,1,1.1,2.7,0.2,3.7c-0.5,0.6-1.2,1-2,1
		C263.1,553.3,263.1,553.3,263,553.3z M257.6,544.4c-0.2,0-0.3,0.1-0.5,0.2c-0.1,0.1-0.2,0.3-0.2,0.5v0.4c0.1,1,0.5,1.9,1.2,2.5
		l3.7,3.7c0.3,0.3,0.8,0.5,1.3,0.5s0.9-0.2,1.3-0.6c0.6-0.7,0.5-1.7-0.2-2.4l-3.3-3.3C260.1,545.1,258.9,544.5,257.6,544.4
		L257.6,544.4L257.6,544.4z"/>
	<path class="st10" d="M256.7,544.8c-0.1,0-0.3,0-0.4-0.1l-1.5-1.5c-0.2-0.2-0.2-0.5,0-0.7s0.5-0.2,0.7,0l1.5,1.5
		c0.2,0.2,0.2,0.5,0,0.7C257,544.7,256.9,544.8,256.7,544.8z"/>
	<path class="st10" d="M253.4,531.2c-0.1,0-0.3-0.1-0.4-0.2c-1.2-1.2-2.7-1.9-4.3-1.9c-0.3,0-0.5-0.2-0.5-0.5s0.2-0.5,0.5-0.5
		c1.9,0,3.7,0.8,5,2.2c0.2,0.2,0.2,0.5,0,0.7C253.6,531.1,253.5,531.2,253.4,531.2z"/>
	<path class="st6" d="M245,535h-2.5c-0.3,0-0.5-0.2-0.5-0.5s0.2-0.5,0.5-0.5h2.5c0.3,0,0.5,0.2,0.5,0.5S245.3,535,245,535z"/>
	<path class="st6" d="M245,537h-2.5c-0.3,0-0.5-0.2-0.5-0.5s0.2-0.5,0.5-0.5h2.5c0.3,0,0.5,0.2,0.5,0.5
		C245.5,536.7,245.3,537,245,537z"/>
	<path class="st6" d="M245,539h-2.5c-0.3,0-0.5-0.2-0.5-0.5s0.2-0.5,0.5-0.5h2.5c0.3,0,0.5,0.2,0.5,0.5S245.3,539,245,539z"/>
	<path class="st6" d="M247.9,541c-0.3,0-0.5-0.2-0.5-0.5v-8.1c0-0.3,0.2-0.5,0.5-0.5s0.5,0.2,0.5,0.5v8.1
		C248.4,540.8,248.2,541,247.9,541z"/>
	<path class="st6" d="M249.4,532.9h-3c-0.3,0-0.6-0.2-0.6-0.5s0.3-0.5,0.6-0.5h3c0.3,0,0.6,0.2,0.6,0.5S249.7,532.9,249.4,532.9z"/>
	<path class="st6" d="M249.4,541h-3c-0.3,0-0.6-0.2-0.6-0.5s0.3-0.5,0.6-0.5h3c0.3,0,0.6,0.2,0.6,0.5S249.7,541,249.4,541z"/>
	<path class="st6" d="M255.3,535h-4.4c-0.3,0-0.5-0.2-0.5-0.5s0.2-0.5,0.5-0.5h4.4c0.3,0,0.5,0.2,0.5,0.5S255.5,535,255.3,535z"/>
	<path class="st6" d="M255.3,537h-4.4c-0.3,0-0.5-0.2-0.5-0.5s0.2-0.5,0.5-0.5h4.4c0.3,0,0.5,0.2,0.5,0.5
		C255.8,536.7,255.5,537,255.3,537z"/>
	<path class="st6" d="M253,539h-2.1c-0.3,0-0.5-0.2-0.5-0.5s0.2-0.5,0.5-0.5h2.1c0.3,0,0.5,0.2,0.5,0.5S253.2,539,253,539z"/>
	<path class="st10" d="M263.2,550.4c-0.1,0-0.3,0-0.4-0.1l-2.4-2.4c-0.2-0.2-0.2-0.5,0-0.7s0.5-0.2,0.7,0l2.4,2.4
		c0.2,0.2,0.2,0.5,0,0.7C263.5,550.4,263.4,550.4,263.2,550.4z"/>
	<path class="st11" d="M176.4,546c-2.6,0-5.2-1-7.1-2.9c-3.9-3.9-3.9-10.3,0-14.3c3.9-3.9,10.3-3.9,14.3,0l0,0
		c3.9,3.9,3.9,10.3,0,14.3C181.5,545,179,546,176.4,546z M176.4,526.9c-2.3,0-4.7,0.9-6.4,2.7c-3.5,3.5-3.5,9.3,0,12.9
		c3.5,3.5,9.3,3.5,12.9,0c3.5-3.5,3.5-9.3,0-12.9l0,0C181,527.7,178.7,526.9,176.4,526.9z"/>
	<path class="st2" d="M191,553.3c-0.7,0-1.4-0.3-1.9-0.8l-3.7-3.7c-0.8-0.8-1.4-2-1.5-3.2v-0.4c0-0.5,0.1-1,0.5-1.3
		c0.4-0.4,0.8-0.5,1.4-0.5h0.1c1.4,0.2,2.7,0.8,3.7,1.8l3.3,3.3l0,0c1,1,1.1,2.7,0.2,3.7c-0.5,0.6-1.2,1-2,1
		C191.1,553.3,191.1,553.3,191,553.3z M185.5,544.4c-0.2,0-0.3,0.1-0.5,0.2c-0.1,0.1-0.2,0.3-0.2,0.5v0.4c0.1,1,0.5,1.9,1.2,2.5
		l3.7,3.7c0.3,0.3,0.8,0.5,1.3,0.5s0.9-0.2,1.3-0.6c0.6-0.7,0.5-1.7-0.2-2.4l-3.3-3.3c-0.8-0.8-2-1.4-3.2-1.5L185.5,544.4
		C185.6,544.4,185.6,544.4,185.5,544.4z"/>
	<path class="st10" d="M184.7,544.8c-0.1,0-0.3,0-0.4-0.1l-1.5-1.5c-0.2-0.2-0.2-0.5,0-0.7s0.5-0.2,0.7,0l1.5,1.5
		c0.2,0.2,0.2,0.5,0,0.7C185,544.7,184.8,544.8,184.7,544.8z"/>
	<path class="st10" d="M181.3,531.2c-0.1,0-0.3-0.1-0.4-0.2c-1.2-1.2-2.7-1.9-4.3-1.9c-0.3,0-0.5-0.2-0.5-0.5s0.2-0.5,0.5-0.5
		c1.9,0,3.7,0.8,5,2.2c0.2,0.2,0.2,0.5,0,0.7C181.6,531.1,181.5,531.2,181.3,531.2z"/>
	<path class="st10" d="M191.2,550.4c-0.1,0-0.3,0-0.4-0.1l-2.4-2.4c-0.2-0.2-0.2-0.5,0-0.7s0.5-0.2,0.7,0l2.4,2.4
		c0.2,0.2,0.2,0.5,0,0.7C191.5,550.4,191.3,550.4,191.2,550.4z"/>
	<g>
		<g>
			<path class="st5" d="M108.3,338.3c-13.3,0-22.3-13.1-22.7-13.6c-0.2-0.3-0.2-0.6,0-0.8c0.4-0.6,9.4-13.6,22.7-13.6
				s22.3,13.1,22.7,13.6c0.2,0.3,0.2,0.6,0,0.8C130.6,325.2,121.6,338.3,108.3,338.3z M87.1,324.2c1.7,2.2,10,12.6,21.2,12.6
				s19.5-10.3,21.2-12.6c-1.7-2.2-10-12.6-21.2-12.6C97.1,311.7,88.8,322,87.1,324.2z"/>
		</g>
		<g>
			<path class="st5" d="M108.6,332.9c-4.8,0-8.6-3.9-8.6-8.6s3.9-8.6,8.6-8.6s8.6,3.9,8.6,8.6S113.3,332.9,108.6,332.9z
				 M108.6,317.1c-3.9,0-7.1,3.2-7.1,7.1s3.2,7.1,7.1,7.1s7.1-3.2,7.1-7.1S112.5,317.1,108.6,317.1z"/>
		</g>
		<g>
			<path class="st5" d="M113.1,325.2c-0.4,0-0.8-0.3-0.8-0.8c0-2.1-1.7-3.8-3.8-3.8c-0.4,0-0.8-0.3-0.8-0.8s0.3-0.8,0.8-0.8
				c2.9,0,5.3,2.4,5.3,5.3C113.8,324.9,113.5,325.2,113.1,325.2z"/>
		</g>
	</g>
	<g>
		<g>
			<path class="st5" d="M180.3,338.3c-13.3,0-22.3-13.1-22.7-13.6c-0.2-0.3-0.2-0.6,0-0.8c0.4-0.6,9.4-13.6,22.7-13.6
				s22.3,13.1,22.7,13.6c0.2,0.3,0.2,0.6,0,0.8C202.6,325.2,193.6,338.3,180.3,338.3z M159.1,324.2c1.7,2.2,10,12.6,21.2,12.6
				s19.5-10.3,21.2-12.6c-1.7-2.2-10-12.6-21.2-12.6S160.8,322,159.1,324.2z"/>
		</g>
		<g>
			<path class="st5" d="M180.6,332.9c-4.8,0-8.6-3.9-8.6-8.6s3.9-8.6,8.6-8.6s8.6,3.9,8.6,8.6S185.3,332.9,180.6,332.9z
				 M180.6,317.1c-3.9,0-7.1,3.2-7.1,7.1s3.2,7.1,7.1,7.1s7.1-3.2,7.1-7.1S184.5,317.1,180.6,317.1z"/>
		</g>
		<g>
			<path class="st5" d="M185.1,325.2c-0.4,0-0.8-0.3-0.8-0.8c0-2.1-1.7-3.8-3.8-3.8c-0.4,0-0.8-0.3-0.8-0.8s0.3-0.8,0.8-0.8
				c2.9,0,5.3,2.4,5.3,5.3C185.8,324.9,185.5,325.2,185.1,325.2z"/>
		</g>
	</g>
	<g>
		<g>
			<path class="st11" d="M32,545.8c-2.5,0-5.1-1-7-2.9c-3.9-3.9-3.9-10.2,0-14.1s10.2-3.9,14.1,0l0,0c3.9,3.9,3.9,10.2,0,14.1
				C37.1,544.8,34.5,545.8,32,545.8z M32,526.9c-2.3,0-4.6,0.9-6.3,2.6c-3.5,3.5-3.5,9.2,0,12.7s9.2,3.5,12.7,0s3.5-9.2,0-12.7l0,0
				C36.6,527.7,34.3,526.9,32,526.9z"/>
		</g>
		<g>
			<path class="st3" d="M46.6,553.3c-0.7,0-1.4-0.3-1.9-0.8l-3.7-3.7c-0.8-0.8-1.3-1.9-1.4-3.1v-0.4c0-0.5,0.1-1,0.5-1.3
				s0.8-0.5,1.3-0.5h0.1c1.4,0.2,2.7,0.8,3.7,1.8l3.3,3.3l0,0c1,1,1.1,2.6,0.2,3.7C48.2,552.9,47.5,553.2,46.6,553.3
				C46.7,553.3,46.6,553.3,46.6,553.3z M41.2,544.6c-0.2,0-0.3,0.1-0.5,0.2c-0.1,0.1-0.2,0.3-0.2,0.5v0.4c0.1,0.9,0.5,1.8,1.2,2.5
				l3.7,3.7c0.3,0.3,0.8,0.5,1.3,0.5s0.9-0.2,1.2-0.6c0.6-0.7,0.5-1.7-0.2-2.4l-3.3-3.3c-0.8-0.8-1.9-1.4-3.1-1.5L41.2,544.6
				L41.2,544.6z"/>
		</g>
		<g>
			<path class="st10" d="M40.4,544.9c-0.1,0-0.3,0-0.3-0.1l-1.5-1.5c-0.2-0.2-0.2-0.5,0-0.7s0.5-0.2,0.7,0l1.5,1.5
				c0.2,0.2,0.2,0.5,0,0.7C40.6,544.8,40.5,544.9,40.4,544.9z"/>
		</g>
		<g>
			<path class="st10" d="M46.8,550.5c-0.1,0-0.3,0-0.3-0.1l-2.4-2.4c-0.2-0.2-0.2-0.5,0-0.7s0.5-0.2,0.7,0l2.4,2.4
				c0.2,0.2,0.2,0.5,0,0.7C47,550.4,46.9,550.5,46.8,550.5z"/>
		</g>
	</g>
	<g>
		<rect x="101.3" y="535.2" class="st10" width="5.4" height="1.4"/>
		<g>
			<path class="st10" d="M104,545.8c-2.5,0-5.1-1-7-2.9c-3.9-3.9-3.9-10.2,0-14.1s10.2-3.9,14.1,0l0,0c3.9,3.9,3.9,10.2,0,14.1
				C109.1,544.8,106.5,545.8,104,545.8z M104,526.9c-2.3,0-4.6,0.9-6.3,2.6c-3.5,3.5-3.5,9.2,0,12.7s9.2,3.5,12.7,0s3.5-9.2,0-12.7
				l0,0C108.6,527.7,106.3,526.9,104,526.9z"/>
		</g>
		<g>
			<path class="st10" d="M118.6,553.3c-0.7,0-1.4-0.3-1.9-0.8l-3.7-3.7c-0.8-0.8-1.3-1.9-1.4-3.1v-0.4c0-0.5,0.1-1,0.5-1.3
				s0.8-0.5,1.3-0.5h0.1c1.4,0.2,2.7,0.8,3.7,1.8l3.3,3.3l0,0c1,1,1.1,2.6,0.2,3.7C120.2,552.9,119.5,553.2,118.6,553.3L118.6,553.3
				z M113.2,544.6c-0.2,0-0.3,0.1-0.5,0.2c-0.1,0.1-0.2,0.3-0.2,0.5v0.4c0.1,0.9,0.5,1.8,1.2,2.5l3.7,3.7c0.3,0.3,0.8,0.5,1.3,0.5
				s0.9-0.2,1.2-0.6c0.6-0.7,0.5-1.7-0.2-2.4l-3.3-3.3C115.6,545.3,114.5,544.7,113.2,544.6L113.2,544.6L113.2,544.6z"/>
		</g>
		<g>
			<path class="st10" d="M112.3,544.9c-0.1,0-0.3,0-0.3-0.1l-1.5-1.5c-0.2-0.2-0.2-0.5,0-0.7s0.5-0.2,0.7,0l1.5,1.5
				c0.2,0.2,0.2,0.5,0,0.7C112.6,544.8,112.5,544.9,112.3,544.9z"/>
		</g>
		<g>
			<path class="st10" d="M109,531.5c-0.1,0-0.3-0.1-0.4-0.2c-1.1-1.2-2.6-1.9-4.2-1.9c-0.3,0-0.5-0.2-0.5-0.5s0.2-0.5,0.5-0.5
				c1.9,0,3.6,0.8,5,2.2c0.2,0.2,0.2,0.5,0,0.7C109.3,531.4,109.1,531.5,109,531.5z"/>
		</g>
		<g>
			<path class="st10" d="M118.8,550.5c-0.1,0-0.3,0-0.3-0.1l-2.4-2.4c-0.2-0.2-0.2-0.5,0-0.7s0.5-0.2,0.7,0l2.4,2.4
				c0.2,0.2,0.2,0.5,0,0.7C119,550.4,118.9,550.5,118.8,550.5z"/>
		</g>
	</g>
	<g>
		<path class="st6" d="M461.9,41.7L458.5,52h-4.3l11-32.5h5.1l11,32.5h-4.5l-3.5-10.2L461.9,41.7L461.9,41.7z M472.5,38.5l-3.2-9.3
			c-0.7-2.1-1.2-4-1.7-5.9h-0.1c-0.5,1.9-1,3.9-1.6,5.9l-3.2,9.4L472.5,38.5L472.5,38.5z"/>
	</g>
	<g>
		<path class="st6" d="M457.5,91.9c1.8-0.4,4.7-0.7,7.7-0.7c4.2,0,6.9,0.7,8.9,2.4c1.7,1.3,2.7,3.2,2.7,5.7c0,3.1-2.1,5.9-5.5,7.1
			v0.1c3.1,0.8,6.7,3.3,6.7,8.1c0,2.8-1.1,4.9-2.7,6.5c-2.3,2.1-5.9,3-11.2,3c-2.9,0-5.1-0.2-6.5-0.4V91.9H457.5z M461.7,105.2h3.8
			c4.4,0,7-2.3,7-5.4c0-3.8-2.9-5.3-7.1-5.3c-1.9,0-3,0.1-3.7,0.3L461.7,105.2L461.7,105.2z M461.7,120.8c0.8,0.1,2,0.2,3.5,0.2
			c4.3,0,8.3-1.6,8.3-6.3c0-4.4-3.8-6.3-8.4-6.3h-3.5v12.4C461.6,120.8,461.7,120.8,461.7,120.8z"/>
	</g>
	<g>
		<path class="st6" d="M480,194.9c-1.5,0.8-4.6,1.5-8.6,1.5c-9.2,0-16-5.8-16-16.4c0-10.2,6.9-17.1,17-17.1c4,0,6.6,0.9,7.7,1.4
			l-1,3.4c-1.6-0.8-3.9-1.3-6.6-1.3c-7.6,0-12.7,4.9-12.7,13.4c0,8,4.6,13.1,12.5,13.1c2.6,0,5.2-0.5,6.8-1.3L480,194.9z"/>
	</g>
	<g>
		<path class="st6" d="M455.4,235.9c2.6-0.4,5.6-0.7,8.9-0.7c6,0,10.3,1.4,13.2,4c2.9,2.7,4.6,6.4,4.6,11.7c0,5.3-1.6,9.6-4.7,12.6
			c-3,3-8,4.7-14.4,4.7c-3,0-5.5-0.1-7.6-0.4V235.9z M459.6,264.6c1.1,0.2,2.6,0.2,4.2,0.2c9,0,13.8-5,13.8-13.8
			c0-7.7-4.3-12.5-13.2-12.5c-2.2,0-3.8,0.2-4.9,0.4v25.7H459.6z"/>
	</g>
	<g>
		<path class="st6" d="M475.4,324.7h-12.6v11.7h14.1v3.5h-18.3v-32.5h17.5v3.5h-13.3v10.3h12.6L475.4,324.7L475.4,324.7z"/>
	</g>
	<g>
		<path class="st6" d="M459,379.5h17.5v3.5h-13.3v10.8h12.3v3.5h-12.3V412H459V379.5z"/>
	</g>
	<g>
		<path class="st6" d="M481.1,482.5c-1.9,0.7-5.6,1.8-10,1.8c-4.9,0-9-1.3-12.1-4.3c-2.8-2.7-4.5-7-4.5-12.1
			c0-9.7,6.7-16.8,17.6-16.8c3.8,0,6.7,0.8,8.1,1.5l-1,3.4c-1.7-0.8-3.9-1.4-7.2-1.4c-7.9,0-13.1,4.9-13.1,13.1s5,13.1,12.5,13.1
			c2.7,0,4.6-0.4,5.6-0.9v-9.7h-6.6v-3.4h10.7V482.5z"/>
	</g>
	<g>
		<path class="st6" d="M455.3,536.7v-2.9h24.9v2.9H455.3z M455.3,546.2v-2.9h24.9v2.9H455.3z"/>
	</g>
	<g>
		<path class="st12" d="M409.9,310.7h4.1c2.2,0,4,1.8,4,4v22.8c0,2.2-1.8,4-4,4h-36c-2.2,0-4-1.8-4-4v-22.8c0-2.2,1.8-4,4-4h4"/>
		<line class="st12" x1="395.2" y1="310.7" x2="396.4" y2="310.7"/>
		<line class="st12" x1="394.7" y1="338.8" x2="397.3" y2="338.8"/>
		<line class="st12" x1="374" y1="336.3" x2="418" y2="336.3"/>
		<line class="st12" x1="391.8" y1="346.4" x2="392.2" y2="341.5"/>
		<line class="st12" x1="399.8" y1="341.5" x2="400.2" y2="346.4"/>
		<line class="st12" x1="387.4" y1="346.4" x2="404.6" y2="346.4"/>
		<path class="st12" d="M385.8,322.8c-1.5-0.5-2.8-1.6-3.6-3c-0.8-1.5-0.8-3.3-0.1-4.9c0.6-1.3,1.6-2.3,2.5-3.3s1.8-2.1,2.2-3.4
			c0.1-0.4,0.1-0.8,0.1-1.1c0-0.2,0-0.4,0-0.6c0,0-0.1-0.3,0-0.3c0,0,0.1,0,0.1,0.1c0.1,0,0.2,0.1,0.3,0.1c0.8,0.4,1.5,1,2.2,1.5
			c1.1,0.9,2,1.9,2.8,3.1c0.9,1.4,1.5,3,1.7,4.6c0.1,0.5,0.1,0.9,0.1,1.4c0,1.9-0.9,3.6-2.4,4.8c-0.6,0.5-1.2,0.8-1.8,1"/>
		<path class="st12" d="M390,322.7c0,0-0.7-0.3-2-0.3c-1.2,0-2.1,0.3-2.1,0.3l-0.9,3c0,0,1.1-0.3,2.9-0.3s2.9,0.3,2.9,0.3L390,322.7
			z"/>
		<path class="st12" d="M384.6,336.3c-0.7-2.8-0.9-6.3,0.4-10.6"/>
		<path class="st12" d="M390.9,325.8c1.3,4.3,1.1,7.8,0.4,10.6"/>
		<path class="st12" d="M384.6,319.3c-0.7-1.2-0.7-2.6-0.1-3.8c0.5-1,1.4-1.8,2.2-2.6"/>
		<path class="st12" d="M386.5,333.8c-0.2-1.6-0.1-3.3,0.2-5.2"/>
		<path class="st12" d="M407.8,336.3v-22.8c0-0.8-0.3-1.5-0.8-2.1l-4.2-5.3l-4,5.3c-0.4,0.6-0.7,1.3-0.7,2v22.9"/>
		<line class="st12" x1="407.8" y1="315.4" x2="398.1" y2="315.4"/>
		<line class="st12" x1="405.3" y1="309.2" x2="400.5" y2="309.2"/>
		<line class="st12" x1="404.9" y1="318.4" x2="404.9" y2="332.7"/>
		<line class="st12" x1="401.1" y1="318.4" x2="401.1" y2="332.7"/>
		<line class="st12" x1="381.9" y1="323.9" x2="382.1" y2="323.7"/>
		<line class="st12" x1="379.8" y1="326" x2="379.9" y2="325.9"/>
		<line class="st12" x1="379.9" y1="323.9" x2="379.8" y2="323.7"/>
		<line class="st12" x1="382.1" y1="326" x2="381.9" y2="325.9"/>
		<line class="st12" x1="382.7" y1="304.9" x2="382.8" y2="304.8"/>
		<line class="st12" x1="380.5" y1="307.1" x2="380.7" y2="306.9"/>
		<line class="st12" x1="380.7" y1="304.9" x2="380.5" y2="304.8"/>
		<line class="st12" x1="382.8" y1="307.1" x2="382.7" y2="306.9"/>
		<line class="st12" x1="411.4" y1="305.2" x2="411.5" y2="305.1"/>
		<line class="st12" x1="409.2" y1="307.4" x2="409.4" y2="307.2"/>
		<line class="st12" x1="409.4" y1="305.2" x2="409.2" y2="305.1"/>
		<line class="st12" x1="411.5" y1="307.4" x2="411.4" y2="307.2"/>
		<line class="st12" x1="411.7" y1="314.6" x2="412.3" y2="315.1"/>
		<line class="st12" x1="414.7" y1="317.5" x2="415.3" y2="318.1"/>
		<line class="st12" x1="411.7" y1="318.1" x2="412.3" y2="317.5"/>
		<line class="st12" x1="414.7" y1="315.1" x2="415.3" y2="314.6"/>
		<line class="st12" x1="412.8" y1="322.5" x2="412.9" y2="322.4"/>
		<line class="st12" x1="410.6" y1="324.7" x2="410.8" y2="324.5"/>
		<line class="st12" x1="410.8" y1="322.5" x2="410.6" y2="322.4"/>
		<line class="st12" x1="412.9" y1="324.7" x2="412.8" y2="324.5"/>
		<line class="st12" x1="393.7" y1="301.6" x2="394.3" y2="302.2"/>
		<line class="st12" x1="396.7" y1="304.6" x2="397.3" y2="305.1"/>
		<line class="st12" x1="393.7" y1="305.1" x2="394.3" y2="304.6"/>
		<line class="st12" x1="396.7" y1="302.2" x2="397.3" y2="301.6"/>
		<line class="st12" x1="378.6" y1="315.1" x2="378.8" y2="314.9"/>
		<line class="st12" x1="376.5" y1="317.2" x2="376.6" y2="317.1"/>
		<line class="st12" x1="376.6" y1="315.1" x2="376.5" y2="314.9"/>
		<line class="st12" x1="378.8" y1="317.2" x2="378.6" y2="317.1"/>
	</g>
	<path d="M252.3,397.6l1.9-1.9c0.1-0.1,0.1-0.4,0-0.5s-0.4-0.1-0.5,0l-1.6,1.6l-1.6-1.6c-0.1-0.1-0.4-0.1-0.5,0s-0.1,0.2-0.1,0.3
		c0,0.1,0,0.2,0.1,0.3l1.9,1.9C251.9,397.7,252.2,397.7,252.3,397.6z"/>
	<path class="st6" d="M401.4,394l-5.8-5.8c-0.9-0.9-2.5-0.9-3.3,0c-0.9,0.9-0.9,2.5,0,3.3l4,4l-4,4c-0.9,0.9-0.9,2.5,0,3.3
		c0.5,0.5,1.2,0.7,1.6,0.7c0.7,0,1.2-0.1,1.6-0.7l5.8-5.8c0.5-0.5,0.7-1.2,0.7-1.6C402.1,395.2,401.8,394.6,401.4,394z"/>
	<path class="st6" d="M319.3,393.8l5.8-5.8c0.9-0.9,2.5-0.9,3.3,0c0.9,0.9,0.9,2.5,0,3.3l-4,4l4,4c0.9,0.9,0.9,2.5,0,3.3
		c-0.5,0.5-1.2,0.7-1.6,0.7c-0.7,0-1.2-0.1-1.6-0.7l-5.8-5.8c-0.5-0.5-0.7-1.2-0.7-1.6C318.6,395,318.9,394.3,319.3,393.8z"/>
	<g>
		<path class="st4" d="M396.6,274.1c-1.1,0.3-2.3,0.1-3.3-0.4l-7.5-4.3c-1-0.6-1.7-1.5-2-2.6s-0.1-2.3,0.4-3.3l17.5-30.3
			c0.6-1,1.5-1.7,2.6-2s2.3-0.1,3.3,0.4l7.5,4.3c1,0.6,1.7,1.5,2,2.6s0.1,2.3-0.4,3.3l-17.5,30.3
			C398.6,273.1,397.7,273.8,396.6,274.1z M404.7,232.5c-0.7,0.2-1.4,0.7-1.7,1.3l-17.5,30.3c-0.4,0.7-0.5,1.4-0.3,2.2
			c0.2,0.7,0.7,1.4,1.3,1.7l7.5,4.3c0.7,0.4,1.4,0.5,2.2,0.3c0.7-0.2,1.4-0.7,1.7-1.3l17.5-30.3c0.4-0.7,0.5-1.4,0.3-2.2
			c-0.2-0.7-0.7-1.4-1.3-1.7l-7.5-4.3C406.3,232.4,405.5,232.3,404.7,232.5z"/>
		
			<rect x="393.4" y="253.8" transform="matrix(0.5004 -0.8658 0.8658 0.5004 -28.096 471.0965)" class="st4" width="1.5" height="12.2"/>
	</g>
	<g>
		<path class="st4" d="M378,268.6c-0.2,0-0.5-0.2-0.5-0.4c-0.1-0.3,0.1-0.6,0.4-0.7l0.2-0.1c0.3-0.1,0.6,0.1,0.7,0.4
			s-0.1,0.6-0.4,0.7l-0.2,0.1C378.1,268.6,378.1,268.6,378,268.6z"/>
		<path class="st4" d="M381.5,267.6c-0.2,0-0.4-0.2-0.5-0.4c-0.1-0.3,0.1-0.6,0.4-0.7l0.2-0.1c0.3-0.1,0.6,0.1,0.7,0.4
			s-0.1,0.6-0.4,0.7l-0.2,0.1C381.6,267.6,381.6,267.6,381.5,267.6z"/>
		<path class="st4" d="M380.5,269.9c-0.2,0-0.5-0.2-0.5-0.4l-0.1-0.2c-0.1-0.3,0.1-0.6,0.4-0.7s0.6,0.1,0.7,0.4l0.1,0.2
			c0.1,0.3-0.1,0.6-0.4,0.7C380.6,269.9,380.5,269.9,380.5,269.9z"/>
		<path class="st4" d="M379.4,266.4c-0.2,0-0.5-0.2-0.5-0.4l-0.1-0.2c-0.1-0.3,0.1-0.6,0.4-0.7s0.6,0.1,0.7,0.4l0.1,0.2
			c0.1,0.3-0.1,0.6-0.4,0.7C379.5,266.4,379.5,266.4,379.4,266.4z"/>
		<path class="st4" d="M379.5,258.6c-0.2,0-0.4-0.2-0.5-0.4l-0.3-0.9c-0.1-0.3,0.1-0.6,0.4-0.7s0.6,0.1,0.7,0.4l0.3,0.9
			c0.1,0.3-0.1,0.6-0.4,0.7C379.6,258.6,379.5,258.6,379.5,258.6z"/>
		<path class="st4" d="M378,253.7c-0.2,0-0.5-0.2-0.5-0.4l-0.3-0.9c-0.1-0.3,0.1-0.6,0.4-0.7c0.3-0.1,0.6,0.1,0.7,0.4l0.3,0.9
			c0.1,0.3-0.1,0.6-0.4,0.7C378.1,253.7,378.1,253.7,378,253.7z"/>
		<path class="st4" d="M380.6,255.1c-0.2,0-0.4-0.2-0.5-0.4c-0.1-0.3,0.1-0.6,0.4-0.7l0.9-0.3c0.3-0.1,0.6,0.1,0.7,0.4
			c0.1,0.3-0.1,0.6-0.4,0.7l-0.9,0.3C380.7,255.1,380.6,255.1,380.6,255.1z"/>
		<path class="st4" d="M375.7,256.5c-0.2,0-0.5-0.2-0.5-0.4c-0.1-0.3,0.1-0.6,0.4-0.7l0.9-0.3c0.3-0.1,0.6,0.1,0.7,0.4
			c0.1,0.3-0.1,0.6-0.4,0.7l-0.9,0.3C375.8,256.5,375.8,256.5,375.7,256.5z"/>
		<path class="st4" d="M384.9,248.5c-0.2,0-0.5-0.2-0.5-0.4c-0.1-0.3,0.1-0.6,0.4-0.7l0.2-0.1c0.3-0.1,0.6,0.1,0.7,0.4
			c0.1,0.3-0.1,0.6-0.4,0.7l-0.2,0.1C385,248.5,384.9,248.5,384.9,248.5z"/>
		<path class="st4" d="M388.4,247.5c-0.2,0-0.4-0.2-0.5-0.4c-0.1-0.3,0.1-0.6,0.4-0.7l0.2-0.1c0.3-0.1,0.6,0.1,0.7,0.4
			c0.1,0.3-0.1,0.6-0.4,0.7l-0.2,0.1C388.5,247.5,388.5,247.5,388.4,247.5z"/>
		<path class="st4" d="M387.3,249.9c-0.2,0-0.5-0.2-0.5-0.4l-0.1-0.2c-0.1-0.3,0.1-0.6,0.4-0.7c0.3-0.1,0.6,0.1,0.7,0.4l0.1,0.2
			c0.1,0.3-0.1,0.6-0.4,0.7C387.4,249.9,387.4,249.9,387.3,249.9z"/>
		<path class="st4" d="M386.3,246.3c-0.2,0-0.5-0.2-0.5-0.4l-0.1-0.2c-0.1-0.3,0.1-0.6,0.4-0.7c0.3-0.1,0.6,0.1,0.7,0.4l0.1,0.2
			c0.1,0.3-0.1,0.6-0.4,0.7C386.4,246.3,386.3,246.3,386.3,246.3z"/>
	</g>
	<path class="st6" d="M325.8,403l-6.1-6.1c-0.8-0.8-0.8-2,0-2.8l6.1-6.1c1.3-1.3,3.4-0.4,3.4,1.4v12.3
		C329.2,403.4,327,404.3,325.8,403z"/>
	<path class="st6" d="M395.1,403l6.1-6.1c0.8-0.8,0.8-2,0-2.8l-6.1-6.1c-1.3-1.3-3.4-0.4-3.4,1.4v12.3
		C391.7,403.4,393.9,404.3,395.1,403z"/>
	<g>
		<g>
			<circle class="st5" cx="395.4" cy="537.6" r="21.4"/>
		</g>
		<g>
			<g>
				<path class="st13" d="M390.6,531.4h-3.2c-0.3,0-0.5-0.1-0.5-0.5c0-0.3,0.1-0.5,0.5-0.5h3.2c0.3,0,0.5-0.1,0.5-0.5v-3.2
					c0-0.3,0.1-0.5,0.5-0.5s0.5,0.1,0.5,0.5v3.2C391.9,530.8,391.3,531.4,390.6,531.4z"/>
			</g>
			<g>
				<path class="st13" d="M400.1,534.6h-9.1c-0.3,0-0.5-0.1-0.5-0.5s0.1-0.5,0.5-0.5h9.1c0.3,0,0.5,0.1,0.5,0.5
					C400.5,534.4,400.4,534.6,400.1,534.6z"/>
			</g>
			<g>
				<path class="st13" d="M396.3,543h-5.4c-0.3,0-0.5-0.1-0.5-0.5c0-0.3,0.1-0.5,0.5-0.5h5.4c0.3,0,0.5,0.1,0.5,0.5
					C396.8,542.8,396.7,543,396.3,543z"/>
			</g>
			<g>
				<path class="st13" d="M400.1,540.2h-9.1c-0.3,0-0.5-0.1-0.5-0.5c0-0.3,0.1-0.5,0.5-0.5h9.1c0.3,0,0.5,0.1,0.5,0.5
					C400.5,540,400.4,540.2,400.1,540.2z"/>
			</g>
			<g>
				<path class="st13" d="M400.1,537.5h-9.1c-0.3,0-0.5-0.1-0.5-0.5c0-0.3,0.1-0.5,0.5-0.5h9.1c0.3,0,0.5,0.1,0.5,0.5
					C400.5,537.2,400.4,537.5,400.1,537.5z"/>
			</g>
			<g>
				<path class="st13" d="M402.2,548.8h-13.4c-1.2,0-1.9-0.9-1.9-1.9V531c0-0.1,0.1-0.4,0.1-0.5l4.1-4.1c0.1-0.1,0.3-0.1,0.5-0.1
					h10.7c1.2,0,1.9,0.9,1.9,1.9V547C404.1,548,403.2,548.8,402.2,548.8z M387.8,531.1V547c0,0.5,0.5,1,1,1h13.4c0.5,0,1-0.5,1-1
					v-18.6c0-0.5-0.5-1-1-1h-10.6L387.8,531.1z M391.8,527.2L391.8,527.2L391.8,527.2z"/>
			</g>
		</g>
	</g>
	<g>
		<g>
			<circle class="st6" cx="326.5" cy="538" r="21.4"/>
		</g>
	</g>
	<g>
		<g>
			<path class="st13" d="M323.1,534h-8.5c-0.3,0-0.4-0.1-0.4-0.4s0.1-0.4,0.4-0.4h8.5c0.3,0,0.4,0.1,0.4,0.4
				C323.6,533.7,323.3,534,323.1,534z"/>
		</g>
		<g>
			<path class="st13" d="M323.1,539.1h-8.5c-0.3,0-0.4-0.1-0.4-0.4s0.1-0.4,0.4-0.4h8.5c0.3,0,0.4,0.1,0.4,0.4
				C323.6,538.9,323.3,539.1,323.1,539.1z"/>
		</g>
		<g>
			<path class="st13" d="M323.1,541.7h-8.5c-0.3,0-0.4-0.1-0.4-0.4s0.1-0.4,0.4-0.4h8.5c0.3,0,0.4,0.1,0.4,0.4
				C323.6,541.4,323.3,541.7,323.1,541.7z"/>
		</g>
		<g>
			<path class="st13" d="M323.1,536.6h-8.5c-0.3,0-0.4-0.1-0.4-0.4s0.1-0.4,0.4-0.4h8.5c0.3,0,0.4,0.1,0.4,0.4
				C323.5,536.3,323.3,536.6,323.1,536.6z"/>
		</g>
		<g>
			<path class="st13" d="M326.5,548.4c-0.1,0-0.3-0.1-0.4-0.1c-2-2.8-10.4-0.9-13.4-0.1h-0.1c-1.1,0-1.7-0.8-1.7-1.7l-0.1-17.3
				c0-1.1,0.8-1.7,1.7-1.7h12.6c1.1,0,1.7,0.8,1.7,1.7l0.1,18.9c0,0.1-0.1,0.4-0.4,0.4C326.8,548.4,326.6,548.4,326.5,548.4z
				 M312.4,528.2c-0.5,0-0.9,0.4-0.9,0.9l0.1,17.3c0,0.5,0.4,0.9,0.8,0.9c0.9-0.3,10.1-2.8,13.6-0.4l-0.1-17.8l0,0
				c0-0.5-0.4-0.9-0.9-0.9H312.4L312.4,528.2z M326.8,529L326.8,529L326.8,529z"/>
		</g>
		<g>
			<path class="st13" d="M338.4,534h-8.5c-0.3,0-0.4-0.1-0.4-0.4s0.1-0.4,0.4-0.4h8.5c0.3,0,0.4,0.1,0.4,0.4
				C338.9,533.7,338.7,534,338.4,534z"/>
		</g>
		<g>
			<path class="st13" d="M335,541.7h-5c-0.3,0-0.4-0.1-0.4-0.4s0.1-0.4,0.4-0.4h5c0.3,0,0.4,0.1,0.4,0.4
				C335.4,541.4,335.1,541.7,335,541.7z"/>
		</g>
		<g>
			<path class="st13" d="M338.4,539.1h-8.5c-0.3,0-0.4-0.1-0.4-0.4s0.1-0.4,0.4-0.4h8.5c0.3,0,0.4,0.1,0.4,0.4
				C338.9,538.9,338.7,539.1,338.4,539.1z"/>
		</g>
		<g>
			<path class="st13" d="M338.4,536.6h-8.5c-0.3,0-0.4-0.1-0.4-0.4s0.1-0.4,0.4-0.4h8.5c0.3,0,0.4,0.1,0.4,0.4
				C338.9,536.3,338.7,536.6,338.4,536.6z"/>
		</g>
		<g>
			<path class="st13" d="M326.5,548.4c-0.1,0-0.1,0-0.3-0.1c-0.1-0.1-0.3-0.4-0.1-0.5c2.7-3.7,13.1-0.7,14.2-0.4
				c0.5,0,0.8-0.4,0.8-0.9l0.1-17.3c0-0.5-0.4-0.9-0.9-0.9l-12.7,0.1c-0.5,0-0.9,0.4-0.9,0.9c0,0.3-0.1,0.4-0.4,0.4
				c-0.3,0-0.4-0.1-0.4-0.4c0-1.1,0.8-1.7,1.7-1.7l12.7-0.1c1.1,0,1.7,0.8,1.7,1.7l-0.1,17.3c0,1.1-0.8,1.7-1.7,1.7
				c-0.1,0-0.1,0-0.1,0c-3.1-0.9-11.3-2.8-13.3,0.1C326.9,548.3,326.8,548.4,326.5,548.4z"/>
		</g>
	</g>
</g>
</svg>
