<?xml version="1.0" encoding="utf-8"?>
<!-- Generator: Adobe Illustrator 21.1.0, SVG Export Plug-In . SVG Version: 6.00 Build 0)  -->
<svg version="1.1" id="Capa_1" xmlns="http://www.w3.org/2000/svg" xmlns:xlink="http://www.w3.org/1999/xlink" x="0px" y="0px"
	 viewBox="0 0 40 41" style="enable-background:new 0 0 40 41;" xml:space="preserve">
<style type="text/css">
	.st0{display:none;}
	.st1{display:inline;}
	.st2{fill:#FFFFFF;stroke:#FFFFFF;stroke-width:0.5;stroke-miterlimit:10;}
	.st3{fill:#FFFFFF;}
	.st4{fill:#1CB3C8;}
</style>
<g id="Capa_1_1_" class="st0">
	<g class="st1">
		<g>
			<path class="st2" d="M16.8,38.9c-0.1,0-0.3,0-0.4,0s-0.4,0-0.5-0.3c-0.2-0.3,0-0.5,0.2-0.8s0.3-0.4,0.4-0.6
				c0.2-0.4,0.4-0.7,0.4-1.1c0.4-1.4,0.1-2.9-0.3-4.3l-0.1-0.4c-0.4-1.4-0.8-2.9-0.6-4.4c0.2-2.1,1.2-3.9,2.9-5.1
				c1.5-1.1,3.6-1.5,5.5-1.2c0.3,0.1,0.4,0.3,0.4,0.5c-0.1,0.3-0.3,0.4-0.5,0.4c-1.7-0.3-3.5,0.1-4.8,1c-1.4,1-2.4,2.7-2.5,4.4
				c-0.1,1.3,0.3,2.7,0.6,4l0.1,0.4c0.4,1.4,0.7,3.1,0.3,4.8c-0.1,0.4-0.3,0.9-0.5,1.3c-0.1,0.1-0.1,0.2-0.2,0.3
				c0.8,0,1.7-0.1,2.6-0.3c1.5-0.3,3-0.8,4.3-1.5c1.6-0.9,3-2.1,4-3.5c0.3-0.4,0.5-0.8,0.8-1.2c0.9-1.7,1-3.7,0.2-5.6
				c-0.3-0.7-0.7-1.3-1.2-1.9c-0.2-0.2-0.2-0.5,0-0.7s0.5-0.2,0.7,0c0.5,0.6,1,1.3,1.3,2.1c0.9,2.1,0.8,4.5-0.3,6.4
				c-0.3,0.4-0.5,0.9-0.9,1.3c-1.1,1.5-2.6,2.9-4.4,3.7c-1.3,0.7-2.9,1.2-4.5,1.6C18.9,38.8,17.9,38.9,16.8,38.9L16.8,38.9z"/>
		</g>
		<g>
			<path class="st2" d="M28.4,24.1C28.3,24.1,28.3,24.1,28.4,24.1c-0.1,0-1-0.1-2.3-0.8c-1.2-0.6-2.1-1.5-2.1-1.5
				c-0.1-0.1-0.2-0.3-0.1-0.4l0.7-3.5c0-0.2,0.2-0.3,0.4-0.4c0.2-0.1,0.4,0,0.4,0.1c0,0,0.9,0.9,2.7,1.8c1.7,1,2.9,1.2,2.9,1.2
				c0.2,0,0.3,0.2,0.4,0.4c0.1,0.2,0,0.4-0.1,0.4l-2.5,2.5C28.5,24.1,28.4,24.1,28.4,24.1z M24.8,21.2c0.3,0.3,0.9,0.8,1.7,1.2
				c0.8,0.4,1.4,0.6,1.7,0.7l1.8-1.8c-0.5-0.2-1.4-0.5-2.4-1.1c-1-0.5-1.8-1.1-2.2-1.4L24.8,21.2z"/>
		</g>
		<g>
			<path class="st2" d="M30.8,21.6c-0.1,0-0.3-0.1-0.4-0.2c-0.2-0.2-0.2-0.5,0-0.7c7.5-7.5,6.6-15.4,6.2-17.5
				C34.8,4,27.6,7.7,25.5,18c-0.1,0.3-0.4,0.4-0.5,0.4c-0.3-0.1-0.4-0.3-0.4-0.5C27.2,5.3,36.9,2.1,37,2.1s0.3,0,0.4,0
				c0.1,0.1,0.2,0.2,0.3,0.3c0,0.1,2.7,10-6.3,19C31,21.5,30.9,21.6,30.8,21.6z"/>
		</g>
		<g>
			<path class="st2" d="M19.8,32.1c-0.2,0-0.4-0.1-0.4-0.4l-0.1-0.3c-0.4-1.2-0.8-2.3-0.7-3.6c0.1-1.7,1-3.2,2.4-4.1
				c0.3-0.2,0.5-0.1,0.6,0.2c0.2,0.3,0.1,0.5-0.2,0.6c-1.2,0.7-1.9,2-2,3.4c-0.1,1.1,0.4,2.1,0.7,3.3l0.1,0.3
				c0.1,0.3-0.1,0.5-0.3,0.6C19.9,32.1,19.9,32.1,19.8,32.1z"/>
		</g>
		<g>
			<path class="st2" d="M28.2,16.6c-0.1,0-0.1,0-0.2,0c-0.3-0.1-0.4-0.4-0.3-0.6c0.6-2,1.6-3.7,2.7-5.4c0.2-0.2,0.4-0.3,0.6-0.1
				s0.3,0.4,0.1,0.6c-1.1,1.5-1.9,3.3-2.6,5.2C28.5,16.4,28.4,16.6,28.2,16.6z"/>
		</g>
		<g>
			<path class="st2" d="M7.4,37.9c-0.2,0-0.4,0-0.6-0.1c-1.2-0.5-1.1-2-0.8-3.3c0.3-1.4,0.4-2.3-0.4-2.7c-1.2-0.6-2.9,0.1-2.9,0.1
				c-0.3,0.1-0.5,0-0.6-0.3c-0.1-0.3,0-0.5,0.3-0.6c0.1,0,2.1-0.8,3.7,0c1.4,0.7,1.2,2.4,0.9,3.7C6.8,36,6.7,36.8,7.2,37
				c0.6,0.3,1.4-0.4,2.3-1.3c1.1-1,2.2-2.1,3.7-2.1c0.4,0,0.9,0.3,1.2,0.6c0.7,1,0.3,2.9,0.3,3.1c-0.1,0.3-0.4,0.4-0.6,0.4
				c-0.3-0.1-0.4-0.4-0.4-0.6c0.2-0.6,0.3-1.8-0.1-2.3c-0.1-0.1-0.3-0.2-0.4-0.2c-1.1-0.1-2.1,0.9-3,1.8C9.3,37.1,8.4,37.9,7.4,37.9
				z"/>
		</g>
	</g>
</g>
<g id="Capa_3" class="st0">
	<g class="st1">
		<g>
			<path class="st2" d="M20.3,38.9c-0.9,0.3-2,0.1-2.8-0.3l-6.4-3.7c-0.9-0.5-1.5-1.3-1.7-2.2c-0.3-0.9-0.1-2,0.3-2.8l15-26
				C25.2,3,26,2.4,26.9,2.1s2-0.1,2.8,0.3l6.4,3.7c0.9,0.5,1.5,1.3,1.7,2.2c0.3,0.9,0.1,2-0.3,2.8l-15,26
				C22.1,38,21.3,38.6,20.3,38.9z M27.3,3.2c-0.6,0.2-1.2,0.6-1.5,1.1l-15,26c-0.3,0.6-0.4,1.2-0.3,1.9c0.2,0.6,0.6,1.2,1.1,1.5
				l6.4,3.7c0.6,0.3,1.2,0.4,1.9,0.3c0.6-0.2,1.2-0.6,1.5-1.1l15-26c0.3-0.6,0.4-1.2,0.3-1.9c-0.2-0.6-0.6-1.2-1.1-1.5l-6.4-3.7
				C28.6,3.1,28,3.1,27.3,3.2z"/>
			
				<rect x="17.6" y="21.5" transform="matrix(0.5004 -0.8658 0.8658 0.5004 -13.9977 29.1759)" class="st2" width="1.3" height="10.5"/>
		</g>
		<g>
			<path class="st2" d="M4.4,34.2C4.2,34.2,4,34,4,33.8c-0.1-0.3,0.1-0.5,0.3-0.6l0.2-0.1C4.8,33,5,33.2,5.1,33.4
				C5.2,33.7,5,34,4.7,34.1L4.4,34.2C4.5,34.2,4.5,34.2,4.4,34.2z"/>
			<path class="st2" d="M7.4,33.3c-0.2,0-0.3-0.2-0.4-0.3c-0.1-0.3,0.1-0.5,0.3-0.6l0.2-0.1c0.3-0.1,0.5,0.1,0.6,0.3
				c0.1,0.3-0.1,0.5-0.3,0.6l-0.2,0.1C7.5,33.3,7.5,33.3,7.4,33.3z"/>
			<path class="st2" d="M6.5,35.3c-0.2,0-0.4-0.2-0.4-0.3L6,34.8c-0.1-0.3,0.1-0.5,0.3-0.6s0.5,0.1,0.6,0.3L7,34.7
				c0.1,0.3-0.1,0.5-0.3,0.6C6.6,35.3,6.5,35.3,6.5,35.3z"/>
			<path class="st2" d="M5.6,32.3c-0.2,0-0.4-0.2-0.4-0.3l-0.1-0.2c-0.1-0.3,0.1-0.5,0.3-0.6s0.5,0.1,0.6,0.3l0.1,0.2
				C6.2,32,6,32.2,5.8,32.3C5.7,32.3,5.7,32.3,5.6,32.3z"/>
			<path class="st2" d="M5.7,25.6c-0.2,0-0.3-0.2-0.4-0.3L5,24.5c-0.1-0.3,0.1-0.5,0.3-0.6c0.3-0.1,0.5,0.1,0.6,0.3L6.2,25
				c0.1,0.3-0.1,0.5-0.3,0.6C5.8,25.6,5.7,25.6,5.7,25.6z"/>
			<path class="st2" d="M4.4,21.4c-0.2,0-0.4-0.2-0.4-0.3l-0.3-0.8C3.6,20,3.8,19.8,4,19.7c0.3-0.1,0.5,0.1,0.6,0.3l0.3,0.8
				c0.1,0.3-0.1,0.5-0.3,0.6C4.5,21.4,4.5,21.4,4.4,21.4z"/>
			<path class="st2" d="M6.6,22.6c-0.2,0-0.3-0.2-0.4-0.3c-0.1-0.3,0.1-0.5,0.3-0.6l0.8-0.3c0.3-0.1,0.5,0.1,0.6,0.3
				C8,22,7.8,22.3,7.6,22.3l-0.8,0.3C6.7,22.6,6.6,22.6,6.6,22.6z"/>
			<path class="st2" d="M2.4,23.8c-0.2,0-0.4-0.2-0.4-0.3c-0.1-0.3,0.1-0.5,0.3-0.6l0.8-0.3c0.3-0.1,0.5,0.1,0.6,0.3
				c0.1,0.3-0.1,0.5-0.3,0.6l-0.8,0.3C2.5,23.8,2.5,23.8,2.4,23.8z"/>
			<path class="st2" d="M10.3,16.9c-0.2,0-0.4-0.2-0.4-0.3c-0.1-0.3,0.1-0.5,0.3-0.6l0.2-0.1c0.3-0.1,0.5,0.1,0.6,0.3
				c0.1,0.3-0.1,0.5-0.3,0.6l-0.2,0.1C10.4,16.9,10.3,16.9,10.3,16.9z"/>
			<path class="st2" d="M13.3,16.1c-0.2,0-0.3-0.2-0.4-0.3c-0.1-0.3,0.1-0.5,0.3-0.6l0.2-0.1c0.3-0.1,0.5,0.1,0.6,0.3
				c0.1,0.3-0.1,0.5-0.3,0.6l-0.2,0.1C13.4,16.1,13.4,16.1,13.3,16.1z"/>
			<path class="st2" d="M12.4,18.1c-0.2,0-0.4-0.2-0.4-0.3l-0.1-0.2c-0.1-0.3,0.1-0.5,0.3-0.6c0.3-0.1,0.5,0.1,0.6,0.3l0.1,0.2
				c0.1,0.3-0.1,0.5-0.3,0.6C12.5,18.1,12.5,18.1,12.4,18.1z"/>
			<path class="st2" d="M11.5,15.1c-0.2,0-0.4-0.2-0.4-0.3L11,14.5c-0.1-0.3,0.1-0.5,0.3-0.6c0.3-0.1,0.5,0.1,0.6,0.3l0.1,0.2
				c0.1,0.3-0.1,0.5-0.3,0.6C11.6,15.1,11.5,15.1,11.5,15.1z"/>
		</g>
	</g>
</g>
<g id="Capa_4" class="st0">
	<g class="st1">
		<rect x="13.4" y="22.8" class="st2" width="1.4" height="6"/>
		<rect x="13.4" y="18.8" class="st2" width="1.4" height="2.6"/>
		<path class="st2" d="M26.7,38.8H13.4c-0.7,0-1.4-0.6-1.4-1.4V36c0-0.6,0.3-1.2,0.7-1.6l2.8-2.4c0.3-0.3,0.5-0.6,0.5-1V8.1H9.5
			c-0.4,0-0.7,0.1-1,0.4L6,11c-0.3,0.3-0.7,0.5-1.2,0.5c-0.9,0-1.6-0.7-1.6-1.6V4.2c0-1.1,0.9-2,2-2h29.3c1.1,0,2,0.9,2,2v5.7
			c0,0.9-0.7,1.6-1.6,1.6c-0.4,0-0.8-0.2-1.2-0.5l-2.5-2.5c-0.3-0.3-0.6-0.4-1-0.4H24v23.1c0,0.4,0.2,0.8,0.5,1l2.8,2.4
			c0.5,0.4,0.7,1,0.7,1.6v1.4C28,38.2,27.4,38.8,26.7,38.8z M9.5,6.8h7.8v24.4c0,0.8-0.4,1.6-1,2.1l-2.8,2.4
			c-0.2,0.1-0.2,0.3-0.2,0.5v1.4h13.3v-1.4c0-0.2-0.1-0.4-0.2-0.5l-2.8-2.4c-0.6-0.5-1-1.3-1-2.1V6.8h7.8c0.7,0,1.4,0.3,1.9,0.8
			l2.5,2.5c0.2,0.2,0.5,0,0.5-0.2V4.2c0-0.4-0.3-0.7-0.7-0.7H5.3c-0.4,0-0.7,0.3-0.7,0.7v5.7c0,0.2,0.3,0.4,0.5,0.2l2.5-2.5
			C8.1,7.1,8.8,6.8,9.5,6.8z"/>
		<polygon class="st2" points="30.7,32.1 29.4,32.1 29.4,33.5 30.7,33.5 		"/>
		<polygon class="st2" points="30.7,34.9 29.4,34.9 29.4,36.2 30.7,36.2 		"/>
		<polygon class="st2" points="30.7,37.5 29.4,37.5 29.4,38.8 30.7,38.8 		"/>
	</g>
</g>
<g id="Capa_5" class="st0">
	<g class="st1">
		<g>
			<path class="st2" d="M31.3,9c-0.1,0-0.3,0-0.5,0c-0.6,0.1-1.1,0.3-1.6,0.6V8.9c0-1.7-1.2-3.2-2.9-3.4c-0.1,0-0.2,0-0.3,0
				c-0.7,0-1.3,0.2-1.9,0.6c-0.1-1.6-1.3-2.9-3-3.1c-0.1,0-0.3,0-0.4,0c-1.8,0-3.3,1.4-3.4,3.2c-0.4-0.3-1-0.5-1.5-0.6
				c-0.1,0-0.4,0-0.5,0c-1.9,0-3.5,1.5-3.5,3.4v11.4l-0.7-0.7c-0.6-0.6-1.4-1-2.3-1s-1.7,0.3-2.3,1C5.2,21,5.2,23,6.4,24.4l7.2,9.4
				l0.2,2c0.1,1.2,1.1,2.2,2.3,2.2h13.1c1.2,0,2.2-0.9,2.3-2l0.3-2.4c1-1.6,1.7-3.8,2.1-6.4c0.4-2.3,0.5-5,0.5-8.1v-6.5
				C34.5,10.5,33.1,9,31.3,9z M30,35.6c0,0.4-0.4,0.7-0.7,0.7H16.2l0,0c-0.4,0-0.7-0.3-0.7-0.7l-0.2-2.5l0,0l-7.5-9.9
				c-0.7-0.7-0.7-1.8,0-2.5c0.3-0.3,0.8-0.5,1.2-0.5c0.5,0,0.9,0.2,1.2,0.5l2.1,2c0.2,0.2,0.1,0.2,0.3,0.2c0.4,0,0.6-0.3,0.6-0.8
				V8.8c0-1,1-1.8,2-1.8c0.1,0,0,0,0.1,0c0.9,0.1,1.4,0.9,1.4,1.8v9.1c0,0.5,0.4,0.9,0.9,0.9s0.9-0.4,0.9-0.9V6.3c0-1,1-1.8,2-1.8
				c0.1,0,0,0,0.1,0c0.9,0.1,1.5,0.9,1.5,1.8V18c0,0.5,0.4,0.9,0.9,0.9s0.9-0.4,0.9-0.9V8.8c0-1,1-1.8,2-1.8c0.1,0,0,0,0.1,0
				c0.9,0.1,1.5,0.9,1.5,1.8v9.1c0,0.5,0.8,1,1.3,1l0,0c0.5,0,0.5-0.5,0.5-0.9v-5.6c0-0.9,0.8-1.7,1.7-1.8c0.1,0,0,0,0.1,0
				c1,0,1.7,0.8,1.7,1.8v6.5c0,5.6-0.5,10.7-2.5,13.8c-0.1,0.1,0,0.2,0,0.3L30,35.6z"/>
		</g>
		<g>
			<g>
				<path class="st2" d="M7.6,10C7.3,10,7,9.8,6.9,9.5c-0.2-0.4,0-0.9,0.4-1L8.4,8c0.4-0.2,0.9,0,1,0.4c0.2,0.4,0,0.9-0.4,1L7.9,9.9
					C7.8,10,7.7,10,7.6,10z"/>
			</g>
			<g>
				<path class="st2" d="M10.3,6C10,6,9.7,5.8,9.6,5.5L9.1,4.4c-0.2-0.4,0-0.9,0.4-1c0.4-0.2,0.9,0,1,0.4L11,4.9
					c0.2,0.4,0,0.9-0.4,1C10.5,6,10.4,6,10.3,6z"/>
			</g>
		</g>
	</g>
</g>
<g id="Capa_6" class="st0">
	<g class="st1">
		<path class="st2" d="M4.7,36.3c-0.2,0-0.5-0.1-0.8-0.3c-0.4-0.4-0.4-1.1,0-1.5L34.5,3.8c0.4-0.4,1.1-0.4,1.5,0s0.4,1.1,0,1.5
			L5.5,36C5.2,36.2,5,36.3,4.7,36.3z"/>
		<g>
			<polyline class="st2" points="6.2,36.7 7,37.5 8.7,35.8 8,35 			"/>
			<polygon class="st2" points="8.8,34.1 9.6,35 10.4,34.1 9.6,33.4 			"/>
			<polygon class="st2" points="10.4,32.6 11.2,33.4 12,32.6 11.2,31.8 			"/>
		</g>
	</g>
</g>
<g id="Capa_7" class="st0">
	<g class="st1">
		<path class="st3" d="M19.9,38.8c-10.1,0-18.2-8.2-18.2-18.3S10,2.2,19.9,2.2s18.3,8.2,18.3,18.2S30,38.8,19.9,38.8z M19.9,4.4
			C11,4.4,3.7,11.6,3.7,20.6S11,36.8,19.9,36.8s16.2-7.3,16.2-16.2C36.3,11.6,28.9,4.4,19.9,4.4z"/>
		<path class="st3" d="M27.9,13c-0.2,0-0.4-0.1-0.6-0.3l-0.2-0.2c-0.2-0.3-0.1-0.7,0.2-1.1c0.3-0.2,0.7-0.1,1.1,0.2l0.2,0.2
			c0.2,0.3,0.1,0.7-0.2,1.1C28.2,12.9,28,13,27.9,13z"/>
		<path class="st3" d="M25.2,9.2c-0.2,0-0.4-0.1-0.6-0.3l-0.2-0.2c-0.2-0.3-0.2-0.7,0.2-1.1c0.3-0.2,0.7-0.2,1.1,0.2L25.8,8
			C26,8.4,26,8.8,25.6,9.1C25.5,9.2,25.3,9.2,25.2,9.2z"/>
		<path class="st3" d="M28.2,9.7c-0.2,0-0.4-0.1-0.6-0.3c-0.2-0.3-0.2-0.7,0.2-1.1L28,8.1c0.3-0.2,0.7-0.2,1.1,0.2
			c0.2,0.3,0.2,0.7-0.2,1.1l-0.2,0.2C28.5,9.6,28.4,9.7,28.2,9.7z"/>
		<path class="st3" d="M24.5,12.3c-0.2,0-0.4-0.1-0.6-0.3c-0.2-0.3-0.1-0.7,0.2-1.1l0.2-0.2c0.3-0.2,0.7-0.1,1.1,0.2
			c0.2,0.3,0.1,0.7-0.2,1.1L25,12.2C24.8,12.3,24.6,12.3,24.5,12.3z"/>
	</g>
</g>
<g id="Capa_8" class="st0">
	<g class="st1">
		<path class="st2" d="M30.6,37.8c-0.2,0-0.3,0-0.4-0.1L20,32.3L9.8,37.7c-0.3,0.2-0.7,0.1-1-0.1c-0.3-0.2-0.4-0.6-0.4-0.9l1.9-11.4
			l-8.3-8c-0.3-0.3-0.4-0.6-0.2-1c0.1-0.3,0.4-0.6,0.8-0.7L14,13.9l5.1-10.3c0.2-0.3,0.5-0.5,0.9-0.5s0.7,0.2,0.9,0.5L26,13.9
			l11.4,1.7c0.4,0.1,0.7,0.3,0.8,0.7s0,0.7-0.2,1l-8.3,8l1.9,11.4c0.1,0.4-0.1,0.7-0.4,0.9C31,37.8,30.8,37.8,30.6,37.8z M19.9,30.3
			c0.2,0,0.3,0,0.4,0.1l8.9,4.7l-1.7-9.9c-0.1-0.3,0.1-0.6,0.3-0.9l7.2-7l-10-1.4c-0.3,0-0.6-0.2-0.7-0.5l-4.5-9l-4.5,9
			c-0.1,0.3-0.4,0.5-0.7,0.5l-10,1.4l7.2,7c0.2,0.2,0.3,0.5,0.3,0.9l-1.7,9.9l8.9-4.7C19.6,30.3,19.8,30.3,19.9,30.3z"/>
		<polygon class="st2" points="37,14.6 37.1,13.6 33.9,13.1 33.7,14.2 		"/>
		<polygon class="st2" points="32.7,14 32.8,13 31.8,12.8 31.7,13.9 		"/>
		<polygon class="st2" points="30.6,13.7 30.8,12.7 29.7,12.6 29.6,13.6 		"/>
		<polygon class="st2" points="13.8,25.4 12.8,25.2 12.6,26.3 13.7,26.4 		"/>
		<polygon class="st2" points="13.5,27.5 12.5,27.3 12.3,29 13.3,29.2 		"/>
	</g>
</g>
<g id="Capa_9" class="st0">
</g>
<g id="Capa_10" class="st0">
	<g class="st1">
		<g>
			<path class="st4" d="M33.2,14.4H6.7c-1.8,0-3.2-1.4-3.2-3.2S4.9,8,6.7,8h26.6c1.8,0,3.2,1.4,3.2,3.2S35,14.4,33.2,14.4z M6.7,9.4
				c-1,0-1.9,0.8-1.9,1.9s0.8,1.9,1.9,1.9h26.6c1,0,1.9-0.8,1.9-1.9s-0.8-1.9-1.9-1.9H6.7z"/>
		</g>
		<g>
			<path class="st4" d="M25.6,9.4c-0.3,0-0.7-0.3-0.7-0.7c0-2.8-2.3-5.1-5.1-5.1s-5.1,2.3-5.1,5.1c0,0.3-0.3,0.7-0.7,0.7
				s-0.7-0.3-0.7-0.7c0-3.5,2.9-6.4,6.4-6.4s6.4,2.9,6.4,6.4C26.3,9.1,26.1,9.4,25.6,9.4z"/>
		</g>
		<g>
			<path class="st4" d="M27.1,38.7H12.8c-1.9,0-3.4-1.3-3.6-3.2L6.6,13.8c-0.1-0.3,0.3-0.7,0.6-0.8c0.3,0,0.7,0.3,0.8,0.7l2.5,21.6
				c0.2,1.2,1.1,2,2.3,2h14.3c1.2,0,2.2-0.8,2.3-2l2.5-21.6c0.1-0.3,0.3-0.6,0.8-0.6c0.3,0.1,0.6,0.3,0.6,0.8l-2.5,21.6
				C30.5,37.3,28.9,38.7,27.1,38.7z"/>
		</g>
		<g>
			<path class="st4" d="M13.6,35.7c-0.3,0-0.6-0.3-0.7-0.6l-1.5-18.2c0-0.3,0.3-0.7,0.6-0.7s0.7,0.3,0.7,0.6l1.5,18.1
				C14.3,35.2,14,35.6,13.6,35.7C13.7,35.7,13.6,35.7,13.6,35.7z"/>
		</g>
		<g>
			<path class="st4" d="M26.3,35.7C26.2,35.7,26.2,35.7,26.3,35.7c-0.4,0-0.7-0.3-0.7-0.7l1.5-18.1c0-0.3,0.3-0.7,0.7-0.6
				c0.3,0,0.6,0.3,0.6,0.7l-1.5,18.1C26.9,35.4,26.7,35.7,26.3,35.7z"/>
		</g>
		<g>
			<path class="st4" d="M17.6,35.7c-0.3,0-0.7-0.3-0.7-0.7l-0.6-18.1c0-0.3,0.3-0.7,0.7-0.7c0.3,0,0.7,0.3,0.7,0.7L18.3,35
				C18.3,35.3,18,35.6,17.6,35.7L17.6,35.7z"/>
		</g>
		<g>
			<path class="st4" d="M22.3,35.7L22.3,35.7c-0.4,0-0.7-0.3-0.7-0.7l0.6-18.1c0-0.3,0.3-0.7,0.7-0.7c0.3,0,0.7,0.3,0.7,0.7L22.9,35
				C22.9,35.3,22.6,35.7,22.3,35.7z"/>
		</g>
	</g>
</g>
<g id="Capa_11">
	<g>
		<g>
			<path class="st3" d="M25,36.9c-5.5,0-10.4-3.2-12.7-8.2H10c-0.3,0-0.6-0.2-0.6-0.6s0.2-0.6,0.6-0.6h2.5c0.2,0,0.5,0.2,0.6,0.4
				c2,4.7,6.6,7.8,11.8,7.8c7,0,12.8-5.7,12.8-12.8S32,10.1,24.9,10.1c-5.1,0-9.7,3.1-11.8,7.8c-0.1,0.2-0.3,0.4-0.6,0.4H5
				c-0.3,0-0.6-0.2-0.6-0.6s0.2-0.6,0.6-0.6h7.2c2.3-5,7.2-8.2,12.7-8.2c7.7,0,14,6.3,14,14S32.7,36.9,25,36.9z"/>
		</g>
		<g>
			<path class="st3" d="M25.1,10.1c-0.3,0-0.6-0.2-0.6-0.6v-3c0-0.3,0.2-0.6,0.6-0.6s0.6,0.2,0.6,0.6v3
				C25.6,9.9,25.4,10.1,25.1,10.1z"/>
		</g>
		<g>
			<path class="st3" d="M12.2,21.6H8.4c-0.3,0-0.6-0.2-0.6-0.6s0.2-0.6,0.6-0.6h3.8c0.3,0,0.6,0.2,0.6,0.6S12.5,21.6,12.2,21.6z"/>
		</g>
		<g>
			<path class="st3" d="M12.2,25H7c-0.3,0-0.6-0.2-0.6-0.6s0.2-0.6,0.6-0.6h5.1c0.3,0,0.6,0.2,0.6,0.6C12.8,24.8,12.5,25,12.2,25z"
				/>
		</g>
		<g>
			<path class="st3" d="M6.4,21.6H1.6C1.3,21.6,1,21.4,1,21s0.2-0.6,0.6-0.6h4.7C6.7,20.3,7,20.6,7,21S6.7,21.6,6.4,21.6z"/>
		</g>
		<g>
			<path class="st3" d="M6.6,28.7h-4c-0.3,0-0.6-0.2-0.6-0.6s0.2-0.6,0.6-0.6h4c0.3,0,0.6,0.2,0.6,0.6C7.3,28.5,6.9,28.7,6.6,28.7z"
				/>
		</g>
		<g>
			<path class="st3" d="M25,14.2c-0.3,0-0.6-0.2-0.6-0.6v-0.2c0-0.3,0.2-0.6,0.6-0.6s0.6,0.2,0.6,0.6v0.2C25.5,14,25.3,14.2,25,14.2
				z"/>
		</g>
		<g>
			<path class="st3" d="M25,33c-0.3,0-0.6-0.2-0.6-0.6v-0.2c0-0.3,0.2-0.6,0.6-0.6s0.6,0.2,0.6,0.6v0.2C25.5,32.8,25.3,33,25,33z"/>
		</g>
		<g>
			<path class="st3" d="M15.7,23.5h-0.2c-0.3,0-0.6-0.2-0.6-0.6s0.2-0.6,0.6-0.6h0.2c0.3,0,0.6,0.2,0.6,0.6S16,23.5,15.7,23.5z"/>
		</g>
		<g>
			<path class="st3" d="M34.5,23.5h-0.2c-0.3,0-0.6-0.2-0.6-0.6s0.2-0.6,0.6-0.6h0.2c0.3,0,0.6,0.2,0.6,0.6S34.8,23.5,34.5,23.5z"/>
		</g>
		<g>
			<path class="st3" d="M20.4,15.5c-0.2,0-0.4-0.1-0.5-0.3L19.8,15c-0.2-0.3-0.1-0.6,0.2-0.8c0.3-0.2,0.6-0.1,0.8,0.2l0.2,0.2
				c0.2,0.3,0.1,0.6-0.2,0.8C20.6,15.5,20.5,15.5,20.4,15.5z"/>
		</g>
		<g>
			<path class="st3" d="M29.7,31.7c-0.2,0-0.4-0.1-0.6-0.3L29,31.2c-0.2-0.3-0.1-0.6,0.2-0.8c0.3-0.2,0.6-0.1,0.8,0.2l0.2,0.2
				c0.2,0.3,0.1,0.6-0.2,0.8C29.9,31.7,29.8,31.7,29.7,31.7z"/>
		</g>
		<g>
			<path class="st3" d="M16.8,28.3c-0.2,0-0.4-0.1-0.6-0.3c-0.2-0.3-0.1-0.6,0.2-0.8l0.2-0.2c0.3-0.2,0.6-0.1,0.8,0.2
				c0.2,0.3,0.1,0.6-0.2,0.8L17,28.2C17,28.3,16.8,28.3,16.8,28.3z"/>
		</g>
		<g>
			<path class="st3" d="M33,18.9c-0.2,0-0.4-0.1-0.6-0.3c-0.2-0.3-0.1-0.6,0.2-0.8l0.2-0.2c0.3-0.2,0.6-0.1,0.8,0.2
				c0.2,0.3,0.1,0.6-0.2,0.8l-0.2,0.2C33.2,18.8,33.1,18.9,33,18.9z"/>
		</g>
		<g>
			<path class="st3" d="M29.6,15.5c-0.1,0-0.2,0-0.3-0.1c-0.3-0.2-0.4-0.6-0.2-0.8l0.2-0.2c0.2-0.3,0.6-0.4,0.8-0.2
				c0.3,0.2,0.4,0.6,0.2,0.8l-0.2,0.2C30,15.4,29.8,15.5,29.6,15.5z"/>
		</g>
		<g>
			<path class="st3" d="M20.2,31.7c-0.1,0-0.2,0-0.3-0.1c-0.3-0.2-0.4-0.6-0.2-0.8l0.2-0.2c0.2-0.3,0.6-0.4,0.8-0.2
				c0.3,0.2,0.4,0.6,0.2,0.8l-0.2,0.2C20.6,31.7,20.5,31.7,20.2,31.7z"/>
		</g>
		<g>
			<path class="st3" d="M17,18.9c-0.1,0-0.2,0-0.3-0.1l-0.2-0.2c-0.3-0.2-0.4-0.6-0.2-0.8c0.2-0.3,0.6-0.4,0.8-0.2l0.2,0.2
				c0.3,0.2,0.4,0.6,0.2,0.8C17.4,18.8,17.1,18.9,17,18.9z"/>
		</g>
		<g>
			<path class="st3" d="M33.2,28.3c-0.1,0-0.2,0-0.3-0.1L32.7,28c-0.3-0.2-0.4-0.6-0.2-0.8c0.2-0.3,0.6-0.4,0.8-0.2l0.2,0.2
				c0.3,0.2,0.4,0.6,0.2,0.8C33.6,28.2,33.4,28.3,33.2,28.3z"/>
		</g>
		<g>
			<path class="st3" d="M25,23.5c-0.2,0-0.3-0.1-0.4-0.2L20.3,19c-0.2-0.2-0.2-0.6,0-0.9c0.2-0.2,0.6-0.2,0.9,0l4,4l3.6-2.1
				c0.3-0.2,0.6-0.1,0.8,0.2c0.2,0.3,0.1,0.6-0.2,0.8l-4,2.3C25.2,23.5,25.1,23.5,25,23.5z"/>
		</g>
		<g>
			<g>
				<path class="st3" d="M15.5,13.5c-0.2,0-0.3-0.1-0.4-0.2l-1.4-1.4c-0.2-0.2-0.2-0.6,0-0.9c0.2-0.2,0.6-0.2,0.9,0l1.4,1.4
					c0.2,0.2,0.2,0.6,0,0.9C15.8,13.5,15.6,13.5,15.5,13.5z"/>
			</g>
			<g>
				<path class="st3" d="M13.2,12.9c-0.2,0-0.3-0.1-0.4-0.2c-0.2-0.2-0.2-0.6,0-0.9l1.7-1.7c0.2-0.2,0.6-0.2,0.9,0
					c0.2,0.2,0.2,0.6,0,0.9l-1.7,1.7C13.5,12.8,13.3,12.9,13.2,12.9z"/>
			</g>
		</g>
		<g>
			<g>
				<path class="st3" d="M34.5,13.5c-0.2,0-0.3-0.1-0.4-0.2c-0.2-0.2-0.2-0.6,0-0.9l1.4-1.4c0.2-0.2,0.6-0.2,0.9,0
					c0.2,0.2,0.2,0.6,0,0.9L35,13.3C34.8,13.5,34.6,13.5,34.5,13.5z"/>
			</g>
			<g>
				<path class="st3" d="M36.8,12.9c-0.2,0-0.3-0.1-0.4-0.2L34.7,11c-0.2-0.2-0.2-0.6,0-0.9c0.2-0.2,0.6-0.2,0.9,0l1.7,1.7
					c0.2,0.2,0.2,0.6,0,0.9C37.1,12.8,36.9,12.9,36.8,12.9z"/>
			</g>
		</g>
		<g>
			<path class="st3" d="M27,7h-4.1c-0.8,0-1.4-0.6-1.4-1.4s0.6-1.4,1.4-1.4H27c0.8,0,1.4,0.6,1.4,1.4S27.8,7,27,7z"/>
		</g>
	</g>
</g>
</svg>
