<?xml version="1.0" encoding="utf-8"?>
<!-- Generator: Adobe Illustrator 21.1.0, SVG Export Plug-In . SVG Version: 6.00 Build 0)  -->
<svg version="1.1" id="Capa_1" xmlns="http://www.w3.org/2000/svg" xmlns:xlink="http://www.w3.org/1999/xlink" x="0px" y="0px"
	 viewBox="0 0 63.8 65" style="enable-background:new 0 0 63.8 65;" xml:space="preserve">
<style type="text/css">
	.st0{fill:#3C415E;}
	.st1{fill:#FFFFFF;}
</style>
<g>
	<circle class="st0" cx="31.9" cy="32.5" r="26.6"/>
	<g>
		<path class="st1" d="M27.2,18.4c-0.6,0-0.9,0.6-0.9,1.3v2.6c0,0.7,0.4,1.3,0.9,1.3h18.9c0.6,0,0.9-0.6,0.9-1.3v-2.6
			c0-0.7-0.4-1.3-0.9-1.3H27.2z"/>
		<path class="st1" d="M27.2,30c-0.6,0-0.9,0.6-0.9,1.3v2.6c0,0.7,0.4,1.3,0.9,1.3h18.9c0.6,0,0.9-0.6,0.9-1.3v-2.6
			c0-0.7-0.4-1.3-0.9-1.3C46.1,30,27.2,30,27.2,30z"/>
		<path class="st1" d="M27.2,41.7c-0.6,0-0.9,0.6-0.9,1.3v2.6c0,0.7,0.4,1.3,0.9,1.3h18.9c0.6,0,0.9-0.6,0.9-1.3V43
			c0-0.7-0.4-1.3-0.9-1.3H27.2z"/>
		<path class="st1" d="M21,23.4c0.6,0,0.9-0.6,0.9-1.3v-2.6c0-0.7-0.4-1.3-0.9-1.3h-3.3c-0.6,0-0.9,0.6-0.9,1.3v2.6
			c0,0.7,0.4,1.3,0.9,1.3H21z"/>
		<path class="st1" d="M21,35c0.6,0,0.9-0.6,0.9-1.3v-2.5c0-0.7-0.4-1.3-0.9-1.3h-3.3c-0.6,0-0.9,0.6-0.9,1.3v2.6
			c0,0.7,0.4,1.3,0.9,1.3L21,35L21,35z"/>
		<path class="st1" d="M21,46.7c0.6,0,0.9-0.6,0.9-1.3v-2.6c0-0.7-0.4-1.3-0.9-1.3h-3.3c-0.6,0-0.9,0.6-0.9,1.3v2.6
			c0,0.7,0.4,1.3,0.9,1.3H21z"/>
	</g>
</g>
</svg>
