<?xml version="1.0" encoding="utf-8"?>
<!-- Generator: Adobe Illustrator 21.1.0, SVG Export Plug-In . SVG Version: 6.00 Build 0)  -->
<svg version="1.1" id="Capa_1" xmlns="http://www.w3.org/2000/svg" xmlns:xlink="http://www.w3.org/1999/xlink" x="0px" y="0px"
	 viewBox="0 0 30 31" style="enable-background:new 0 0 30 31;" xml:space="preserve">
<style type="text/css">
	.st0{fill:#F05C6C;}
	.st1{fill:#FFFFFF;}
</style>
<circle class="st0" cx="15" cy="15.5" r="13.7"/>
<g>
	<path class="st1" d="M6.5,13.4h5.7c0.4,0,0.6-0.3,0.6-0.6V7c0-0.4,0.3-0.6,0.6-0.6h2.9c0.4,0,0.6,0.3,0.6,0.6v5.7
		c0,0.4,0.3,0.6,0.6,0.6h5.7c0.4,0,0.6,0.3,0.6,0.6v2.9c0,0.4-0.3,0.6-0.6,0.6h-5.7c-0.4,0-0.6,0.3-0.6,0.6V24
		c0,0.4-0.3,0.6-0.6,0.6h-2.9c-0.4,0-0.6-0.3-0.6-0.6v-5.7c0-0.4-0.3-0.6-0.6-0.6H6.5c-0.4,0-0.6-0.3-0.6-0.6v-2.9
		C5.9,13.7,6.2,13.4,6.5,13.4z"/>
</g>
</svg>
