<?xml version="1.0" encoding="utf-8"?>
<!-- Generator: Adobe Illustrator 21.1.0, SVG Export Plug-In . SVG Version: 6.00 Build 0)  -->
<svg version="1.1" xmlns="http://www.w3.org/2000/svg" xmlns:xlink="http://www.w3.org/1999/xlink" x="0px" y="0px"
	 viewBox="0 0 40 40" style="enable-background:new 0 0 40 40;" xml:space="preserve">
<style type="text/css">
	.st0{display:none;}
	.st1{display:inline;fill:#280E81;stroke:#280E81;stroke-width:0.25;stroke-miterlimit:10;}
	.st2{fill:#FFFFFF;stroke:#FFFFFF;stroke-width:0.25;stroke-miterlimit:10;}
	.st3{fill:#23A9BE;}
</style>
<g id="Capa_2" class="st0">
	<rect class="st1" width="40" height="40"/>
</g>
<g id="Capa_1">
	<g>
		<path class="st2" d="M30.8-555.3l-4.4-4.4l2.1-1.5c1-0.7,1.4-1.7,1.3-2.6c-0.2-1-1-1.7-2.2-2l-14.9-3.9c-1.3-0.3-2.4,0-3.1,0.9
			c-0.6,0.7-0.7,1.6-0.4,2.6l4,14.8c0.3,1.4,1.3,2.1,2.4,2.1c0.8,0,1.6-0.5,2.2-1.2l1.5-2.1l4.4,4.4c0.1,0.1,0.2,0.1,0.3,0.1
			c0.1,0,0.3-0.1,0.3-0.1l6.3-6.2c0.1-0.1,0.1-0.2,0.1-0.3C30.9-555,30.9-555.2,30.8-555.3z M15.6-550.3c-0.7,0-1.3-0.6-1.5-1.5
			l-4-14.8c-0.2-0.7-0.1-1.3,0.3-1.8c0.4-0.6,1.3-0.8,2.1-0.6l14.9,3.9c0.8,0.2,1.3,0.7,1.5,1.3c0.1,0.6-0.2,1.2-0.9,1.7l-2.5,1.9
			c-0.1,0.1-0.2,0.2-0.2,0.3s0.1,0.3,0.1,0.3l4.5,4.4l-5.6,5.5l-4.5-4.4c-0.1-0.1-0.2-0.1-0.3-0.1h-0.1c-0.1,0-0.3,0.1-0.3,0.2
			l-1.8,2.5C16.6-550.7,16.1-550.3,15.6-550.3z"/>
		<g>
			<g>
				<path class="st2" d="M26.3-561.4l-0.4-0.6c0.4-0.3,0.6-0.7,0.6-1c-0.1-0.3-0.4-0.6-0.9-0.8l0.2-0.7c0.8,0.2,1.3,0.7,1.4,1.2
					C27.2-562.4,27-561.8,26.3-561.4z M25.1-563.8l-1.7-0.5l0.2-0.7l1.7,0.5L25.1-563.8z"/>
			</g>
		</g>
		<g>
			<polygon class="st2" points="10.9,-565.4 11.7,-565.6 12.3,-563.5 11.6,-563.2 			"/>
			<polygon class="st2" points="11.9,-562.2 12.6,-562.4 13,-561.3 12.3,-561.1 			"/>
		</g>
	</g>
	<g>
		<rect x="15.3" y="-504.4" class="st2" width="1" height="4.2"/>
		<rect x="15.3" y="-507.2" class="st2" width="1" height="1.9"/>
		<path class="st2" d="M24.8-493.1h-9.5c-0.5,0-1-0.4-1-1v-1c0-0.4,0.2-0.8,0.5-1.1l2-1.7c0.2-0.2,0.3-0.4,0.3-0.7v-16.2h-4.6
			c-0.3,0-0.5,0.1-0.7,0.3l-1.7,1.7c-0.2,0.2-0.5,0.3-0.8,0.3c-0.6,0-1.1-0.5-1.1-1.1v-4c0-0.8,0.6-1.4,1.4-1.4h20.8
			c0.8,0,1.4,0.6,1.4,1.4v4c0,0.6-0.5,1.1-1.1,1.1c-0.3,0-0.6-0.1-0.8-0.3l-1.7-1.7c-0.2-0.2-0.4-0.3-0.7-0.3h-4.6v16.2
			c0,0.3,0.1,0.6,0.3,0.7l2,1.7c0.3,0.3,0.5,0.7,0.5,1.1v1C25.7-493.6,25.3-493.1,24.8-493.1z M12.6-515.6h5.6v17.2
			c0,0.6-0.3,1.1-0.7,1.4l-2,1.7c-0.1,0.1-0.1,0.2-0.1,0.3v1h9.5v-1c0-0.1-0.1-0.3-0.1-0.3l-2-1.7c-0.4-0.3-0.7-0.9-0.7-1.4v-17.2
			h5.6c0.5,0,1,0.2,1.3,0.6l1.7,1.7c0.1,0.1,0.3,0,0.3-0.1v-4c0-0.3-0.2-0.5-0.5-0.5H9.6c-0.3,0-0.5,0.2-0.5,0.5v4
			c0,0.1,0.2,0.3,0.3,0.1l1.7-1.7C11.6-515.4,12-515.6,12.6-515.6z"/>
		<polygon class="st2" points="27.6,-497.8 26.6,-497.8 26.6,-496.9 27.6,-496.9 		"/>
		<polygon class="st2" points="27.6,-495.9 26.6,-495.9 26.6,-495 27.6,-495 		"/>
		<polygon class="st2" points="27.6,-494 26.6,-494 26.6,-493.1 27.6,-493.1 		"/>
	</g>
	<g>
		<g>
			<path class="st2" d="M15.4-436.2c-0.1,0-0.1,0-0.2-0.1c-0.1-0.1-0.1-0.1-0.2-0.3l-1-5.7c-0.1-0.7,0-1.5,0.4-2.1l10.9-19.6
				c0.9-1.6,3-2.2,4.5-1.3l2.2,1.1c1.7,0.9,2.2,2.9,1.3,4.5l-11,19.7l0,0c-0.4,0.6-0.9,1.1-1.6,1.4L15.4-436.2
				C15.6-436.3,15.5-436.2,15.4-436.2z M28.3-465.1c-0.9,0-1.8,0.5-2.3,1.4l-10.9,19.6c-0.3,0.5-0.4,1.1-0.3,1.6l0.9,5.2l4.8-2.1
				c0.5-0.2,0.9-0.6,1.2-1.1l11-19.7c0.7-1.2,0.2-2.8-1-3.5l-2.2-1.1C29.1-465,28.7-465.1,28.3-465.1z M22.1-440.2L22.1-440.2
				L22.1-440.2z"/>
		</g>
		<g>
			<path class="st2" d="M22.9-441.3c-0.1,0-0.1,0-0.2-0.1l-7.4-4c-0.2-0.1-0.3-0.4-0.1-0.5c0.1-0.2,0.4-0.3,0.5-0.1l7.4,4
				c0.2,0.1,0.3,0.4,0.1,0.5C23.2-441.4,23.1-441.3,22.9-441.3z"/>
		</g>
		<g>
			<path class="st2" d="M18.5-437.6c-0.1,0-0.1,0-0.2-0.1l-3.7-2c-0.2-0.1-0.3-0.4-0.1-0.5c0.1-0.2,0.4-0.3,0.5-0.1l3.7,2
				c0.2,0.1,0.3,0.4,0.1,0.5C18.7-437.7,18.7-437.6,18.5-437.6z"/>
		</g>
		<g>
			<path class="st2" d="M19-446.4c-0.1,0-0.1,0-0.2-0.1c-0.2-0.1-0.3-0.4-0.1-0.5l6-10.8c0.1-0.2,0.4-0.3,0.5-0.1
				c0.2,0.1,0.3,0.4,0.1,0.5l-6,10.8C19.2-446.5,19.1-446.4,19-446.4z"/>
		</g>
		<g>
			<path class="st2" d="M31.5-456.8c-0.1,0-0.1,0-0.2-0.1l-7.4-4c-0.2-0.1-0.3-0.4-0.1-0.5c0.1-0.2,0.4-0.3,0.5-0.1l7.4,4
				c0.2,0.1,0.3,0.4,0.1,0.5C31.8-456.9,31.7-456.8,31.5-456.8z"/>
		</g>
		<g>
			<path class="st2" d="M32.4-458.3c-0.1,0-0.1,0-0.2-0.1l-7.4-4c-0.2-0.1-0.3-0.4-0.1-0.5c0.1-0.2,0.4-0.3,0.5-0.1l7.4,4
				c0.2,0.1,0.3,0.4,0.1,0.5C32.7-458.4,32.5-458.3,32.4-458.3z"/>
		</g>
		<g>
			<path class="st2" d="M21.9-444.8c-0.1,0-0.1,0-0.2-0.1c-0.2-0.1-0.3-0.4-0.1-0.5l6-10.8c0.1-0.2,0.4-0.3,0.5-0.1
				c0.2,0.1,0.3,0.4,0.1,0.5l-6,10.8C22.2-444.9,22.1-444.8,21.9-444.8z"/>
		</g>
		<g>
			<path class="st2" d="M8.3-439.1c-0.1,0-0.3-0.1-0.4-0.3c-0.1-0.2,0.1-0.4,0.3-0.5l0.1-0.1c0.2-0.1,0.4,0.1,0.5,0.3
				c0.1,0.2-0.1,0.4-0.3,0.5l-0.1,0.1C8.4-439.1,8.4-439.1,8.3-439.1z"/>
		</g>
		<g>
			<path class="st2" d="M10.9-439.8c-0.1,0-0.3-0.1-0.4-0.3c-0.1-0.2,0.1-0.4,0.3-0.5l0.1-0.1c0.2-0.1,0.4,0.1,0.5,0.3
				c0.1,0.2-0.1,0.4-0.3,0.5l-0.1,0.1C10.9-439.8,10.9-439.8,10.9-439.8z"/>
		</g>
		<g>
			<path class="st2" d="M10.1-438.1c-0.1,0-0.3-0.1-0.4-0.3l-0.1-0.1c-0.1-0.2,0.1-0.4,0.3-0.5c0.2-0.1,0.4,0.1,0.5,0.3l0.1,0.1
				c0.1,0.2-0.1,0.4-0.3,0.5C10.2-438.1,10.1-438.1,10.1-438.1z"/>
		</g>
		<g>
			<path class="st2" d="M9.4-440.7c-0.1,0-0.3-0.1-0.4-0.3l-0.1-0.1c-0.1-0.2,0.1-0.4,0.3-0.5c0.2-0.1,0.4,0.1,0.5,0.3l0.1,0.1
				c0.1,0.2-0.1,0.4-0.3,0.5C9.4-440.7,9.4-440.7,9.4-440.7z"/>
		</g>
		<g>
			<path class="st2" d="M9.4-446.2c-0.1,0-0.3-0.1-0.4-0.3l-0.2-0.6c-0.1-0.2,0.1-0.4,0.3-0.5c0.2-0.1,0.4,0.1,0.5,0.3l0.2,0.6
				c0.1,0.2-0.1,0.4-0.3,0.5C9.5-446.2,9.4-446.2,9.4-446.2z"/>
		</g>
		<g>
			<path class="st2" d="M8.3-449.7c-0.1,0-0.3-0.1-0.4-0.3l-0.2-0.6c-0.1-0.2,0.1-0.4,0.3-0.5c0.2-0.1,0.4,0.1,0.5,0.3l0.2,0.6
				c0.1,0.2-0.1,0.4-0.3,0.5C8.4-449.7,8.4-449.7,8.3-449.7z"/>
		</g>
		<g>
			<path class="st2" d="M10.2-448.7c-0.1,0-0.3-0.1-0.4-0.3c-0.1-0.2,0.1-0.4,0.3-0.5l0.6-0.2c0.2-0.1,0.4,0.1,0.5,0.3
				c0.1,0.2-0.1,0.4-0.3,0.5l-0.6,0.2C10.3-448.7,10.2-448.7,10.2-448.7z"/>
		</g>
		<g>
			<path class="st2" d="M6.7-447.7c-0.1,0-0.3-0.1-0.4-0.3c-0.1-0.2,0.1-0.4,0.3-0.5l0.6-0.2c0.2-0.1,0.4,0.1,0.5,0.3
				c0.1,0.2-0.1,0.4-0.3,0.5l-0.6,0.2C6.8-447.7,6.8-447.7,6.7-447.7z"/>
		</g>
		<g>
			<path class="st2" d="M13.3-453.5c-0.1,0-0.3-0.1-0.4-0.3c-0.1-0.2,0.1-0.4,0.3-0.5l0.1-0.1c0.2-0.1,0.4,0.1,0.5,0.3
				c0.1,0.2-0.1,0.4-0.3,0.5l-0.1,0.1C13.4-453.5,13.3-453.5,13.3-453.5z"/>
		</g>
		<g>
			<path class="st2" d="M15.8-454.2c-0.1,0-0.3-0.1-0.4-0.3c-0.1-0.2,0.1-0.4,0.3-0.5l0.1-0.1c0.2-0.1,0.4,0.1,0.5,0.3
				c0.1,0.2-0.1,0.4-0.3,0.5l-0.1,0.1C15.9-454.2,15.9-454.2,15.8-454.2z"/>
		</g>
		<g>
			<path class="st2" d="M15.1-452.5c-0.1,0-0.3-0.1-0.4-0.3l-0.1-0.1c-0.1-0.2,0.1-0.4,0.3-0.5c0.2-0.1,0.4,0.1,0.5,0.3l0.1,0.1
				c0.1,0.2-0.1,0.4-0.3,0.5C15.1-452.5,15.1-452.5,15.1-452.5z"/>
		</g>
		<g>
			<path class="st2" d="M14.3-455c-0.1,0-0.3-0.1-0.4-0.3l-0.1-0.1c-0.1-0.2,0.1-0.4,0.3-0.5c0.2-0.1,0.4,0.1,0.5,0.3l0.1,0.1
				c0.1,0.2-0.1,0.4-0.3,0.5C14.4-455,14.3-455,14.3-455z"/>
		</g>
	</g>
	<g>
		<g>
			<path class="st2" d="M17.5-382.8c-0.1,0-0.2,0-0.3,0c-0.1,0-0.3,0-0.4-0.2c-0.1-0.2,0-0.4,0.1-0.6c0.1-0.2,0.2-0.3,0.3-0.5
				c0.1-0.3,0.3-0.6,0.3-0.8c0.3-1.1,0.1-2.3-0.2-3.3l-0.1-0.3c-0.3-1.1-0.6-2.2-0.5-3.4c0.1-1.6,1-3,2.3-3.9
				c1.2-0.8,2.8-1.2,4.3-0.9c0.2,0.1,0.3,0.2,0.3,0.4c-0.1,0.2-0.2,0.3-0.4,0.3c-1.3-0.2-2.7,0.1-3.8,0.8c-1.1,0.8-1.9,2.1-2,3.4
				c-0.1,1,0.2,2.1,0.5,3.1l0.1,0.3c0.3,1.1,0.6,2.4,0.2,3.7c-0.1,0.3-0.2,0.7-0.4,1c-0.1,0.1-0.1,0.1-0.1,0.2c0.6,0,1.3-0.1,2-0.2
				c1.2-0.2,2.4-0.6,3.4-1.2c1.3-0.7,2.4-1.6,3.1-2.7c0.2-0.3,0.4-0.6,0.6-1c0.7-1.3,0.8-2.9,0.1-4.3c-0.2-0.6-0.6-1-0.9-1.4
				c-0.1-0.1-0.1-0.4,0-0.6c0.1-0.1,0.4-0.1,0.6,0c0.4,0.5,0.8,1,1,1.7c0.7,1.7,0.6,3.5-0.2,5c-0.2,0.3-0.4,0.7-0.7,1
				c-0.8,1.2-2,2.2-3.4,2.9c-1,0.6-2.2,1-3.6,1.2C19.1-382.9,18.4-382.8,17.5-382.8L17.5-382.8z"/>
		</g>
		<g>
			<path class="st2" d="M26.5-394.2C26.5-394.2,26.5-394.2,26.5-394.2c-0.1,0-0.8-0.1-1.8-0.6c-1-0.5-1.6-1.2-1.6-1.2
				c-0.1-0.1-0.1-0.2-0.1-0.3l0.6-2.7c0-0.1,0.1-0.2,0.3-0.3c0.1-0.1,0.3,0,0.3,0.1c0,0,0.7,0.7,2.1,1.4c1.3,0.8,2.3,1,2.3,1
				c0.1,0,0.2,0.1,0.3,0.3c0.1,0.1,0,0.3-0.1,0.3l-2,1.9C26.7-394.2,26.6-394.2,26.5-394.2z M23.7-396.4c0.2,0.2,0.7,0.6,1.3,0.9
				c0.6,0.3,1.1,0.5,1.3,0.6l1.4-1.4c-0.4-0.1-1.1-0.4-1.9-0.8c-0.8-0.4-1.4-0.8-1.7-1.1L23.7-396.4z"/>
		</g>
		<g>
			<path class="st2" d="M28.5-396.2c-0.1,0-0.2-0.1-0.3-0.1c-0.1-0.1-0.1-0.4,0-0.6c5.9-5.8,5.2-11.9,4.9-13.5
				c-1.5,0.6-7.1,3.5-8.8,11.5c-0.1,0.2-0.3,0.3-0.4,0.3c-0.2-0.1-0.3-0.2-0.3-0.4c2-9.7,9.6-12.1,9.7-12.1s0.2,0,0.3,0
				c0.1,0.1,0.1,0.1,0.2,0.2c0,0.1,2.1,7.7-5,14.7C28.6-396.2,28.6-396.2,28.5-396.2z"/>
		</g>
		<g>
			<path class="st2" d="M19.8-388c-0.1,0-0.3-0.1-0.3-0.3l-0.1-0.2c-0.3-0.9-0.6-1.8-0.6-2.8c0.1-1.3,0.8-2.5,1.9-3.2
				c0.2-0.1,0.4-0.1,0.5,0.1c0.1,0.2,0.1,0.4-0.1,0.5c-0.9,0.6-1.5,1.5-1.5,2.6c-0.1,0.8,0.3,1.7,0.6,2.6l0.1,0.2
				c0.1,0.2-0.1,0.4-0.2,0.5C19.9-388,19.9-388,19.8-388z"/>
		</g>
		<g>
			<path class="st2" d="M26.4-400c-0.1,0-0.1,0-0.1,0c-0.2-0.1-0.3-0.3-0.2-0.5c0.5-1.5,1.3-2.9,2.1-4.1c0.1-0.1,0.3-0.2,0.5-0.1
				c0.1,0.1,0.2,0.3,0.1,0.5c-0.8,1.2-1.5,2.6-2,4C26.7-400.2,26.5-400,26.4-400z"/>
		</g>
		<g>
			<g>
				<path class="st2" d="M11.6-401.8c-0.1,0-0.2-0.1-0.3-0.1c-0.1-0.1-0.1-0.4,0-0.6l0.4-0.4c0.1-0.1,0.4-0.1,0.6,0
					c0.1,0.1,0.1,0.4,0,0.6l-0.4,0.4C11.8-401.8,11.7-401.8,11.6-401.8z"/>
			</g>
			<g>
				<path class="st2" d="M9.3-399.6c-0.1,0-0.2-0.1-0.3-0.1c-0.1-0.1-0.1-0.4,0-0.6l0.4-0.4c0.1-0.1,0.4-0.1,0.6,0
					c0.1,0.1,0.1,0.4,0,0.6l-0.4,0.4C9.5-399.6,9.4-399.6,9.3-399.6z"/>
			</g>
			<g>
				<path class="st2" d="M9.7-401.8c-0.1,0-0.2-0.1-0.3-0.1L9-402.4c-0.1-0.1-0.1-0.4,0-0.6c0.1-0.1,0.4-0.1,0.6,0l0.4,0.4
					c0.1,0.1,0.1,0.4,0,0.6C9.9-401.8,9.9-401.8,9.7-401.8z"/>
			</g>
			<g>
				<path class="st2" d="M12-399.6c-0.1,0-0.2-0.1-0.3-0.1l-0.4-0.4c-0.1-0.1-0.1-0.4,0-0.6c0.1-0.1,0.4-0.1,0.6,0l0.4,0.4
					c0.1,0.1,0.1,0.4,0,0.6C12.2-399.6,12.1-399.6,12-399.6z"/>
			</g>
		</g>
		<g>
			<path class="st2" d="M10.1-383.5c-0.1,0-0.3,0-0.5-0.1c-1-0.4-0.8-1.5-0.6-2.6c0.2-1.1,0.3-1.8-0.3-2.1c-1-0.5-2.3,0.1-2.3,0.1
				c-0.2,0.1-0.4,0-0.5-0.2c-0.1-0.2,0-0.4,0.2-0.5c0.1,0,1.7-0.6,2.9,0c1.1,0.6,0.9,1.9,0.7,2.9c-0.1,1-0.2,1.6,0.2,1.7
				c0.5,0.2,1.1-0.3,1.8-1c0.8-0.8,1.7-1.7,2.9-1.6c0.3,0,0.7,0.2,0.9,0.5c0.6,0.8,0.2,2.2,0.2,2.4c-0.1,0.2-0.3,0.3-0.5,0.3
				c-0.2-0.1-0.3-0.3-0.3-0.5c0.1-0.5,0.2-1.4-0.1-1.8c-0.1-0.1-0.2-0.1-0.3-0.1c-0.8-0.1-1.6,0.7-2.4,1.4
				C11.6-384.2,10.9-383.5,10.1-383.5z"/>
		</g>
		<g>
			<path class="st2" d="M13.3-391.4c-0.1,0-0.2-0.1-0.3-0.1l-0.1-0.1c-0.1-0.1-0.1-0.4,0-0.6c0.1-0.1,0.4-0.1,0.6,0l0.1,0.1
				c0.1,0.1,0.1,0.4,0,0.6C13.6-391.4,13.5-391.4,13.3-391.4z"/>
		</g>
		<g>
			<path class="st2" d="M11.7-393c-0.1,0-0.2-0.1-0.3-0.1l-0.1-0.1c-0.1-0.1-0.1-0.4,0-0.6c0.1-0.1,0.4-0.1,0.6,0l0.1,0.1
				c0.1,0.1,0.1,0.4,0,0.6C11.9-393.1,11.8-393,11.7-393z"/>
		</g>
		<g>
			<path class="st2" d="M13.3-393c-0.1,0-0.2-0.1-0.3-0.1c-0.1-0.1-0.1-0.4,0-0.6l0.1-0.1c0.1-0.1,0.4-0.1,0.6,0
				c0.1,0.1,0.1,0.4,0,0.6l-0.1,0.1C13.4-393.1,13.3-393,13.3-393z"/>
		</g>
		<g>
			<path class="st2" d="M11.6-391.4c-0.1,0-0.2-0.1-0.3-0.1c-0.1-0.1-0.1-0.4,0-0.6l0.1-0.1c0.1-0.1,0.4-0.1,0.6,0
				c0.1,0.1,0.1,0.4,0,0.6l-0.1,0.1C11.8-391.4,11.7-391.4,11.6-391.4z"/>
		</g>
	</g>
	<g>
		<g>
			<polygon class="st2" points="22.8,-355.3 22.8,-354.3 25.9,-354.3 25.9,-355.3 			"/>
			<polygon class="st2" points="26.9,-355.3 26.9,-354.3 27.9,-354.3 27.9,-355.3 			"/>
			<polygon class="st2" points="28.9,-355.3 28.9,-354.3 29.8,-354.3 29.8,-355.3 			"/>
		</g>
		<g>
			<path class="st2" d="M31.5-334H8.5c-0.3,0-0.6-0.3-0.6-0.6v-22.7c0-0.3,0.3-0.6,0.6-0.6h22.9c0.3,0,0.6,0.3,0.6,0.6v22.7
				C32.1-334.3,31.8-334,31.5-334z M9.2-335.3h21.6v-21.4H9.2V-335.3z"/>
		</g>
	</g>
	<g>
		<g>
			<path class="st2" d="M23.5-279.5c-4.9,0-9.4-2.7-11.4-7h-2c-0.3,0-0.6-0.2-0.6-0.5s0.2-0.5,0.6-0.5h2.3c0.2,0,0.4,0.1,0.5,0.3
				c1.8,4.1,6,6.8,10.6,6.8c6.3,0,11.5-4.9,11.5-11.1c0-6.2-5.1-11.1-11.5-11.1c-4.6,0-8.7,2.7-10.6,6.7c-0.1,0.2-0.3,0.3-0.5,0.3
				H5.6c-0.3,0-0.6-0.2-0.6-0.5c0-0.3,0.2-0.5,0.6-0.5h6.5c2.1-4.3,6.5-7,11.4-7c6.9,0,12.6,5.4,12.6,12.1S30.4-279.5,23.5-279.5z"
				/>
		</g>
		<g>
			<path class="st2" d="M23.6-302.6c-0.3,0-0.6-0.2-0.6-0.5v-2.6c0-0.3,0.2-0.5,0.6-0.5s0.6,0.2,0.6,0.5v2.6
				C24.1-302.8,23.9-302.6,23.6-302.6z"/>
		</g>
		<g>
			<path class="st2" d="M12-292.7H8.6c-0.3,0-0.6-0.2-0.6-0.5s0.2-0.5,0.6-0.5H12c0.3,0,0.6,0.2,0.6,0.5S12.3-292.7,12-292.7z"/>
		</g>
		<g>
			<path class="st2" d="M12-289.7H7.4c-0.3,0-0.6-0.2-0.6-0.5s0.2-0.5,0.6-0.5H12c0.3,0,0.6,0.2,0.6,0.5S12.3-289.7,12-289.7z"/>
		</g>
		<g>
			<path class="st2" d="M6.9-292.7H2.6c-0.3,0-0.6-0.2-0.6-0.5s0.2-0.5,0.6-0.5h4.3c0.3,0,0.6,0.2,0.6,0.5S7.1-292.7,6.9-292.7z"/>
		</g>
		<g>
			<path class="st2" d="M7.1-286.5H3.5c-0.3,0-0.6-0.2-0.6-0.5s0.2-0.5,0.6-0.5h3.6c0.3,0,0.6,0.2,0.6,0.5S7.4-286.5,7.1-286.5z"/>
		</g>
		<g>
			<path class="st2" d="M23.5-299c-0.3,0-0.6-0.2-0.6-0.5v-0.2c0-0.3,0.2-0.5,0.6-0.5s0.6,0.2,0.6,0.5v0.2
				C24-299.2,23.8-299,23.5-299z"/>
		</g>
		<g>
			<path class="st2" d="M23.5-282.8c-0.3,0-0.6-0.2-0.6-0.5v-0.2c0-0.3,0.2-0.5,0.6-0.5s0.6,0.2,0.6,0.5v0.2
				C24-283,23.8-282.8,23.5-282.8z"/>
		</g>
		<g>
			<path class="st2" d="M15.2-291H15c-0.3,0-0.6-0.2-0.6-0.5s0.2-0.5,0.6-0.5h0.2c0.3,0,0.6,0.2,0.6,0.5S15.5-291,15.2-291z"/>
		</g>
		<g>
			<path class="st2" d="M32.1-291h-0.2c-0.3,0-0.6-0.2-0.6-0.5s0.2-0.5,0.6-0.5h0.2c0.3,0,0.6,0.2,0.6,0.5S32.4-291,32.1-291z"/>
		</g>
		<g>
			<path class="st2" d="M19.4-297.9c-0.2,0-0.4-0.1-0.4-0.3l-0.1-0.2c-0.1-0.3-0.1-0.5,0.2-0.7c0.3-0.1,0.6-0.1,0.7,0.2l0.1,0.2
				c0.1,0.3,0.1,0.5-0.2,0.7C19.6-297.9,19.5-297.9,19.4-297.9z"/>
		</g>
		<g>
			<path class="st2" d="M27.8-283.9c-0.2,0-0.4-0.1-0.5-0.3l-0.1-0.2c-0.1-0.3-0.1-0.5,0.2-0.7c0.3-0.1,0.6-0.1,0.7,0.2l0.1,0.2
				c0.1,0.3,0.1,0.5-0.2,0.7C27.9-283.9,27.9-283.9,27.8-283.9z"/>
		</g>
		<g>
			<path class="st2" d="M16.2-286.9c-0.2,0-0.4-0.1-0.5-0.3c-0.1-0.3-0.1-0.5,0.2-0.7l0.2-0.1c0.3-0.1,0.6-0.1,0.7,0.2
				c0.1,0.3,0.1,0.5-0.2,0.7l-0.2,0.1C16.4-286.9,16.2-286.9,16.2-286.9z"/>
		</g>
		<g>
			<path class="st2" d="M30.7-295c-0.2,0-0.4-0.1-0.5-0.3c-0.1-0.3-0.1-0.5,0.2-0.7l0.2-0.1c0.3-0.1,0.6-0.1,0.7,0.2
				c0.1,0.3,0.1,0.5-0.2,0.7l-0.2,0.1C30.9-295.1,30.8-295,30.7-295z"/>
		</g>
		<g>
			<path class="st2" d="M27.7-297.9c-0.1,0-0.2,0-0.3-0.1c-0.3-0.1-0.4-0.5-0.2-0.7l0.1-0.2c0.1-0.3,0.5-0.3,0.7-0.2
				c0.3,0.1,0.4,0.5,0.2,0.7l-0.1,0.2C28-298,27.9-297.9,27.7-297.9z"/>
		</g>
		<g>
			<path class="st2" d="M19.3-283.9c-0.1,0-0.2,0-0.3-0.1c-0.3-0.1-0.4-0.5-0.2-0.7l0.1-0.2c0.1-0.3,0.5-0.3,0.7-0.2
				c0.3,0.1,0.4,0.5,0.2,0.7l-0.1,0.2C19.6-284,19.5-283.9,19.3-283.9z"/>
		</g>
		<g>
			<path class="st2" d="M16.4-295c-0.1,0-0.2,0-0.3-0.1l-0.2-0.1c-0.3-0.1-0.4-0.5-0.2-0.7c0.1-0.3,0.5-0.3,0.7-0.2l0.2,0.1
				c0.3,0.1,0.4,0.5,0.2,0.7C16.7-295.1,16.5-295,16.4-295z"/>
		</g>
		<g>
			<path class="st2" d="M30.9-286.9c-0.1,0-0.2,0-0.3-0.1l-0.2-0.1c-0.3-0.1-0.4-0.5-0.2-0.7c0.1-0.3,0.5-0.3,0.7-0.2l0.2,0.1
				c0.3,0.1,0.4,0.5,0.2,0.7C31.3-287,31.1-286.9,30.9-286.9z"/>
		</g>
		<g>
			<path class="st2" d="M23.5-291c-0.1,0-0.3-0.1-0.4-0.1l-3.8-3.8c-0.2-0.2-0.2-0.5,0-0.8s0.6-0.2,0.8,0l3.6,3.5l3.2-1.8
				c0.3-0.1,0.6-0.1,0.7,0.2c0.1,0.3,0.1,0.5-0.2,0.7l-3.6,2C23.8-291,23.6-291,23.5-291z"/>
		</g>
		<g>
			<g>
				<path class="st2" d="M15-299.7c-0.1,0-0.3-0.1-0.4-0.1l-1.3-1.2c-0.2-0.2-0.2-0.5,0-0.8c0.2-0.2,0.6-0.2,0.8,0l1.3,1.2
					c0.2,0.2,0.2,0.5,0,0.8C15.3-299.7,15.2-299.7,15-299.7z"/>
			</g>
			<g>
				<path class="st2" d="M13-300.2c-0.1,0-0.3-0.1-0.4-0.1c-0.2-0.2-0.2-0.5,0-0.8l1.5-1.5c0.2-0.2,0.6-0.2,0.8,0
					c0.2,0.2,0.2,0.5,0,0.8l-1.5,1.5C13.2-300.3,13.1-300.2,13-300.2z"/>
			</g>
		</g>
		<g>
			<g>
				<path class="st2" d="M32.1-299.7c-0.1,0-0.3-0.1-0.4-0.1c-0.2-0.2-0.2-0.5,0-0.8l1.3-1.2c0.2-0.2,0.6-0.2,0.8,0
					c0.2,0.2,0.2,0.5,0,0.8l-1.3,1.2C32.4-299.7,32.2-299.7,32.1-299.7z"/>
			</g>
			<g>
				<path class="st2" d="M34.1-300.2c-0.1,0-0.3-0.1-0.4-0.1l-1.5-1.5c-0.2-0.2-0.2-0.5,0-0.8s0.6-0.2,0.8,0l1.5,1.5
					c0.2,0.2,0.2,0.5,0,0.8C34.4-300.3,34.3-300.2,34.1-300.2z"/>
			</g>
		</g>
		<g>
			<path class="st2" d="M25.4-305.3h-3.7c-0.7,0-1.3-0.5-1.3-1.2s0.6-1.2,1.3-1.2h3.7c0.7,0,1.3,0.5,1.3,1.2S26.1-305.3,25.4-305.3z
				"/>
		</g>
	</g>
	<g>
		<path class="st2" d="M23-240.5c-1.1,0-2-0.9-2-2c0-1.1,0.9-2,2-2c1.1,0,2,0.9,2,2C25-241.4,24.1-240.5,23-240.5z M23-243.5
			c-0.6,0-1,0.4-1,1c0,0.6,0.4,1,1,1s1-0.4,1-1S23.5-243.5,23-243.5z"/>
		<path class="st2" d="M23-234.4l-7-6.9c-0.3-0.3-0.7-0.3-1,0l-4.2,4.1l-0.7-0.7l4.2-4.1c0.6-0.6,1.8-0.6,2.4,0l7,6.9L23-234.4z"/>
		<path class="st2" d="M29.1-234.2l-3.7-3.6c-0.3-0.3-0.7-0.3-1,0l-0.9,0.9l-0.7-0.7l0.9-0.9c0.6-0.6,1.8-0.6,2.4,0l3.7,3.6
			L29.1-234.2z"/>
		<path class="st2" d="M30.1-230H9.9V-250h20.1V-230z M10.9-231.1H29V-249H10.9V-231.1z"/>
		<rect x="9.9" y="-253.9" class="st2" width="1" height="3"/>
		<rect x="5.9" y="-250" class="st2" width="3" height="1"/>
		<rect x="29" y="-229" class="st2" width="1" height="3"/>
		<rect x="31" y="-231.1" class="st2" width="3" height="1"/>
		<polygon class="st2" points="32,-248 31,-248 31,-247 32,-247 		"/>
		<polygon class="st2" points="32,-246 31,-246 31,-245 32,-245 		"/>
		<polygon class="st2" points="32,-244 31,-244 31,-243 32,-243 		"/>
		<polygon class="st2" points="9,-237 7.9,-237 7.9,-236 9,-236 		"/>
		<polygon class="st2" points="9,-235 7.9,-235 7.9,-234 9,-234 		"/>
		<polygon class="st2" points="9,-233 7.9,-233 7.9,-232 9,-232 		"/>
	</g>
	<g>
		<g>
			<path class="st2" d="M25-175.7H7.7c-1.2,0-2.1-1-2.1-2.1V-193c0-0.1,0.1-0.3,0.2-0.5l4.6-4.6c0.1-0.1,0.3-0.2,0.5-0.2h14.2
				c1.2,0,2.1,1,2.1,2.1v3.7c0,0.2-0.2,0.4-0.4,0.4s-0.4-0.2-0.4-0.4v-3.7c0-0.7-0.6-1.2-1.3-1.2H11L6.5-193v15.2
				c0,0.7,0.6,1.2,1.3,1.2H25c0.7,0,1.3-0.6,1.3-1.2v-2.5c0-0.2,0.2-0.4,0.4-0.4s0.4,0.2,0.4,0.4v2.5
				C27.1-176.7,26.1-175.7,25-175.7z"/>
		</g>
		<g>
			<path class="st2" d="M10.1-192.8H6.4c-0.2,0-0.4-0.2-0.4-0.4c0-0.2,0.2-0.4,0.4-0.4h3.7c0.3,0,0.6-0.3,0.6-0.6v-3.7
				c0-0.2,0.2-0.4,0.4-0.4s0.4,0.2,0.4,0.4v3.7C11.6-193.4,10.9-192.8,10.1-192.8z"/>
		</g>
		<g>
			<g>
				<path class="st2" d="M23.2-189.9H9.4c-0.2,0-0.4-0.2-0.4-0.4s0.2-0.4,0.4-0.4h13.8c0.2,0,0.4,0.2,0.4,0.4S23.5-189.9,23.2-189.9
					z"/>
			</g>
			<g>
				<path class="st2" d="M17-183.4H9.4c-0.2,0-0.4-0.2-0.4-0.4c0-0.2,0.2-0.4,0.4-0.4H17c0.2,0,0.4,0.2,0.4,0.4
					C17.4-183.6,17.3-183.4,17-183.4z"/>
			</g>
			<g>
				<path class="st2" d="M20.3-185.6H9.4c-0.2,0-0.4-0.2-0.4-0.4s0.2-0.4,0.4-0.4h10.9c0.2,0,0.4,0.2,0.4,0.4S20.6-185.6,20.3-185.6
					z"/>
			</g>
			<g>
				<path class="st2" d="M22.2-187.8H9.5c-0.2,0-0.4-0.2-0.4-0.4s0.2-0.4,0.4-0.4h12.7c0.2,0,0.4,0.2,0.4,0.4S22.4-187.8,22.2-187.8
					z"/>
			</g>
		</g>
		<g>
			<path class="st2" d="M19.4-178.3c-0.1,0-0.2-0.1-0.3-0.1c-0.1-0.1-0.1-0.2-0.1-0.3l0.4-3.9c0-0.1,0.1-0.2,0.1-0.3l9.9-9.8
				c0.6-0.6,1.5-0.6,2.1,0l1.9,1.9c0.6,0.6,0.6,1.5,0,2.1l-9.9,9.8c-0.1,0.1-0.1,0.1-0.2,0.1L19.4-178.3
				C19.4-178.3,19.4-178.3,19.4-178.3z M20.2-182.3l-0.3,3.2l3.1-0.4l9.8-9.7c0.3-0.3,0.3-0.7,0-1l-1.9-1.9c-0.3-0.3-0.7-0.3-1,0
				L20.2-182.3z M23.2-179.2L23.2-179.2L23.2-179.2z"/>
		</g>
		<g>
			<path class="st2" d="M24.3-179.8c-0.1,0-0.2-0.1-0.3-0.1l-3.4-3.4c-0.1-0.1-0.1-0.4,0-0.6c0.1-0.1,0.4-0.1,0.6,0l3.4,3.4
				c0.1,0.1,0.1,0.4,0,0.6C24.5-179.8,24.4-179.8,24.3-179.8z"/>
		</g>
		<g>
			<path class="st2" d="M32.1-187.6c-0.1,0-0.2-0.1-0.3-0.1l-3.4-3.4c-0.1-0.1-0.1-0.4,0-0.6c0.1-0.1,0.4-0.1,0.6,0l3.4,3.4
				c0.1,0.1,0.1,0.4,0,0.6C32.3-187.7,32.3-187.6,32.1-187.6z"/>
		</g>
		<g>
			<path class="st2" d="M32.7-190.5c-0.1,0-0.2-0.1-0.3-0.1c-0.1-0.1-0.1-0.4,0-0.6l1-1l-0.5-0.5l-1,1c-0.1,0.1-0.4,0.1-0.6,0
				c-0.1-0.1-0.1-0.4,0-0.6l1.1-1.1c0.3-0.3,0.8-0.3,1,0l0.6,0.6c0.3,0.3,0.3,0.8,0,1l-1.1,1.1C32.9-190.6,32.8-190.5,32.7-190.5z"
				/>
		</g>
	</g>
	<g>
		<g>
			<g>
				<path class="st2" d="M28.5-123.7c-0.1,0-0.2,0-0.3-0.1l-8.2-5.7l-8.2,5.7c-0.1,0.1-0.3,0.1-0.5,0c-0.1-0.1-0.3-0.3-0.3-0.4
					v-21.6c0-0.1,0.1-0.3,0.1-0.3c0.1-0.1,0.2-0.1,0.3-0.1l17,0.3c0.3,0,0.5,0.2,0.5,0.5v21.3c0,0.2-0.1,0.3-0.3,0.4
					C28.7-123.7,28.7-123.7,28.5-123.7z M20-130.5c0.1,0,0.2,0,0.3,0.1l7.7,5.4V-145L12-145.3v20.2l7.7-5.4
					C19.9-130.5,19.9-130.5,20-130.5z"/>
			</g>
		</g>
		<g>
			<polygon class="st2" points="18.8,-144 18.8,-142.8 22.5,-142.8 22.5,-144 			"/>
			<polygon class="st2" points="23.8,-144 23.8,-142.8 25,-142.8 25,-144 			"/>
			<polygon class="st2" points="26.1,-144 26.1,-142.8 27.4,-142.8 27.4,-144 			"/>
		</g>
	</g>
	<g>
		<g>
			<path class="st2" d="M27.8-87.9c-0.1,0-0.2,0-0.3,0c-0.4,0.1-0.8,0.2-1.1,0.4v-0.5c0-1.2-0.8-2.2-2-2.3c-0.1,0-0.1,0-0.2,0
				c-0.5,0-0.9,0.1-1.3,0.4c-0.1-1.1-0.9-2-2.1-2.1c-0.1,0-0.2,0-0.3,0c-1.2,0-2.3,1-2.3,2.2c-0.3-0.2-0.7-0.3-1-0.4
				c-0.1,0-0.3,0-0.3,0c-1.3,0-2.4,1-2.4,2.3v7.8l-0.5-0.5c-0.4-0.4-1-0.7-1.6-0.7s-1.2,0.2-1.6,0.7c-0.9,0.9-0.9,2.3-0.1,3.2l5,6.4
				l0.1,1.4c0.1,0.8,0.8,1.5,1.6,1.5h9c0.8,0,1.5-0.6,1.6-1.4l0.2-1.6c0.7-1.1,1.2-2.6,1.4-4.4C29.9-77,30-78.8,30-81v-4.4
				C30-86.8,29.1-87.9,27.8-87.9z M26.9-69.7c0,0.3-0.3,0.5-0.5,0.5h-9l0,0c-0.3,0-0.5-0.2-0.5-0.5l-0.1-1.7l0,0l-5.2-6.8
				c-0.5-0.5-0.5-1.2,0-1.7c0.2-0.2,0.6-0.3,0.8-0.3c0.3,0,0.6,0.1,0.8,0.3l1.4,1.4c0.1,0.1,0.1,0.1,0.2,0.1c0.3,0,0.4-0.2,0.4-0.5
				V-88c0-0.7,0.7-1.2,1.4-1.2c0.1,0,0,0,0.1,0c0.6,0.1,1,0.6,1,1.2v6.2c0,0.3,0.3,0.6,0.6,0.6c0.3,0,0.6-0.3,0.6-0.6v-7.9
				c0-0.7,0.7-1.2,1.4-1.2c0.1,0,0,0,0.1,0c0.6,0.1,1,0.6,1,1.2v8c0,0.3,0.3,0.6,0.6,0.6c0.3,0,0.6-0.3,0.6-0.6V-88
				c0-0.7,0.7-1.2,1.4-1.2c0.1,0,0,0,0.1,0c0.6,0.1,1,0.6,1,1.2v6.2c0,0.3,0.6,0.7,0.9,0.7l0,0c0.3,0,0.3-0.3,0.3-0.6v-3.8
				c0-0.6,0.6-1.2,1.2-1.2c0.1,0,0,0,0.1,0c0.7,0,1.2,0.5,1.2,1.2v4.4c0,3.8-0.3,7.3-1.7,9.4c-0.1,0.1,0,0.1,0,0.2L26.9-69.7z"/>
		</g>
		<g>
			<g>
				<path class="st2" d="M11.5-87.2c-0.2,0-0.4-0.1-0.5-0.3c-0.1-0.3,0-0.6,0.3-0.7l0.8-0.3c0.3-0.1,0.6,0,0.7,0.3
					c0.1,0.3,0,0.6-0.3,0.7l-0.8,0.3C11.6-87.2,11.6-87.2,11.5-87.2z"/>
			</g>
			<g>
				<path class="st2" d="M13.3-89.9c-0.2,0-0.4-0.1-0.5-0.3L12.5-91c-0.1-0.3,0-0.6,0.3-0.7c0.3-0.1,0.6,0,0.7,0.3l0.3,0.8
					c0.1,0.3,0,0.6-0.3,0.7C13.5-89.9,13.4-89.9,13.3-89.9z"/>
			</g>
		</g>
	</g>
	<g>
		<g>
			<path class="st2" d="M30.4,15.3H9.5c-1.4,0-2.5-1.1-2.5-2.5s1.1-2.5,2.5-2.5h21c1.4,0,2.5,1.1,2.5,2.5S31.8,15.3,30.4,15.3z
				 M9.5,11.3C8.7,11.3,8,12,8,12.8c0,0.8,0.7,1.4,1.5,1.4h21c0.8,0,1.5-0.7,1.5-1.4c0-0.8-0.7-1.4-1.5-1.4H9.5z"/>
		</g>
		<g>
			<path class="st2" d="M24.5,11.3c-0.3,0-0.5-0.2-0.5-0.5c0-2.2-1.8-4-4-4s-4,1.8-4,4c0,0.3-0.2,0.5-0.5,0.5s-0.5-0.2-0.5-0.5
				c0-2.8,2.3-5,5.1-5S25,8,25,10.8C25,11,24.8,11.3,24.5,11.3z"/>
		</g>
		<g>
			<path class="st2" d="M25.6,34.2H14.3c-1.5,0-2.7-1.1-2.9-2.5l-2-16.9c-0.1-0.3,0.2-0.5,0.5-0.6c0.3-0.1,0.5,0.2,0.6,0.5l2,16.9
				c0.1,0.9,0.9,1.6,1.8,1.6h11.3c0.9,0,1.7-0.7,1.8-1.6l2-16.9c0.1-0.3,0.3-0.5,0.6-0.5c0.3,0.1,0.5,0.3,0.5,0.6l-2,16.9
				C28.3,33.2,27,34.2,25.6,34.2z"/>
		</g>
		<g>
			<path class="st2" d="M14.9,31.9c-0.3,0-0.5-0.2-0.5-0.5l-1.2-14.2c0-0.3,0.2-0.5,0.5-0.5c0.3,0,0.5,0.2,0.5,0.5l1.2,14.2
				C15.5,31.5,15.3,31.8,14.9,31.9C15,31.9,14.9,31.9,14.9,31.9z"/>
		</g>
		<g>
			<path class="st2" d="M25,31.9C24.9,31.9,24.9,31.9,25,31.9c-0.3,0-0.5-0.3-0.5-0.5l1.2-14.2c0-0.3,0.3-0.5,0.5-0.5
				c0.3,0,0.5,0.3,0.5,0.5l-1.2,14.2C25.4,31.7,25.3,31.9,25,31.9z"/>
		</g>
		<g>
			<path class="st2" d="M18.1,31.9c-0.3,0-0.5-0.2-0.5-0.5l-0.5-14.2c0-0.3,0.2-0.5,0.5-0.5c0.3,0,0.5,0.2,0.5,0.5l0.5,14.2
				C18.7,31.6,18.4,31.8,18.1,31.9L18.1,31.9z"/>
		</g>
		<g>
			<path class="st2" d="M21.8,31.9L21.8,31.9c-0.3,0-0.5-0.3-0.5-0.5l0.5-14.2c0-0.3,0.3-0.5,0.5-0.5c0.3,0,0.5,0.3,0.5,0.5
				l-0.5,14.2C22.3,31.6,22.1,31.9,21.8,31.9z"/>
		</g>
	</g>
	<g>
		<g>
			<path class="st3" d="M47.5-635.8c-0.1,0-0.4-0.1-0.5-0.2c-0.2-0.2-0.2-0.7,0-0.9l0.8-0.8c0.2-0.2,0.7-0.2,0.9,0
				c0.2,0.2,0.2,0.7,0,0.9l-0.8,0.8C47.8-635.9,47.7-635.8,47.5-635.8z"/>
		</g>
		<g>
			<path class="st3" d="M51.8-640c-0.1,0-0.4-0.1-0.5-0.2c-0.2-0.2-0.2-0.7,0-0.9l0.8-0.8c0.2-0.2,0.7-0.2,0.9,0
				c0.2,0.2,0.2,0.7,0,0.9l-0.8,0.8C52-640.1,51.9-640,51.8-640z"/>
		</g>
		<g>
			<path class="st3" d="M52.5-635.8c-0.1,0-0.4-0.1-0.5-0.2l-0.8-0.8c-0.2-0.2-0.2-0.7,0-0.9c0.2-0.2,0.7-0.2,0.9,0L53-637
				c0.2,0.2,0.2,0.7,0,0.9C52.8-635.9,52.7-635.8,52.5-635.8z"/>
		</g>
		<g>
			<path class="st3" d="M48.3-640c-0.1,0-0.4-0.1-0.5-0.2l-0.8-0.8c-0.2-0.2-0.2-0.7,0-0.9c0.2-0.2,0.7-0.2,0.9,0l0.8,0.8
				c0.2,0.2,0.2,0.7,0,0.9C48.6-640.1,48.5-640,48.3-640z"/>
		</g>
		<g>
			<path class="st3" d="M-6.5-644.2c-0.1,0-0.4-0.1-0.5-0.2c-0.2-0.2-0.2-0.7,0-0.9l0.8-0.8c0.2-0.2,0.7-0.2,0.9,0
				c0.2,0.2,0.2,0.7,0,0.9l-0.8,0.8C-6.2-644.3-6.4-644.2-6.5-644.2z"/>
		</g>
		<g>
			<path class="st3" d="M-10.7-640c-0.1,0-0.4-0.1-0.5-0.2c-0.2-0.2-0.2-0.7,0-0.9l0.8-0.8c0.2-0.2,0.7-0.2,0.9,0
				c0.2,0.2,0.2,0.7,0,0.9l-0.8,0.8C-10.4-640.1-10.6-640-10.7-640z"/>
		</g>
		<g>
			<path class="st3" d="M-10-644.2c-0.1,0-0.4-0.1-0.5-0.2l-0.8-0.8c-0.2-0.2-0.2-0.7,0-0.9s0.7-0.2,0.9,0l0.8,0.8
				c0.2,0.2,0.2,0.7,0,0.9C-9.7-644.3-9.8-644.2-10-644.2z"/>
		</g>
		<g>
			<path class="st3" d="M-5.7-640c-0.1,0-0.4-0.1-0.5-0.2l-0.8-0.8c-0.2-0.2-0.2-0.7,0-0.9c0.2-0.2,0.7-0.2,0.9,0l0.8,0.8
				c0.2,0.2,0.2,0.7,0,0.9C-5.5-640.1-5.6-640-5.7-640z"/>
		</g>
		<g>
			<path class="st3" d="M-11.1-627.1c-0.1,0-0.4-0.1-0.5-0.2l-0.2-0.2c-0.2-0.2-0.2-0.7,0-0.9s0.7-0.2,0.9,0l0.2,0.2
				c0.2,0.2,0.2,0.7,0,0.9C-10.7-627.1-11-627.1-11.1-627.1z"/>
		</g>
		<g>
			<path class="st3" d="M-14.2-630.2c-0.1,0-0.4-0.1-0.5-0.2l-0.2-0.2c-0.2-0.2-0.2-0.7,0-0.9s0.7-0.2,0.9,0l0.2,0.2
				c0.2,0.2,0.2,0.7,0,0.9C-13.9-630.2-14-630.2-14.2-630.2z"/>
		</g>
		<g>
			<path class="st3" d="M-11.3-630.2c-0.1,0-0.4-0.1-0.5-0.2c-0.2-0.2-0.2-0.7,0-0.9l0.2-0.2c0.2-0.2,0.7-0.2,0.9,0
				c0.2,0.2,0.2,0.7,0,0.9l-0.2,0.2C-11-630.2-11.2-630.2-11.3-630.2z"/>
		</g>
		<g>
			<path class="st3" d="M-14.4-627.1c-0.1,0-0.4-0.1-0.5-0.2c-0.2-0.2-0.2-0.7,0-0.9l0.2-0.2c0.2-0.2,0.7-0.2,0.9,0
				c0.2,0.2,0.2,0.7,0,0.9l-0.2,0.2C-14-627.1-14.2-627.1-14.4-627.1z"/>
		</g>
		<g>
			<path class="st3" d="M-8.3-658.3c-0.1,0-0.4-0.1-0.5-0.2l-0.2-0.2c-0.2-0.2-0.2-0.7,0-0.9s0.7-0.2,0.9,0l0.2,0.2
				c0.2,0.2,0.2,0.7,0,0.9C-8-658.3-8.2-658.3-8.3-658.3z"/>
		</g>
		<g>
			<path class="st3" d="M-11.4-661.3c-0.1,0-0.4-0.1-0.5-0.2l-0.2-0.2c-0.2-0.2-0.2-0.7,0-0.9c0.2-0.2,0.7-0.2,0.9,0l0.2,0.2
				c0.2,0.2,0.2,0.7,0,0.9C-11.1-661.4-11.2-661.3-11.4-661.3z"/>
		</g>
		<g>
			<path class="st3" d="M-8.5-661.3c-0.1,0-0.4-0.1-0.5-0.2c-0.2-0.2-0.2-0.7,0-0.9l0.2-0.2c0.2-0.2,0.7-0.2,0.9,0
				c0.2,0.2,0.2,0.7,0,0.9l-0.2,0.2C-8.2-661.4-8.4-661.3-8.5-661.3z"/>
		</g>
		<g>
			<path class="st3" d="M-11.7-658.3c-0.1,0-0.4-0.1-0.5-0.2c-0.2-0.2-0.2-0.7,0-0.9l0.2-0.2c0.2-0.2,0.7-0.2,0.9,0
				c0.2,0.2,0.2,0.7,0,0.9l-0.2,0.2C-11.3-658.3-11.4-658.3-11.7-658.3z"/>
		</g>
		<g>
			<path class="st3" d="M20.8-660.6c-0.1,0-0.4-0.1-0.5-0.2c-0.2-0.2-0.2-0.7,0-0.9l0.8-0.8c0.2-0.2,0.7-0.2,0.9,0
				c0.2,0.2,0.2,0.7,0,0.9l-0.8,0.8C21.2-660.6,20.9-660.6,20.8-660.6z"/>
		</g>
		<g>
			<path class="st3" d="M25-664.8c-0.1,0-0.4-0.1-0.5-0.2c-0.2-0.2-0.2-0.7,0-0.9l0.8-0.8c0.2-0.2,0.7-0.2,0.9,0
				c0.2,0.2,0.2,0.7,0,0.9l-0.8,0.8C25.4-664.8,25.1-664.8,25-664.8z"/>
		</g>
		<g>
			<path class="st3" d="M25.7-660.6c-0.1,0-0.4-0.1-0.5-0.2l-0.8-0.8c-0.2-0.2-0.2-0.7,0-0.9c0.2-0.2,0.7-0.2,0.9,0l0.8,0.8
				c0.2,0.2,0.2,0.7,0,0.9C26.1-660.6,26-660.6,25.7-660.6z"/>
		</g>
		<g>
			<path class="st3" d="M21.5-664.8c-0.1,0-0.4-0.1-0.5-0.2l-0.8-0.8c-0.2-0.2-0.2-0.7,0-0.9c0.2-0.2,0.7-0.2,0.9,0L22-666
				c0.2,0.2,0.2,0.7,0,0.9C21.9-664.8,21.8-664.8,21.5-664.8z"/>
		</g>
		<g>
			<path class="st3" d="M47.5-658.7c-0.1,0-0.4-0.1-0.5-0.2l-0.2-0.2c-0.2-0.2-0.2-0.7,0-0.9c0.2-0.2,0.7-0.2,0.9,0l0.2,0.2
				c0.2,0.2,0.2,0.7,0,0.9C47.8-658.9,47.7-658.7,47.5-658.7z"/>
		</g>
		<g>
			<path class="st3" d="M44.4-661.8c-0.1,0-0.4-0.1-0.5-0.2l-0.2-0.2c-0.2-0.2-0.2-0.7,0-0.9c0.2-0.2,0.7-0.2,0.9,0l0.2,0.2
				c0.2,0.2,0.2,0.7,0,0.9C44.8-661.9,44.5-661.8,44.4-661.8z"/>
		</g>
		<g>
			<path class="st3" d="M47.2-661.8c-0.1,0-0.4-0.1-0.5-0.2c-0.2-0.2-0.2-0.7,0-0.9l0.2-0.2c0.2-0.2,0.7-0.2,0.9,0
				c0.2,0.2,0.2,0.7,0,0.9l-0.2,0.2C47.6-661.9,47.5-661.8,47.2-661.8z"/>
		</g>
		<g>
			<path class="st3" d="M44.2-658.7c-0.1,0-0.4-0.1-0.5-0.2c-0.2-0.2-0.2-0.7,0-0.9l0.2-0.2c0.2-0.2,0.7-0.2,0.9,0
				c0.2,0.2,0.2,0.7,0,0.9l-0.2,0.2C44.5-658.9,44.4-658.7,44.2-658.7z"/>
		</g>
		<g>
			<g>
				<path class="st3" d="M19.3-597.1c-0.1,0-0.2,0-0.2-0.1l-21.7-10.2c-0.2-0.1-0.4-0.4-0.4-0.6v-11.7c0-0.4,0.4-0.7,0.7-0.7
					c0.4,0,0.7,0.4,0.7,0.7v11.2l21,10l19.8-10v-11.4c0-0.4,0.4-0.7,0.7-0.7c0.4,0,0.7,0.4,0.7,0.7v11.8c0,0.2-0.1,0.5-0.4,0.6
					l-20.5,10.2C19.5-597.1,19.4-597.1,19.3-597.1z"/>
			</g>
			<g>
				<path class="st3" d="M19.3-621.4c-0.1,0-0.2,0-0.2,0l-21.7-8.9c-0.4-0.1-0.5-0.6-0.4-0.9c0.1-0.4,0.6-0.5,0.9-0.4l21.4,8.8
					l20.1-8.8c0.4-0.1,0.7,0,0.9,0.4c0.1,0.4,0,0.7-0.4,0.9l-20.5,8.9C19.5-621.4,19.4-621.4,19.3-621.4z"/>
			</g>
			<g>
				<path class="st3" d="M19.3-597.1c-0.4,0-0.7-0.4-0.7-0.7v-24.4c0-0.4,0.4-0.7,0.7-0.7c0.4,0,0.7,0.4,0.7,0.7v24.4
					C20-597.4,19.7-597.1,19.3-597.1z"/>
			</g>
			<g>
				<path class="st3" d="M13-611.8c-0.1,0-0.2,0-0.2-0.1L-9-622.1c-0.2-0.1-0.4-0.2-0.4-0.5c0-0.2,0-0.5,0.1-0.6l6.4-8.3
					c0.2-0.4,0.7-0.4,0.9-0.1c0.4,0.2,0.4,0.7,0.1,0.9l-5.8,7.6l20.5,9.6l6.1-9.1c0.2-0.4,0.6-0.4,0.9-0.2c0.4,0.2,0.4,0.6,0.2,0.9
					l-6.4,9.6C13.3-611.9,13.2-611.8,13-611.8z"/>
			</g>
			<g>
				<path class="st3" d="M39.8-630.4c-0.1,0-0.1,0-0.2,0l-20.8-6.9l-20.8,6.9c-0.4,0.1-0.7-0.1-0.8-0.5s0.1-0.7,0.5-0.8l21-7
					c0.1,0,0.2,0,0.5,0l21,7c0.4,0.1,0.6,0.5,0.5,0.8C40.3-630.5,40-630.4,39.8-630.4z"/>
			</g>
			<g>
				<path class="st3" d="M26.3-612.5c-0.2,0-0.4-0.1-0.6-0.2l-7-8.9c-0.2-0.4-0.2-0.7,0.1-0.9c0.4-0.2,0.7-0.2,0.9,0.1l6.7,8.6l18-9
					l-5.3-7.6c-0.2-0.4-0.1-0.7,0.1-0.9s0.7-0.1,0.9,0.1L46-623c0.1,0.1,0.1,0.4,0.1,0.6c0,0.2-0.2,0.4-0.4,0.5l-19.2,9.6
					C26.6-612.5,26.4-612.5,26.3-612.5z"/>
			</g>
			<g>
				<path class="st3" d="M18.7-625.7c-0.4,0-0.7-0.4-0.7-0.7v-0.2c0-0.4,0.4-0.7,0.7-0.7c0.4,0,0.7,0.4,0.7,0.7v0.2
					C19.4-625.9,19.1-625.7,18.7-625.7z M18.7-629.3c-0.4,0-0.7-0.4-0.7-0.7v-0.2c0-0.4,0.4-0.7,0.7-0.7c0.4,0,0.7,0.4,0.7,0.7v0.2
					C19.4-629.7,19.1-629.3,18.7-629.3z M18.7-633c-0.4,0-0.7-0.4-0.7-0.7v-0.2c0-0.4,0.4-0.7,0.7-0.7c0.4,0,0.7,0.4,0.7,0.7v0.2
					C19.4-633.3,19.1-633,18.7-633z"/>
			</g>
		</g>
	</g>
	<g>
		<path class="st2" d="M8.8-16.4c-0.2,0-0.4-0.1-0.6-0.2c-0.3-0.3-0.3-0.8,0-1.1l22.4-22.4c0.3-0.3,0.8-0.3,1.1,0
			c0.3,0.3,0.3,0.8,0,1.1L9.3-16.7C9.2-16.5,9-16.4,8.8-16.4z"/>
		<g>
			<polyline class="st2" points="9.9,-16.1 10.5,-15.5 11.7,-16.8 11.2,-17.4 			"/>
			<polygon class="st2" points="11.8,-18 12.4,-17.4 12.9,-18 12.4,-18.6 			"/>
			<polygon class="st2" points="12.9,-19.1 13.6,-18.6 14.1,-19.1 13.6,-19.7 			"/>
		</g>
	</g>
</g>
</svg>
